<svg xmlns="http://www.w3.org/2000/svg" width="604" height="369.719" viewBox="0 0 604 369.719">
  <g id="Grupo_56417" data-name="Grupo 56417" transform="translate(608.577 -1147.936)">
    <g id="Grupo_56412" data-name="Grupo 56412" transform="translate(-521.613 1147.936)">
      <rect id="Rectángulo_30447" data-name="Rectángulo 30447" width="205.577" height="13.519" transform="translate(311.459 291.09)" fill="#b1a8d1"/>
      <rect id="Rectángulo_30448" data-name="Rectángulo 30448" width="15.909" height="130.218" transform="translate(0 239.5)" fill="#7dccd4"/>
      <g id="Grupo_56411" data-name="Grupo 56411" transform="translate(53.168 0)">
        <path id="Trazado_125426" data-name="Trazado 125426" d="M-223.178,1361.836a64.6,64.6,0,0,1-64.528-64.528,64.6,64.6,0,0,1,64.528-64.528,64.6,64.6,0,0,1,64.529,64.528A64.6,64.6,0,0,1-223.178,1361.836Zm0-128.683a64.228,64.228,0,0,0-64.155,64.155,64.228,64.228,0,0,0,64.155,64.155,64.228,64.228,0,0,0,64.156-64.155A64.228,64.228,0,0,0-223.178,1233.153Z" transform="translate(307.077 -1190.605)" fill="#1e2a3b"/>
        <path id="Trazado_125427" data-name="Trazado 125427" d="M-273.05,1303.429h-2.485a58.544,58.544,0,0,1,58.478-58.478v2.486A56.056,56.056,0,0,0-273.05,1303.429Z" transform="translate(300.956 -1196.725)" fill="#7d6eb2"/>
        <path id="Trazado_125428" data-name="Trazado 125428" d="M-119.344,1396.61l-1.326-3.749a52.777,52.777,0,0,0,30.223-27.2,52.78,52.78,0,0,0,2.14-40.6l3.749-1.326A57.163,57.163,0,0,1-119.344,1396.61Z" transform="translate(223.074 -1236.348)" fill="#cbc5e0"/>
        <rect id="Rectángulo_30449" data-name="Rectángulo 30449" width="118.394" height="0.372" transform="matrix(0.772, -0.636, 0.636, 0.772, 123.104, 75.307)" fill="#1e2a3b"/>
        <path id="Trazado_125429" data-name="Trazado 125429" d="M-326.434,1478.055l-.241-.284,30.017-25.349.241.284Z" transform="translate(326.675 -1301.064)" fill="#1e2a3b"/>
        <g id="Grupo_56409" data-name="Grupo 56409" transform="translate(136.925 10.786)">
          <rect id="Rectángulo_30450" data-name="Rectángulo 30450" width="2.982" height="0.373" transform="translate(0 44.176) rotate(-39.405)" fill="#1e2a3b"/>
          <path id="Trazado_125430" data-name="Trazado 125430" d="M-37.372,1214.164l-.237-.288,4.463-3.672.237.288Zm8.928-7.343-.237-.288,4.463-3.672.237.289Zm8.927-7.343-.237-.288,4.463-3.672.237.288Zm8.928-7.344-.237-.288,4.463-3.672.237.288Zm8.927-7.343-.237-.288,4.463-3.672.237.288Z" transform="translate(44.377 -1175.265)" fill="#1e2a3b"/>
          <rect id="Rectángulo_30451" data-name="Rectángulo 30451" width="2.983" height="0.373" transform="translate(51.405 1.893) rotate(-39.405)" fill="#1e2a3b"/>
        </g>
      </g>
    </g>
    <g id="Grupo_56413" data-name="Grupo 56413" transform="translate(-608.577 1401.61)">
      <path id="Trazado_125434" data-name="Trazado 125434" d="M-601.677,1665.115l-1.655-4.289c-.049-.128-.1-.276-.154-.445s-.106-.349-.155-.541a7.943,7.943,0,0,1-.316.993l-1.655,4.281-.4,1.029-.985,2.545a.523.523,0,0,1-.169.236.471.471,0,0,1-.309.1h-1.1l4.215-10.541h1.441l4.215,10.541h-1.1a.478.478,0,0,1-.31-.1.59.59,0,0,1-.176-.243l-.986-2.545Z" transform="translate(608.577 -1658.37)" fill="#1e2a3b"/>
      <path id="Trazado_125435" data-name="Trazado 125435" d="M-560.161,1659.612v3.6h1.883a3.7,3.7,0,0,0,1.048-.132,2.114,2.114,0,0,0,.736-.367,1.429,1.429,0,0,0,.43-.571,1.873,1.873,0,0,0,.14-.732,1.614,1.614,0,0,0-.559-1.365,2.846,2.846,0,0,0-1.736-.43v-1.125a6.384,6.384,0,0,1,1.673.192,3.241,3.241,0,0,1,1.155.544,2.115,2.115,0,0,1,.666.864,2.966,2.966,0,0,1,.213,1.151,2.3,2.3,0,0,1-.121.747,2.238,2.238,0,0,1-.364.665,2.605,2.605,0,0,1-.614.556,3.364,3.364,0,0,1-.872.4,3.182,3.182,0,0,1,1.747.828,2.2,2.2,0,0,1,.584,1.592,2.961,2.961,0,0,1-.246,1.221,2.62,2.62,0,0,1-.721.949,3.369,3.369,0,0,1-1.166.615,5.255,5.255,0,0,1-1.574.216h-3.723v-10.541A1.482,1.482,0,0,1-560.161,1659.612Zm2.28,8.282a3.494,3.494,0,0,0,1.052-.14,1.962,1.962,0,0,0,.725-.394,1.528,1.528,0,0,0,.416-.6,2.163,2.163,0,0,0,.132-.769,1.577,1.577,0,0,0-.581-1.291,2.71,2.71,0,0,0-1.744-.475h-2.28v3.67Z" transform="translate(584.942 -1658.37)" fill="#1e2a3b"/>
      <path id="Trazado_125436" data-name="Trazado 125436" d="M-510.368,1666.732a.271.271,0,0,1,.205.1l.567.61a4.5,4.5,0,0,1-1.57,1.17,5.38,5.38,0,0,1-2.233.42,5.217,5.217,0,0,1-2.059-.394,4.522,4.522,0,0,1-1.581-1.1,5,5,0,0,1-1.016-1.7,6.371,6.371,0,0,1-.36-2.185,6.153,6.153,0,0,1,.375-2.185,5,5,0,0,1,1.055-1.707,4.733,4.733,0,0,1,1.63-1.107,5.408,5.408,0,0,1,2.1-.393,5.11,5.11,0,0,1,1.986.36,5.011,5.011,0,0,1,1.515.978l-.471.655a.374.374,0,0,1-.114.121.32.32,0,0,1-.187.048.587.587,0,0,1-.324-.144,4.892,4.892,0,0,0-.5-.32,3.918,3.918,0,0,0-.772-.319,3.872,3.872,0,0,0-1.14-.144,3.829,3.829,0,0,0-1.493.283,3.248,3.248,0,0,0-1.166.82,3.771,3.771,0,0,0-.762,1.309,5.226,5.226,0,0,0-.272,1.744,5.084,5.084,0,0,0,.283,1.758,3.873,3.873,0,0,0,.773,1.305,3.25,3.25,0,0,0,1.155.813,3.667,3.667,0,0,0,1.438.28,5.953,5.953,0,0,0,.85-.055,3.432,3.432,0,0,0,.7-.174,2.922,2.922,0,0,0,.6-.3,4.3,4.3,0,0,0,.548-.43A.38.38,0,0,1-510.368,1666.732Z" transform="translate(563.234 -1658.251)" fill="#1e2a3b"/>
      <path id="Trazado_125437" data-name="Trazado 125437" d="M-470.583,1667.874h2.508a4.081,4.081,0,0,0,1.545-.28,3.214,3.214,0,0,0,1.177-.806,3.612,3.612,0,0,0,.75-1.291,5.286,5.286,0,0,0,.265-1.735,5.291,5.291,0,0,0-.265-1.736,3.68,3.68,0,0,0-.75-1.3,3.21,3.21,0,0,0-1.177-.808,4.076,4.076,0,0,0-1.545-.28h-2.508s-1.428-.049-1.428-1.155h3.936a5.732,5.732,0,0,1,2.122.379,4.688,4.688,0,0,1,1.644,1.074,4.831,4.831,0,0,1,1.06,1.665,5.953,5.953,0,0,1,.375,2.156,5.949,5.949,0,0,1-.375,2.155,4.782,4.782,0,0,1-1.06,1.662,4.71,4.71,0,0,1-1.644,1.07,5.735,5.735,0,0,1-2.122.379h-3.936C-472.011,1667.876-470.583,1667.874-470.583,1667.874Z" transform="translate(539.897 -1658.37)" fill="#1e2a3b"/>
      <path id="Trazado_125438" data-name="Trazado 125438" d="M-417.668,1667.865l-.007,1.163h-6.5v-10.541h6.5v1.163h-5.068v3.5h4.1v1.118h-4.1v3.6Z" transform="translate(515.838 -1658.37)" fill="#1e2a3b"/>
      <path id="Trazado_125439" data-name="Trazado 125439" d="M-380.319,1660.92v2.415h4.333v1.163h-4.333v4.531h-1.427v-8.108Zm-1.427-2.433h6.5v1.163h-5.068S-381.746,1659.246-381.746,1658.487Z" transform="translate(494.502 -1658.37)" fill="#1e2a3b"/>
      <path id="Trazado_125440" data-name="Trazado 125440" d="M-333.744,1664.929h-1.64a.307.307,0,0,1-.224-.081.262.262,0,0,1-.084-.2v-.81h3.237C-332.457,1664.491-333.744,1664.929-333.744,1664.929Zm1.287,1.26v1.7a5.932,5.932,0,0,1-1.7.857,6.553,6.553,0,0,1-1.974.283,6.34,6.34,0,0,1-2.3-.394,5.058,5.058,0,0,1-1.747-1.1,4.822,4.822,0,0,1-1.115-1.7,5.943,5.943,0,0,1-.39-2.185,6.13,6.13,0,0,1,.379-2.2,4.863,4.863,0,0,1,1.078-1.7,4.794,4.794,0,0,1,1.7-1.1,6.1,6.1,0,0,1,2.236-.389,6.879,6.879,0,0,1,1.162.091,5.37,5.37,0,0,1,.993.265,4.74,4.74,0,0,1,.846.42,5.159,5.159,0,0,1,.728.555l-.4.648a.425.425,0,0,1-.247.188.43.43,0,0,1-.335-.071c-.117-.068-.253-.152-.4-.249a3.509,3.509,0,0,0-.556-.283,4.448,4.448,0,0,0-.772-.232,5.1,5.1,0,0,0-1.055-.1,4.27,4.27,0,0,0-1.611.29,3.419,3.419,0,0,0-1.228.831,3.677,3.677,0,0,0-.779,1.309,5.144,5.144,0,0,0-.272,1.725,5.2,5.2,0,0,0,.283,1.776,3.722,3.722,0,0,0,.809,1.331,3.458,3.458,0,0,0,1.276.835,4.7,4.7,0,0,0,1.685.286,4.675,4.675,0,0,0,1.306-.165,5.684,5.684,0,0,0,1.114-.46v-1.057" transform="translate(474.35 -1658.251)" fill="#1e2a3b"/>
      <path id="Trazado_125441" data-name="Trazado 125441" d="M-286.292,1663.188v-4.7h1.428v10.541h-1.428v-4.8m-5.685,0v4.8H-293.4v-10.541h1.428v4.7m4.44,1.043h-3.236c0-.574.885-1.043.885-1.043h2.351Z" transform="translate(450.075 -1658.37)" fill="#1e2a3b"/>
      <path id="Trazado_125442" data-name="Trazado 125442" d="M-244.048,1669.028h-1.428v-10.541h1.428Z" transform="translate(425.971 -1658.37)" fill="#1e2a3b"/>
      <path id="Trazado_125443" data-name="Trazado 125443" d="M-210.263,1665.387a5.344,5.344,0,0,1-.217,1.581,3.194,3.194,0,0,1-.64,1.18,2.78,2.78,0,0,1-1.04.74,3.669,3.669,0,0,1-1.42.257,5.649,5.649,0,0,1-1.486-.206c.009-.143.022-.283.037-.423s.027-.278.036-.416a.331.331,0,0,1,.092-.2.326.326,0,0,1,.239-.078,1.274,1.274,0,0,1,.349.067,2.086,2.086,0,0,0,.585.066,2.387,2.387,0,0,0,.868-.147,1.536,1.536,0,0,0,.64-.455,2.122,2.122,0,0,0,.394-.791,4.227,4.227,0,0,0,.136-1.143v-6.929h1.427Z" transform="translate(410.677 -1658.37)" fill="#1e2a3b"/>
      <path id="Trazado_125444" data-name="Trazado 125444" d="M-171.35,1663.4a3.97,3.97,0,0,1,.378.3,1.747,1.747,0,0,1,.316.334l4.193,4.994H-167.7a1.312,1.312,0,0,1-.239-.018.576.576,0,0,1-.173-.059.546.546,0,0,1-.129-.1.918.918,0,0,1-.107-.129l-3.634-4.184a.877.877,0,0,0-.317-.262,1.311,1.311,0,0,0-.514-.077h-.648v4.825h-1.42v-10.541h1.42v4.62h.537a3.729,3.729,0,0,1,.906.087A6.828,6.828,0,0,1-171.35,1663.4Zm.461-2.037,2.234-2.536a.846.846,0,0,1,.309-.265.956.956,0,0,1,.4-.073h1.206l-3.26,3.684" transform="translate(390.467 -1658.37)" fill="#1e2a3b"/>
      <path id="Trazado_125445" data-name="Trazado 125445" d="M-123.957,1667.829v1.2h-5.981v-10.541h1.42v9.342Z" transform="translate(367.866 -1658.37)" fill="#1e2a3b"/>
      <path id="Trazado_125446" data-name="Trazado 125446" d="M-89.089,1660.562a6.449,6.449,0,0,1,.044.72v7.746H-90.3v-10.541C-89.521,1658.487-89.089,1660.562-89.089,1660.562Zm2.875,2.589s1.221,2.307,1.278,2.434.109.257.158.39c.049-.133.1-.264.155-.393a3.852,3.852,0,0,1,.176-.371l3.575-6.48a.388.388,0,0,1,.195-.206.937.937,0,0,1,.3-.037h1.052v10.541h-1.251v-7.746c0-.1,0-.213.011-.331s.016-.238.025-.361l-3.619,6.591a.548.548,0,0,1-.515.33h-.206a.547.547,0,0,1-.515-.33l-1.625-3.115" transform="translate(347.93 -1658.37)" fill="#1e2a3b"/>
      <path id="Trazado_125447" data-name="Trazado 125447" d="M-36.262,1660.826c.009.122.018.243.022.36s.008.228.008.331v7.511h-1.251v-10.541C-36.406,1658.487-36.262,1660.826-36.262,1660.826Zm3.87,2.931,2.235,2.91c-.009-.127-.018-.251-.025-.371s-.011-.234-.011-.342v-7.466h1.251v10.541h-.713a.613.613,0,0,1-.283-.059.723.723,0,0,1-.225-.2l-2.881-3.754" transform="translate(321.37 -1658.37)" fill="#1e2a3b"/>
      <path id="Trazado_125448" data-name="Trazado 125448" d="M12.2,1669.028a4.728,4.728,0,0,1-1.64-1.107,4.952,4.952,0,0,1-1.059-1.7,6.481,6.481,0,0,1,0-4.347,5,5,0,0,1,1.059-1.707,4.753,4.753,0,0,1,1.64-1.114l.582,1.125a3.291,3.291,0,0,0-1.181.821,3.655,3.655,0,0,0-.754,1.305,5.856,5.856,0,0,0,0,3.483,3.669,3.669,0,0,0,.754,1.3,3.25,3.25,0,0,0,1.181.816Zm3.663-1.125a3.227,3.227,0,0,0,1.177-.816,3.7,3.7,0,0,0,.75-1.3,5.856,5.856,0,0,0,0-3.483,3.685,3.685,0,0,0-.75-1.305,3.267,3.267,0,0,0-1.177-.821l.578-1.125a4.764,4.764,0,0,1,1.644,1.114,5.027,5.027,0,0,1,1.059,1.707,6.49,6.49,0,0,1,0,4.347,4.981,4.981,0,0,1-1.059,1.7,4.739,4.739,0,0,1-1.644,1.107Z" transform="translate(297.928 -1658.653)" fill="#1e2a3b"/>
      <path id="Trazado_125449" data-name="Trazado 125449" d="M59.472,1658.487h3.111a5.864,5.864,0,0,1,1.739.232,3.349,3.349,0,0,1,1.225.659,2.658,2.658,0,0,1,.725,1.029,3.631,3.631,0,0,1,.239,1.347,3.436,3.436,0,0,1-.258,1.346,2.909,2.909,0,0,1-.754,1.052,3.517,3.517,0,0,1-1.228.688,5.287,5.287,0,0,1-1.688.246H60.891v3.943H59.472v-6.88l1.419-.017v1.822h1.692a3.269,3.269,0,0,0,1.078-.162,2.26,2.26,0,0,0,.787-.452,1.849,1.849,0,0,0,.481-.7,2.373,2.373,0,0,0,.162-.889,2.021,2.021,0,0,0-.621-1.574,2.722,2.722,0,0,0-1.886-.567H60.891S59.472,1659.315,59.472,1658.487Z" transform="translate(272.61 -1658.37)" fill="#1e2a3b"/>
      <path id="Trazado_125450" data-name="Trazado 125450" d="M107.2,1667.9a3.227,3.227,0,0,0,1.177-.816,3.706,3.706,0,0,0,.75-1.3,5.856,5.856,0,0,0,0-3.483,3.692,3.692,0,0,0-.75-1.305,3.267,3.267,0,0,0-1.177-.821l.578-1.125a4.762,4.762,0,0,1,1.644,1.114,5.034,5.034,0,0,1,1.059,1.707,6.092,6.092,0,0,1,.375,2.174,6.416,6.416,0,0,1-.151,1.412,5.521,5.521,0,0,1-.437,1.247,4.822,4.822,0,0,1-.7,1.048,4.771,4.771,0,0,1-.927.817l2.7,2.92h-1.176a1.391,1.391,0,0,1-.471-.074.933.933,0,0,1-.376-.257l-1.846-2.016Zm-3.519-8.852.437,1.125a3.3,3.3,0,0,0-1.18.821,3.655,3.655,0,0,0-.755,1.305,5.867,5.867,0,0,0,0,3.483,3.669,3.669,0,0,0,.755,1.3,3.255,3.255,0,0,0,1.18.816l-.581,1.125a4.726,4.726,0,0,1-1.639-1.107,4.952,4.952,0,0,1-1.059-1.7,6.481,6.481,0,0,1,0-4.347,5,5,0,0,1,1.059-1.707,4.751,4.751,0,0,1,1.639-1.114" transform="translate(251.997 -1658.653)" fill="#1e2a3b"/>
      <path id="Trazado_125451" data-name="Trazado 125451" d="M154.424,1664.565a5.312,5.312,0,0,1-1.137.065h-1.082v4.4h-1.419V1661.6h1.419v1.99h1.5a3.616,3.616,0,0,0,1.093-.151,2.258,2.258,0,0,0,.794-.427,1.786,1.786,0,0,0,.482-.658,2.154,2.154,0,0,0,.161-.847,1.683,1.683,0,0,0-.618-1.419,3,3,0,0,0-1.853-.478h-1.56s-1.419-.229-1.419-1.125h2.979a6.533,6.533,0,0,1,1.728.2,3.317,3.317,0,0,1,1.2.585,2.346,2.346,0,0,1,.7.924,3.083,3.083,0,0,1,.228,1.21,3.021,3.021,0,0,1-.177,1.044,2.764,2.764,0,0,1-.511.871,3.066,3.066,0,0,1-.817.659,5.126,5.126,0,0,1-1.225.491m1.8,1.965,1.878,2.59h-1.265a.622.622,0,0,1-.574-.3l-2.147-2.983S156.162,1665.741,156.7,1666.438Z" transform="translate(226.688 -1658.37)" fill="#1e2a3b"/>
      <path id="Trazado_125452" data-name="Trazado 125452" d="M199.181,1660.016a.547.547,0,0,1-.144.166.314.314,0,0,1-.188.055.523.523,0,0,1-.293-.125c-.113-.083-.255-.175-.424-.276a3.432,3.432,0,0,0-.609-.276,2.644,2.644,0,0,0-.865-.124,2.529,2.529,0,0,0-.842.128,1.783,1.783,0,0,0-.61.35,1.414,1.414,0,0,0-.372.518,1.636,1.636,0,0,0-.125.644,1.185,1.185,0,0,0,.217.731,1.864,1.864,0,0,0,.574.5,4.393,4.393,0,0,0,.81.357q.453.151.927.312t.927.364a3.325,3.325,0,0,1,.81.511,2.346,2.346,0,0,1,.574.759,2.521,2.521,0,0,1,.216,1.1,3.556,3.556,0,0,1-.235,1.3,3.017,3.017,0,0,1-.688,1.056,3.2,3.2,0,0,1-1.111.706,4.087,4.087,0,0,1-1.5.258,4.564,4.564,0,0,1-1.869-.371,4.39,4.39,0,0,1-1.435-1l.411-.676a.564.564,0,0,1,.144-.137.338.338,0,0,1,.188-.055.419.419,0,0,1,.218.078c.08.051.173.116.275.195s.221.164.353.258a2.946,2.946,0,0,0,.453.256,3.013,3.013,0,0,0,.578.195,3.077,3.077,0,0,0,.729.078,2.7,2.7,0,0,0,.9-.141,1.9,1.9,0,0,0,.674-.393,1.709,1.709,0,0,0,.423-.606,2.026,2.026,0,0,0,.148-.787,1.323,1.323,0,0,0-.217-.784,1.805,1.805,0,0,0-.57-.511,3.954,3.954,0,0,0-.81-.349l-.927-.294q-.471-.151-.927-.35a3.005,3.005,0,0,1-.81-.515,2.373,2.373,0,0,1-.569-.791,3.024,3.024,0,0,1,0-2.255,2.765,2.765,0,0,1,.632-.927,3.1,3.1,0,0,1,1.023-.648,3.73,3.73,0,0,1,1.394-.242,4.424,4.424,0,0,1,1.607.279,3.8,3.8,0,0,1,1.277.809Z" transform="translate(205.494 -1658.251)" fill="#1e2a3b"/>
      <path id="Trazado_125453" data-name="Trazado 125453" d="M237.738,1661.419v7.609h-1.42v-7.609m0-1.732H232.9v-1.2h8.254c0,.786-1.482,1.2-1.482,1.2h-3.351Z" transform="translate(185.394 -1658.37)" fill="#1e2a3b"/>
      <path id="Trazado_125454" data-name="Trazado 125454" d="M281.017,1667.895a2.949,2.949,0,0,0,1.169-.22,2.447,2.447,0,0,0,.872-.618,2.708,2.708,0,0,0,.544-.949,3.741,3.741,0,0,0,.188-1.213v-6.407h1.419v6.407a4.8,4.8,0,0,1-.29,1.691,3.937,3.937,0,0,1-.831,1.351,3.813,3.813,0,0,1-1.32.893,4.893,4.893,0,0,1-3.5,0,3.848,3.848,0,0,1-1.325-.893,3.914,3.914,0,0,1-.834-1.351,4.789,4.789,0,0,1-.291-1.691v-6.407h1.419v6.4a3.744,3.744,0,0,0,.188,1.214,2.714,2.714,0,0,0,.544.949,2.487,2.487,0,0,0,.875.622A2.947,2.947,0,0,0,281.017,1667.895Z" transform="translate(163.306 -1658.37)" fill="#1e2a3b"/>
      <path id="Trazado_125455" data-name="Trazado 125455" d="M330.371,1658.487l-4.3,10.541H324.8l-4.3-10.541h1.14a.476.476,0,0,1,.309.1.6.6,0,0,1,.176.243l2.972,7.437q.1.249.188.544t.166.617q.074-.323.155-.617a5.5,5.5,0,0,1,.176-.544l2.964-7.437a.55.55,0,0,1,.173-.232.474.474,0,0,1,.312-.106Z" transform="translate(141.337 -1658.37)" fill="#1e2a3b"/>
      <path id="Trazado_125456" data-name="Trazado 125456" d="M375.6,1667.027c.024-.161.052-.316.08-.463s.062-.284.1-.412l2.184-7.326a.459.459,0,0,1,.167-.235.484.484,0,0,1,.312-.1h1.111l-3.288,10.541S375.6,1668.6,375.6,1667.027Zm-1.941-2.3-1.348-3.741c-.025-.078-.047-.161-.07-.25s-.045-.182-.07-.28c-.024.1-.049.192-.073.28s-.05.172-.074.25l-2.685,8.04h-1.281l-3.288-10.541h1.184a.524.524,0,0,1,.32.1.426.426,0,0,1,.166.243l2.177,7.326c.034.132.068.275.1.427s.062.314.091.486c.035-.171.071-.335.107-.49s.078-.294.122-.423l2.478-7.326a.551.551,0,0,1,.173-.232.475.475,0,0,1,.312-.106h.412a.478.478,0,0,1,.309.1.6.6,0,0,1,.176.243l1.336,3.96" transform="translate(119.072 -1658.37)" fill="#1e2a3b"/>
      <path id="Trazado_125457" data-name="Trazado 125457" d="M425.817,1663.548l3.611,5.48h-1.412a.36.36,0,0,1-.253-.084.784.784,0,0,1-.151-.188l-2.825-4.428a1.6,1.6,0,0,1-.132.3l-2.75,4.126a1.559,1.559,0,0,1-.159.188.313.313,0,0,1-.231.084h-1.325l3.627-5.414-3.479-5.127h1.419a.4.4,0,0,1,.228.051.488.488,0,0,1,.132.148l3.7,4.862m.473-2.861,1.329-1.972a.567.567,0,0,1,.139-.165.309.309,0,0,1,.192-.063h1.361l-2.7,3.908A2.112,2.112,0,0,1,426.29,1660.687Z" transform="translate(91.203 -1658.37)" fill="#1e2a3b"/>
      <path id="Trazado_125458" data-name="Trazado 125458" d="M467.622,1664.057s.327-.463.4-.613.211-.357.3-.529l2.405-4.1a.8.8,0,0,1,.184-.228.441.441,0,0,1,.3-.1h1.257l-3.861,6.341v4.2h-1.426v-4.2m-.786-1.284-3.077-5.057h1.251a.459.459,0,0,1,.3.092.833.833,0,0,1,.191.239l1.888,3.245S466.781,1663.544,466.386,1663.544Z" transform="translate(69.517 -1658.37)" fill="#1e2a3b"/>
      <path id="Trazado_125459" data-name="Trazado 125459" d="M512.842,1661.871l-4.268,5.994H514.6v1.163h-7.9v-.559a.613.613,0,0,1,.04-.221,1.345,1.345,0,0,1,.1-.2l4.39-6.165m1.591-2.235h-5.841v-1.163h7.709C514.686,1659.239,512.818,1659.65,512.818,1659.65Z" transform="translate(47.697 -1658.37)" fill="#1e2a3b"/>
    </g>
    <g id="Grupo_56414" data-name="Grupo 56414" transform="translate(-426.059 1476.795)">
      <path id="Trazado_125460" data-name="Trazado 125460" d="M-236.654,1819.276a2.052,2.052,0,0,0,.791-.717,4.06,4.06,0,0,0,.544-1.317,8.541,8.541,0,0,0,.2-2.023,8.6,8.6,0,0,0-.2-2.026,4.065,4.065,0,0,0-.544-1.32,2.054,2.054,0,0,0-.791-.717l.57-1a3.268,3.268,0,0,1,1.217.989,5.047,5.047,0,0,1,.813,1.681,8.561,8.561,0,0,1,.3,2.4,8.522,8.522,0,0,1-.3,2.395,5,5,0,0,1-.813,1.674,3.267,3.267,0,0,1-1.217.985Zm-2.438,1a3.284,3.284,0,0,1-1.21-.985,4.946,4.946,0,0,1-.809-1.674,8.605,8.605,0,0,1-.295-2.395,8.645,8.645,0,0,1,.295-2.4,5,5,0,0,1,.809-1.681,3.286,3.286,0,0,1,1.21-.989l.57,1a2.027,2.027,0,0,0-.787.717,4.1,4.1,0,0,0-.541,1.32,8.6,8.6,0,0,0-.2,2.026,8.54,8.54,0,0,0,.2,2.023,4.093,4.093,0,0,0,.541,1.317,2.025,2.025,0,0,0,.787.717Z" transform="translate(241.406 -1809.828)" fill="#1e2a3b"/>
      <path id="Trazado_125461" data-name="Trazado 125461" d="M-193.161,1811.414v7.841h2.074v1h-5.649v-1h2.258v-6.667Zm-1.295,0-1.876,1.611a.415.415,0,0,1-.191.1.468.468,0,0,1-.176,0,.4.4,0,0,1-.151-.059.391.391,0,0,1-.107-.1l-.412-.567,3.141-2.714h1.066C-193.161,1810.495-194.456,1811.414-194.456,1811.414Z" transform="translate(219.259 -1809.598)" fill="#1e2a3b"/>
      <path id="Trazado_125462" data-name="Trazado 125462" d="M-153.992,1820.159m2.066-1.243h2.589a.461.461,0,0,1,.339.125.435.435,0,0,1,.124.323v.795h-4.037C-152.911,1819.451-151.926,1818.916-151.926,1818.916Zm-3.979,1.243v-.448a.771.771,0,0,1,.059-.287.819.819,0,0,1,.183-.272l3.376-3.391q.421-.426.766-.82a5.773,5.773,0,0,0,.588-.791,3.8,3.8,0,0,0,.376-.806,2.812,2.812,0,0,0,.132-.871,2.1,2.1,0,0,0-.147-.813,1.608,1.608,0,0,0-.4-.578,1.679,1.679,0,0,0-.6-.342,2.364,2.364,0,0,0-.743-.114,2.255,2.255,0,0,0-.743.117,2,2,0,0,0-.6.328,1.928,1.928,0,0,0-.438.5,1.986,1.986,0,0,0-.25.632.59.59,0,0,1-.239.343.684.684,0,0,1-.423.047l-.683-.117a3.851,3.851,0,0,1,.4-1.277,3.116,3.116,0,0,1,.751-.931,3.186,3.186,0,0,1,1.034-.57,3.922,3.922,0,0,1,1.257-.195,3.844,3.844,0,0,1,1.251.2,2.925,2.925,0,0,1,1.008.578,2.673,2.673,0,0,1,.669.923,3,3,0,0,1,.243,1.235,3.289,3.289,0,0,1-.176,1.092,4.333,4.333,0,0,1-.478.961,7.417,7.417,0,0,1-.7.89q-.393.434-.835.875l-2.781,2.839A3.286,3.286,0,0,1-155.9,1820.159Z" transform="translate(198.407 -1809.501)" fill="#1e2a3b"/>
      <path id="Trazado_125463" data-name="Trazado 125463" d="M-108.467,1814.569a3.245,3.245,0,0,1,1.5.959,2.478,2.478,0,0,1,.518,1.607,3.02,3.02,0,0,1-.276,1.309,2.94,2.94,0,0,1-.754.989,3.357,3.357,0,0,1-1.114.625,4.206,4.206,0,0,1-1.365.217,4.347,4.347,0,0,1-1.435-.209,3.005,3.005,0,0,1-1.008-.578,3.072,3.072,0,0,1-.676-.871,6.635,6.635,0,0,1-.449-1.093l.566-.235a.7.7,0,0,1,.431-.051.419.419,0,0,1,.305.242c.064.137.144.3.239.493a2.289,2.289,0,0,0,.394.552,2.1,2.1,0,0,0,.636.449,2.287,2.287,0,0,0,.982.183,2.415,2.415,0,0,0,.966-.18,2.113,2.113,0,0,0,.692-.467,1.988,1.988,0,0,0,.416-.641,1.876,1.876,0,0,0,.14-.7,2.641,2.641,0,0,0-.11-.78,1.316,1.316,0,0,0-.413-.611,2.171,2.171,0,0,0-.827-.4,5.157,5.157,0,0,0-1.35-.147v-.95A6.689,6.689,0,0,1-108.467,1814.569Zm.365-1.4a2,2,0,0,0,.136-.75,2.032,2.032,0,0,0-.143-.8,1.534,1.534,0,0,0-.394-.558,1.639,1.639,0,0,0-.592-.331,2.38,2.38,0,0,0-.739-.11,2.273,2.273,0,0,0-.74.117,2,2,0,0,0-.6.328,1.917,1.917,0,0,0-.438.5,1.975,1.975,0,0,0-.251.632.632.632,0,0,1-.239.343.654.654,0,0,1-.416.047l-.684-.117a3.884,3.884,0,0,1,.4-1.277,3.051,3.051,0,0,1,.746-.931,3.183,3.183,0,0,1,1.037-.57,3.958,3.958,0,0,1,1.261-.195,3.852,3.852,0,0,1,1.237.191,2.875,2.875,0,0,1,.974.545,2.454,2.454,0,0,1,.636.853,2.637,2.637,0,0,1,.229,1.11,2.866,2.866,0,0,1-.129.894,2.124,2.124,0,0,1-.367.688Z" transform="translate(177.095 -1809.501)" fill="#1e2a3b"/>
      <path id="Trazado_125464" data-name="Trazado 125464" d="M-65.613,1816.475h1.6v.751a.29.29,0,0,1-.07.2.27.27,0,0,1-.216.081h-1.309v2.773H-66.76v-2.773h-4.679a.4.4,0,0,1-.255-.085.365.365,0,0,1-.135-.21l-.133-.669,5.127-6.8h1.221l-1.089,1.508-3.84,5.229h4.929Z" transform="translate(156.191 -1809.62)" fill="#1e2a3b"/>
      <path id="Trazado_125465" data-name="Trazado 125465" d="M-26.543,1814.893l-1.045-.227.846-4.928h4.994v.574a.639.639,0,0,1-.172.46.8.8,0,0,1-.593.18h-3.31l-.486,2.765m1.977-.177a2.3,2.3,0,0,1,.995.243,2.955,2.955,0,0,1,1.055.669,2.807,2.807,0,0,1,.64,1.008,3.594,3.594,0,0,1,.217,1.266,3.8,3.8,0,0,1-.29,1.516,3.445,3.445,0,0,1-.8,1.159,3.518,3.518,0,0,1-1.2.739,4.247,4.247,0,0,1-1.493.257,4.2,4.2,0,0,1-.89-.092,4.406,4.406,0,0,1-.8-.246,4.556,4.556,0,0,1-.687-.353,3.978,3.978,0,0,1-.559-.419l.4-.559a.4.4,0,0,1,.346-.192.652.652,0,0,1,.332.115c.122.076.272.16.448.254a3.855,3.855,0,0,0,.621.253,2.806,2.806,0,0,0,.85.114,2.658,2.658,0,0,0,.994-.176,2.134,2.134,0,0,0,.757-.5,2.225,2.225,0,0,0,.486-.783,2.925,2.925,0,0,0,.169-1.023,2.609,2.609,0,0,0-.143-.89,1.762,1.762,0,0,0-.434-.677,2,2,0,0,0-.725-.434,5.741,5.741,0,0,0-1.016-.155C-25.058,1814.117-24.331,1813.54-24.331,1813.54Z" transform="translate(134.157 -1809.62)" fill="#1e2a3b"/>
      <path id="Trazado_125466" data-name="Trazado 125466" d="M18.85,1813.847a3.964,3.964,0,0,1,.629.183,2.86,2.86,0,0,1,.989.61,2.933,2.933,0,0,1,.673.985,3.372,3.372,0,0,1,.25,1.335,3.426,3.426,0,0,1-.265,1.354,3.3,3.3,0,0,1-.739,1.089,3.428,3.428,0,0,1-1.14.729,4.218,4.218,0,0,1-2.909.011,3.054,3.054,0,0,1-1.1-.721,3.185,3.185,0,0,1-.7-1.133,4.267,4.267,0,0,1-.246-1.489,4.057,4.057,0,0,1,.306-1.475,7.155,7.155,0,0,1,.974-1.674l2.678-3.6a.82.82,0,0,1,.282-.225.9.9,0,0,1,.416-.091h1.163l-3.126,3.95c-.093.117-.183.232-.269.342s-.318.511-.4.62l-.339.661c-.1.233-.2.491-.327.824a2.563,2.563,0,0,0-.1.894,2.8,2.8,0,0,0,.147.927,2.008,2.008,0,0,0,.431.721,1.922,1.922,0,0,0,.69.467,2.485,2.485,0,0,0,.931.165,2.606,2.606,0,0,0,.96-.17,2.156,2.156,0,0,0,.735-.471,2.054,2.054,0,0,0,.471-.713,2.38,2.38,0,0,0,.165-.9,2.549,2.549,0,0,0-.161-.931,1.955,1.955,0,0,0-1.17-1.151,4.858,4.858,0,0,0-.905-.154C17.846,1814.031,18.85,1813.847,18.85,1813.847Z" transform="translate(112.813 -1809.62)" fill="#1e2a3b"/>
      <path id="Trazado_125467" data-name="Trazado 125467" d="M62.128,1814.414l-2.712,5.4a.974.974,0,0,1-.265.327.7.7,0,0,1-.448.136h-.942l2.524-4.98A2.58,2.58,0,0,1,62.128,1814.414Zm-.578-1.6.639-1.234a3.608,3.608,0,0,1,.2-.339,3.416,3.416,0,0,1,.22-.294h-5.5a.3.3,0,0,1-.221-.1.313.313,0,0,1-.1-.224v-.89h7.158v.588a1.293,1.293,0,0,1-.056.412,2.8,2.8,0,0,1-.107.273l-.908,1.807Z" transform="translate(91.441 -1809.62)" fill="#1e2a3b"/>
      <path id="Trazado_125468" data-name="Trazado 125468" d="M102.678,1819.232a2.776,2.776,0,0,0,.924-.144,1.957,1.957,0,0,0,.691-.4,1.756,1.756,0,0,0,.434-.625,2.078,2.078,0,0,0,.151-.805,2.185,2.185,0,0,0-.181-.931,1.713,1.713,0,0,0-.485-.629,2.019,2.019,0,0,0-.7-.356,3.093,3.093,0,0,0-1.662,0,2.012,2.012,0,0,0-.7.356,1.724,1.724,0,0,0-.485.629,2.193,2.193,0,0,0-.18.931,2.088,2.088,0,0,0,.151.805,1.762,1.762,0,0,0,.434.625,1.959,1.959,0,0,0,.692.4A2.772,2.772,0,0,0,102.678,1819.232Zm-.226-4.89a5.283,5.283,0,0,0,1.106-.33,1.579,1.579,0,0,0,.924-1.018,2.423,2.423,0,0,0,.1-.7,1.951,1.951,0,0,0-.121-.692,1.6,1.6,0,0,0-.361-.566,1.663,1.663,0,0,0-.6-.383,2.522,2.522,0,0,0-1.655,0,1.679,1.679,0,0,0-.6.383,1.614,1.614,0,0,0-.36.566,1.952,1.952,0,0,0-.121.692,2.373,2.373,0,0,0,.1.7,1.171,1.171,0,0,0,.211.435l-1.326.049a2.351,2.351,0,0,1-.267-1.2,2.6,2.6,0,0,1,.875-1.971,3.037,3.037,0,0,1,1-.588,4.089,4.089,0,0,1,2.607,0,3.043,3.043,0,0,1,1.008.588,2.609,2.609,0,0,1,.875,1.971,2.518,2.518,0,0,1-.423,1.468,2.545,2.545,0,0,1-1.254.924,2.891,2.891,0,0,1,1.515.934,2.573,2.573,0,0,1,.531,1.677,2.884,2.884,0,0,1-.262,1.247,2.718,2.718,0,0,1-.729.945,3.281,3.281,0,0,1-1.121.6,5.072,5.072,0,0,1-2.883,0,3.333,3.333,0,0,1-1.125-.6,2.66,2.66,0,0,1-.729-.945,2.927,2.927,0,0,1-.257-1.247,2.581,2.581,0,0,1,.529-1.677,2.9,2.9,0,0,1,1.516-.934" transform="translate(70.15 -1809.501)" fill="#1e2a3b"/>
      <path id="Trazado_125469" data-name="Trazado 125469" d="M144.374,1815.76a1.665,1.665,0,0,1-.811-.124,2.706,2.706,0,0,1-.938-.585,2.8,2.8,0,0,1-.644-.949,3.49,3.49,0,0,1,.018-2.585,3.186,3.186,0,0,1,.721-1.052,3.368,3.368,0,0,1,1.1-.706,3.713,3.713,0,0,1,1.4-.258,3.626,3.626,0,0,1,1.376.25,3.016,3.016,0,0,1,1.739,1.772,3.848,3.848,0,0,1,.239,1.383,4.229,4.229,0,0,1-.085.864,4.718,4.718,0,0,1-.242.8,5.761,5.761,0,0,1-.386.78q-.229.386-.515.791l-2.567,3.707a.674.674,0,0,1-.272.225.928.928,0,0,1-.4.084H142.9l3.207-4.2c.108-.142.208-.277.3-.4s.146-.334.229-.462l.523-1.253a4.075,4.075,0,0,0,.16-1.087,2.41,2.41,0,0,0-.158-.894,1.983,1.983,0,0,0-.437-.681,1.934,1.934,0,0,0-.666-.43,2.319,2.319,0,0,0-.85-.151,2.355,2.355,0,0,0-.882.158,2.079,2.079,0,0,0-.684.437,1.907,1.907,0,0,0-.441.67,2.3,2.3,0,0,0-.154.853,2.6,2.6,0,0,0,.143.894,1.831,1.831,0,0,0,.413.666,1.712,1.712,0,0,0,.655.411,1.922,1.922,0,0,0,.632.144,2.028,2.028,0,0,0,.643-.057A1.328,1.328,0,0,1,144.374,1815.76Z" transform="translate(48.718 -1809.501)" fill="#1e2a3b"/>
    </g>
    <g id="Grupo_56415" data-name="Grupo 56415" transform="translate(-577.127 1439.026)">
      <path id="Trazado_125470" data-name="Trazado 125470" d="M-539.433,1742.462v5.183h-.581a.569.569,0,0,1-.295-.063.425.425,0,0,1-.162-.246l-.147-.706a7.163,7.163,0,0,1-.574.481,3.205,3.205,0,0,1-.589.353,3.16,3.16,0,0,1-.658.221,3.556,3.556,0,0,1-.776.078,2.678,2.678,0,0,1-.817-.122,1.882,1.882,0,0,1-.666-.363,1.712,1.712,0,0,1-.449-.615,2.145,2.145,0,0,1-.166-.879,1.64,1.64,0,0,1,.243-.849,2.12,2.12,0,0,1,.787-.725,5.158,5.158,0,0,1,1.42-.519,10.92,10.92,0,0,1,2.148-.232A1.4,1.4,0,0,1-539.433,1742.462Zm-1.655-.9a1.353,1.353,0,0,0-1.1-.445,2.358,2.358,0,0,0-.813.121,3.112,3.112,0,0,0-.566.272q-.239.151-.412.273a.593.593,0,0,1-.342.121.38.38,0,0,1-.228-.07.634.634,0,0,1-.162-.173l-.235-.419a4.24,4.24,0,0,1,1.331-.889,4.088,4.088,0,0,1,1.582-.295,2.828,2.828,0,0,1,1.111.205,2.287,2.287,0,0,1,.817.575m-.61,3.449a11.14,11.14,0,0,0-1.542.144,4.407,4.407,0,0,0-1.037.3,1.444,1.444,0,0,0-.581.434.935.935,0,0,0-.181.559,1.229,1.229,0,0,0,.1.508.939.939,0,0,0,.261.349,1.046,1.046,0,0,0,.389.2,1.833,1.833,0,0,0,.482.063,2.691,2.691,0,0,0,.633-.07,2.433,2.433,0,0,0,.541-.2,2.992,2.992,0,0,0,.485-.316,4.171,4.171,0,0,0,.453-.419Z" transform="translate(545.31 -1736.81)" fill="#1e2a3b"/>
      <path id="Trazado_125471" data-name="Trazado 125471" d="M-502.8,1738.957v3.6a2.105,2.105,0,0,0,.791.684,2.222,2.222,0,0,0,.945.2,1.892,1.892,0,0,0,1.611-.743,3.65,3.65,0,0,0,.559-2.214,3.3,3.3,0,0,0-.5-2.012,1.6,1.6,0,0,0-1.852-.518,1.751,1.751,0,0,1,2.051-.919,1.952,1.952,0,0,1,.894.724,3.384,3.384,0,0,1,.563,1.151,5.508,5.508,0,0,1,.195,1.522,5.791,5.791,0,0,1-.221,1.648,3.746,3.746,0,0,1-.636,1.27,2.89,2.89,0,0,1-1.012.816,3.012,3.012,0,0,1-1.339.29,2.549,2.549,0,0,1-1.239-.275,2.721,2.721,0,0,1-.879-.784l-.066.677a.315.315,0,0,1-.338.279h-.846v-10.835h1.317v5.436Z" transform="translate(524.596 -1733.521)" fill="#1e2a3b"/>
      <path id="Trazado_125472" data-name="Trazado 125472" d="M-457.454,1741.532a.591.591,0,0,1-.117.125.265.265,0,0,1-.162.044.437.437,0,0,1-.243-.093c-.088-.06-.2-.128-.327-.2a2.675,2.675,0,0,0-.478-.2,2.265,2.265,0,0,0-.7-.092,2.292,2.292,0,0,0-.971.195,1.879,1.879,0,0,0-.7.564,2.54,2.54,0,0,0-.427.89,4.417,4.417,0,0,0-.144,1.17,4.3,4.3,0,0,0,.155,1.2,2.572,2.572,0,0,0,.437.882,1.876,1.876,0,0,0,.685.544,2.1,2.1,0,0,0,.9.188,2.316,2.316,0,0,0,.787-.114,2.293,2.293,0,0,0,.511-.254q.2-.14.339-.255a.419.419,0,0,1,.268-.114.288.288,0,0,1,.25.125l.368.478a2.623,2.623,0,0,1-.551.516,3.422,3.422,0,0,1-.666.357,3.635,3.635,0,0,1-.747.209,4.712,4.712,0,0,1-.794.066,3.239,3.239,0,0,1-1.3-.257,2.959,2.959,0,0,1-1.041-.746,3.5,3.5,0,0,1-.691-1.2,4.907,4.907,0,0,1-.251-1.625,4.894,4.894,0,0,1,.232-1.537,3.494,3.494,0,0,1,.677-1.218,3.077,3.077,0,0,1,1.1-.8,3.669,3.669,0,0,1,1.5-.287,3.544,3.544,0,0,1,1.386.253,3.338,3.338,0,0,1,1.063.717Z" transform="translate(503.945 -1736.825)" fill="#1e2a3b"/>
      <path id="Trazado_125473" data-name="Trazado 125473" d="M-417,1741v3.352h-.78a.334.334,0,0,1-.353-.272l-.117-.905a4.052,4.052,0,0,1-1.089.926,2.762,2.762,0,0,1-1.412.353,2.694,2.694,0,0,1-1.163-.246,2.406,2.406,0,0,1-.89-.724,3.439,3.439,0,0,1-.566-1.192,6.117,6.117,0,0,1-.2-1.641,5.142,5.142,0,0,1,.221-1.534,3.8,3.8,0,0,1,.633-1.232,2.937,2.937,0,0,1,1.011-.82,3,3,0,0,1,1.35-.3,2.707,2.707,0,0,1,1.173.232,2.82,2.82,0,0,1,.872.643v-4.126H-417v6.233l-1.309.014v-1.091a2.119,2.119,0,0,0-.794-.687,2.283,2.283,0,0,0-.956-.2,1.881,1.881,0,0,0-1.6.743,3.473,3.473,0,0,0-.559,2.118,5.4,5.4,0,0,0,.125,1.247,2.4,2.4,0,0,0,.368.854,1.462,1.462,0,0,0,.6.489,1.986,1.986,0,0,0,.8.154,2.119,2.119,0,0,0,1.129-.294,3.233,3.233,0,0,0,.886-.832S-417.724,1741-417,1741Z" transform="translate(484.083 -1733.521)" fill="#1e2a3b"/>
      <path id="Trazado_125474" data-name="Trazado 125474" d="M-378.523,1743.12h2.235a2.587,2.587,0,0,0-.129-.834,1.877,1.877,0,0,0-.375-.655,1.672,1.672,0,0,0-.6-.427,2.031,2.031,0,0,0-.8-.151,2.012,2.012,0,0,0-1.489.548,2.568,2.568,0,0,0-.68,1.519l-.044.817a4.362,4.362,0,0,0,.195,1.229,2.465,2.465,0,0,0,.482.871,1.936,1.936,0,0,0,.736.522,2.511,2.511,0,0,0,.956.174,2.827,2.827,0,0,0,.85-.114,4.075,4.075,0,0,0,.614-.246,4.619,4.619,0,0,0,.43-.247.567.567,0,0,1,.3-.114.29.29,0,0,1,.251.125l.368.478a2.484,2.484,0,0,1-.581.511,3.617,3.617,0,0,1-.725.358,4.561,4.561,0,0,1-.8.209,4.8,4.8,0,0,1-.816.07,3.8,3.8,0,0,1-1.423-.26,3.118,3.118,0,0,1-1.125-.766,3.5,3.5,0,0,1-.739-1.247,5.066,5.066,0,0,1-.265-1.707,4.342,4.342,0,0,1,.239-1.457,3.421,3.421,0,0,1,.687-1.172,3.162,3.162,0,0,1,1.1-.78,3.6,3.6,0,0,1,1.456-.283,3.35,3.35,0,0,1,1.239.225,2.806,2.806,0,0,1,.986.648,2.965,2.965,0,0,1,.651,1.043,3.978,3.978,0,0,1,.236,1.416.852.852,0,0,1-.067.412.275.275,0,0,1-.25.1h-3.967S-379.085,1743.12-378.523,1743.12Z" transform="translate(463.03 -1736.825)" fill="#1e2a3b"/>
      <path id="Trazado_125475" data-name="Trazado 125475" d="M-340.1,1744.5v-6.333l-.824-.1a.66.66,0,0,1-.254-.114.267.267,0,0,1-.1-.225v-.536h1.177v-.72a3.323,3.323,0,0,1,.18-1.137,2.31,2.31,0,0,1,.514-.839,2.173,2.173,0,0,1,.806-.518,2.985,2.985,0,0,1,1.059-.177,2.775,2.775,0,0,1,.92.147l-.029.655a.189.189,0,0,1-.195.191c-.12.01-.281.015-.482.015a1.992,1.992,0,0,0-.614.088,1.155,1.155,0,0,0-.474.286,1.3,1.3,0,0,0-.305.522,2.6,2.6,0,0,0-.106.8v.684h2.147v.949h-2.1v6.355Z" transform="translate(442.699 -1733.662)" fill="#1e2a3b"/>
      <path id="Trazado_125476" data-name="Trazado 125476" d="M-300.682,1740.5h1.66v.485c0,.161-.1.265-.309.309l-2,.11A.878.878,0,0,1-300.682,1740.5Zm-2.033.521a1.665,1.665,0,0,0-1.21.405,1.45,1.45,0,0,0-.416,1.089,1.655,1.655,0,0,0,.107.607,1.294,1.294,0,0,0,.312.474,1.413,1.413,0,0,0,.508.309,2.029,2.029,0,0,0,.7.111,2.029,2.029,0,0,0,.7-.111,1.418,1.418,0,0,0,.508-.309,1.262,1.262,0,0,0,.309-.474,1.72,1.72,0,0,0,.1-.607l1.169-.037a2.3,2.3,0,0,1-.209.989,2.28,2.28,0,0,1-.578.762,2.577,2.577,0,0,1-.883.485,3.557,3.557,0,0,1-1.118.17,3.79,3.79,0,0,1-.986-.125,1.319,1.319,0,0,0-.36.312.554.554,0,0,0-.125.336.442.442,0,0,0,.217.4,1.528,1.528,0,0,0,.57.195,6.089,6.089,0,0,0,.806.074q.452.015.927.047a8.553,8.553,0,0,1,.927.115,2.744,2.744,0,0,1,.805.265,1.511,1.511,0,0,1,.57.507,1.481,1.481,0,0,1,.217.839,1.954,1.954,0,0,1-.239.927,2.517,2.517,0,0,1-.687.8,3.538,3.538,0,0,1-1.1.559,4.78,4.78,0,0,1-1.467.21,5.6,5.6,0,0,1-1.427-.162,3.4,3.4,0,0,1-1.015-.434,1.89,1.89,0,0,1-.607-.629,1.5,1.5,0,0,1-.2-.747,1.341,1.341,0,0,1,.345-.934,2.391,2.391,0,0,1,.949-.611,1.354,1.354,0,0,1-.526-.393,1.048,1.048,0,0,1-.195-.666,1.037,1.037,0,0,1,.059-.335,1.339,1.339,0,0,1,.18-.345,1.853,1.853,0,0,1,.3-.328,1.9,1.9,0,0,1,.412-.272,2.287,2.287,0,0,1-.86-.821,2.25,2.25,0,0,1-.309-1.187,2.285,2.285,0,0,1,.21-.989,2.193,2.193,0,0,1,.584-.759,2.686,2.686,0,0,1,.894-.481,3.648,3.648,0,0,1,1.136-.169,6.811,6.811,0,0,1,.9.106C-301.811,1740.6-302.716,1741.017-302.716,1741.017Zm1.2.405,1.158,6.634a.628.628,0,0,0-.155-.441,1.029,1.029,0,0,0-.416-.265,2.649,2.649,0,0,0-.607-.135q-.345-.042-.732-.063l-.783-.044q-.4-.023-.765-.074a2.061,2.061,0,0,0-.673.481.988.988,0,0,0-.261.68.9.9,0,0,0,.129.468,1.1,1.1,0,0,0,.393.375,2.29,2.29,0,0,0,.666.25,4.243,4.243,0,0,0,.945.091,4.3,4.3,0,0,0,.949-.1,2.357,2.357,0,0,0,.709-.272,1.337,1.337,0,0,0,.445-.418A.983.983,0,0,0-300.354,1748.056Z" transform="translate(424.905 -1736.818)" fill="#1e2a3b"/>
      <path id="Trazado_125477" data-name="Trazado 125477" d="M-260.288,1736.786a3.331,3.331,0,0,1,1.078.2,2.087,2.087,0,0,1,.78.574,2.551,2.551,0,0,1,.475.894,3.916,3.916,0,0,1,.161,1.155v4.744h-1.317v-4.744a2.007,2.007,0,0,0-.386-1.313,1.435,1.435,0,0,0-1.173-.467,3.3,3.3,0,0,0-.915.194C-261.585,1737.283-260.536,1736.786-260.288,1736.786Zm-2.4,2.082v5.487H-264v-10.835h1.317v4.376" transform="translate(403.839 -1733.521)" fill="#1e2a3b"/>
      <path id="Trazado_125478" data-name="Trazado 125478" d="M-220.7,1734.669a.834.834,0,0,1-.077.357,1.041,1.041,0,0,1-.206.295.959.959,0,0,1-.3.2.92.92,0,0,1-.364.074.864.864,0,0,1-.356-.074.941.941,0,0,1-.291-.2,1.017,1.017,0,0,1-.2-.295.87.87,0,0,1-.073-.357.921.921,0,0,1,.073-.363.972.972,0,0,1,.2-.3.911.911,0,0,1,.291-.2.865.865,0,0,1,.356-.073.922.922,0,0,1,.364.073.928.928,0,0,1,.3.2.992.992,0,0,1,.206.3A.883.883,0,0,1-220.7,1734.669Zm-.279,2.339v7.451h-1.309v-7.451Z" transform="translate(383.001 -1733.625)" fill="#1e2a3b"/>
      <path id="Trazado_125479" data-name="Trazado 125479" d="M-189.914,1737.008v8a2.847,2.847,0,0,1-.118.834,1.761,1.761,0,0,1-.375.673,1.794,1.794,0,0,1-.658.453,2.531,2.531,0,0,1-.96.165,2.415,2.415,0,0,1-.434-.037,2.435,2.435,0,0,1-.4-.11l.052-.706a.2.2,0,0,1,.048-.1.148.148,0,0,1,.091-.041.961.961,0,0,1,.151,0c.061,0,.138,0,.231,0a1.063,1.063,0,0,0,.817-.268,1.27,1.27,0,0,0,.243-.864v-8Zm.272-2.339a.827.827,0,0,1-.078.357,1.02,1.02,0,0,1-.206.295.967.967,0,0,1-.3.2.894.894,0,0,1-.36.074.864.864,0,0,1-.356-.074.949.949,0,0,1-.291-.2,1.016,1.016,0,0,1-.2-.295.87.87,0,0,1-.074-.357.921.921,0,0,1,.074-.363.971.971,0,0,1,.2-.3.918.918,0,0,1,.291-.2.865.865,0,0,1,.356-.073.9.9,0,0,1,.36.073.935.935,0,0,1,.3.2.974.974,0,0,1,.206.3A.875.875,0,0,1-189.642,1734.669Z" transform="translate(368.059 -1733.625)" fill="#1e2a3b"/>
      <path id="Trazado_125480" data-name="Trazado 125480" d="M-154.514,1740.051a1.736,1.736,0,0,1,.47.366,1.863,1.863,0,0,1,.2.26l2.913,3.678h-1.17a.688.688,0,0,1-.29-.056.483.483,0,0,1-.21-.2l-2.449-3.053a.588.588,0,0,0-.217-.2.854.854,0,0,0-.328-.047h-.375v3.56h-1.317v-10.835h1.317v6.377h.338c.1,0,.424.022.7.055A1.181,1.181,0,0,1-154.514,1740.051Zm.1-1.171,1.6-1.711a.885.885,0,0,1,.217-.195.584.584,0,0,1,.305-.07h1.184l-2.306,2.454" transform="translate(350.169 -1733.521)" fill="#1e2a3b"/>
      <path id="Trazado_125481" data-name="Trazado 125481" d="M-115.518,1733.521v10.835h-1.309v-10.835Z" transform="translate(329.823 -1733.521)" fill="#1e2a3b"/>
      <path id="Trazado_125482" data-name="Trazado 125482" d="M-82.483,1740.393a1.675,1.675,0,0,1,1.231-.3,1.754,1.754,0,0,1,1.218.42,2.362,2.362,0,0,1,.673,1.133,2.446,2.446,0,0,1,.416-.7,2.352,2.352,0,0,1,.57-.486,2.363,2.363,0,0,1,.673-.28,3.012,3.012,0,0,1,.724-.089,2.75,2.75,0,0,1,1.048.188,2.079,2.079,0,0,1,.78.548,2.439,2.439,0,0,1,.489.887,3.919,3.919,0,0,1,.169,1.2v4.744h-1.316v-4.744a2.009,2.009,0,0,0-.383-1.328,1.363,1.363,0,0,0-1.1-.452,1.663,1.663,0,0,0-.614.114,1.478,1.478,0,0,0-.511.335,1.573,1.573,0,0,0-.349.555,2.16,2.16,0,0,0-.129.777v4.744h-1.317v-4.744a2.092,2.092,0,0,0-.36-1.339,1.28,1.28,0,0,0-1.052-.441m-1.655.97v5.554H-84.6v-7.451C-83.664,1740.208-83.282,1742.105-83.282,1742.105Z" transform="translate(313.615 -1736.825)" fill="#1e2a3b"/>
      <path id="Trazado_125483" data-name="Trazado 125483" d="M-33.607,1742.172v5.487h-1.317v-7.451C-33.933,1740.208-33.607,1742.172-33.607,1742.172Zm1.011-1.755a2.917,2.917,0,0,1,.647-.243,3.085,3.085,0,0,1,.739-.085,2.689,2.689,0,0,1,1.077.2,2.083,2.083,0,0,1,.78.574,2.559,2.559,0,0,1,.475.894,3.9,3.9,0,0,1,.161,1.155v4.744h-1.317v-4.744a2.006,2.006,0,0,0-.386-1.313,1.434,1.434,0,0,0-1.173-.467" transform="translate(288.633 -1736.825)" fill="#1e2a3b"/>
      <path id="Trazado_125484" data-name="Trazado 125484" d="M10.44,1746.894a1.711,1.711,0,0,0,.849-.618,4.207,4.207,0,0,0,0-4.138,1.713,1.713,0,0,0-.83-.615l.653-.886a3.145,3.145,0,0,1,1.117.773,3.384,3.384,0,0,1,.71,1.21,5.231,5.231,0,0,1,0,3.174,3.387,3.387,0,0,1-.71,1.207,3.12,3.12,0,0,1-1.117.769Zm-2.281.875A3.11,3.11,0,0,1,7.037,1747a3.387,3.387,0,0,1-.71-1.207,5.241,5.241,0,0,1,0-3.174,3.384,3.384,0,0,1,.71-1.21,3.135,3.135,0,0,1,1.121-.773l.507.949a1.8,1.8,0,0,0-.69.552,2.439,2.439,0,0,0-.413.886,4.772,4.772,0,0,0-.136,1.188,3.406,3.406,0,0,0,.548,2.064,1.714,1.714,0,0,0,.69.554Z" transform="translate(268.011 -1737.1)" fill="#1e2a3b"/>
      <path id="Trazado_125485" data-name="Trazado 125485" d="M50.354,1742.223v3.6a2.116,2.116,0,0,0,.786.685,2.239,2.239,0,0,0,.957.2,1.885,1.885,0,0,0,1.6-.743,3.471,3.471,0,0,0,.559-2.118,5.284,5.284,0,0,0-.129-1.251,2.434,2.434,0,0,0-.371-.857,1.444,1.444,0,0,0-.6-.489,1.976,1.976,0,0,0-.8-.155l-.036-1.059a2.9,2.9,0,0,1,1.633.247,2.393,2.393,0,0,1,.89.728,3.489,3.489,0,0,1,.567,1.195,6.149,6.149,0,0,1,.2,1.641,5.149,5.149,0,0,1-.221,1.533,3.7,3.7,0,0,1-.636,1.229,2.942,2.942,0,0,1-2.365,1.114,2.724,2.724,0,0,1-1.173-.231,2.752,2.752,0,0,1-.864-.644v3.3H49.036v-9.974C50.094,1740.17,50.354,1742.223,50.354,1742.223Z" transform="translate(246.409 -1736.787)" fill="#1e2a3b"/>
      <path id="Trazado_125486" data-name="Trazado 125486" d="M96.714,1740.193v9.975H95.405v-3.634a3.845,3.845,0,0,1-1.067.878,2.774,2.774,0,0,1-1.375.334,2.691,2.691,0,0,1-1.163-.246,2.4,2.4,0,0,1-.89-.724,3.432,3.432,0,0,1-.567-1.192,6.137,6.137,0,0,1-.2-1.641,5.139,5.139,0,0,1,.221-1.534,3.8,3.8,0,0,1,.633-1.232,2.941,2.941,0,0,1,1.012-.82,4.534,4.534,0,0,1,1.669-.3l-.025,1.022a1.88,1.88,0,0,0-1.6.743,3.469,3.469,0,0,0-.559,2.118,5.367,5.367,0,0,0,.125,1.247,2.378,2.378,0,0,0,.368.854,1.45,1.45,0,0,0,.6.489,1.986,1.986,0,0,0,.8.154,2.117,2.117,0,0,0,1.129-.294,3.235,3.235,0,0,0,.887-.832v-3.6S95.773,1740.193,96.714,1740.193Z" transform="translate(225.735 -1736.81)" fill="#1e2a3b"/>
      <path id="Trazado_125487" data-name="Trazado 125487" d="M134.976,1740.491a1.637,1.637,0,0,1,1.258-.43,1.975,1.975,0,0,1,.451.051,1.2,1.2,0,0,1,.387.162l-.1.978a.21.21,0,0,1-.221.183,1.489,1.489,0,0,1-.3-.044,2.123,2.123,0,0,0-.449-.044,1.786,1.786,0,0,0-.628.1,1.482,1.482,0,0,0-.494.3S134.619,1740.909,134.976,1740.491Zm-.794,2.446v4.708h-1.317v-7.451C134.137,1740.193,134.182,1742.937,134.182,1742.937Z" transform="translate(204.251 -1736.81)" fill="#1e2a3b"/>
      <path id="Trazado_125488" data-name="Trazado 125488" d="M172.138,1741.437a.292.292,0,0,1-.272.162.519.519,0,0,1-.25-.081c-.093-.055-.207-.114-.342-.181a3.243,3.243,0,0,0-.482-.183,2.294,2.294,0,0,0-.662-.086,1.946,1.946,0,0,0-.6.086,1.4,1.4,0,0,0-.451.231,1.011,1.011,0,0,0-.287.342.907.907,0,0,0-.1.422.706.706,0,0,0,.166.478,1.456,1.456,0,0,0,.438.332,3.829,3.829,0,0,0,.618.246q.346.107.71.228c.243.081.48.17.709.269a2.58,2.58,0,0,1,.619.367,1.68,1.68,0,0,1,.437.541,1.646,1.646,0,0,1,.166.768,2.425,2.425,0,0,1-.184.953,2.06,2.06,0,0,1-.544.757,2.613,2.613,0,0,1-.882.5,3.613,3.613,0,0,1-1.207.184,3.756,3.756,0,0,1-1.412-.254,3.563,3.563,0,0,1-1.074-.65l.309-.5a.464.464,0,0,1,.141-.148.378.378,0,0,1,.205-.051.5.5,0,0,1,.28.1c.1.069.217.145.356.229a2.723,2.723,0,0,0,.511.228,2.358,2.358,0,0,0,.751.1,2.037,2.037,0,0,0,.669-.1,1.407,1.407,0,0,0,.478-.268,1.074,1.074,0,0,0,.283-.39,1.222,1.222,0,0,0,.091-.471.777.777,0,0,0-.166-.511,1.408,1.408,0,0,0-.437-.346,3.663,3.663,0,0,0-.622-.25q-.35-.107-.713-.224t-.714-.269a2.492,2.492,0,0,1-.621-.379,1.727,1.727,0,0,1-.438-.562,1.829,1.829,0,0,1-.166-.813,1.983,1.983,0,0,1,.176-.821,2.03,2.03,0,0,1,.516-.692,2.534,2.534,0,0,1,.831-.474,3.321,3.321,0,0,1,1.125-.176,3.546,3.546,0,0,1,1.32.232,3.12,3.12,0,0,1,1.012.636Z" transform="translate(186.956 -1736.825)" fill="#1e2a3b"/>
      <path id="Trazado_125489" data-name="Trazado 125489" d="M207.533,1739.767v3.68a.954.954,0,0,0,.228.7.8.8,0,0,0,.589.227,1.039,1.039,0,0,0,.356-.055,1.5,1.5,0,0,0,.262-.121c.073-.044.135-.084.188-.121a.243.243,0,0,1,.135-.055.226.226,0,0,1,.184.125l.382.625a2.434,2.434,0,0,1-.817.5,2.763,2.763,0,0,1-.985.18,1.794,1.794,0,0,1-1.358-.494,1.965,1.965,0,0,1-.474-1.419v-2.622S206.638,1739.767,207.533,1739.767Zm-1.309-.792h-.9a.294.294,0,0,1-.2-.07.271.271,0,0,1-.081-.218v-.523l1.221-.153.3-2.3a.32.32,0,0,1,.1-.179.287.287,0,0,1,.2-.07h.662v2.567h2.155v.949h-2.155" transform="translate(167.95 -1734.496)" fill="#1e2a3b"/>
      <path id="Trazado_125490" data-name="Trazado 125490" d="M247.184,1745.814v-5.487h1.31v7.451C247.456,1747.778,247.184,1745.814,247.184,1745.814Zm-2.015,2.082a4.975,4.975,0,0,1-1.46-.2,2.152,2.152,0,0,1-.784-.571,2.436,2.436,0,0,1-.474-.89,3.982,3.982,0,0,1-.158-1.156v-4.751H243.6v4.751a1.99,1.99,0,0,0,.386,1.31,1.452,1.452,0,0,0,1.181.464" transform="translate(149.219 -1736.944)" fill="#1e2a3b"/>
      <path id="Trazado_125491" data-name="Trazado 125491" d="M289.07,1740.327l-3.038,7.451h-1.177l-3.038-7.451h1.066a.413.413,0,0,1,.265.081.4.4,0,0,1,.139.19l1.891,4.8q.088.271.154.53t.125.514c.039-.172.081-.343.125-.514s.1-.349.162-.53l1.912-4.8a.434.434,0,0,1,.148-.195.39.39,0,0,1,.242-.077Z" transform="translate(129.342 -1736.944)" fill="#1e2a3b"/>
      <path id="Trazado_125492" data-name="Trazado 125492" d="M327.914,1745.381l-.953-2.922a3.01,3.01,0,0,1-.1-.341c-.024-.116-.049-.23-.074-.343-.025.113-.049.227-.074.343a3.248,3.248,0,0,1-.1.349l-1.677,5.046a.289.289,0,0,1-.294.251h-.985l-2.413-7.451h1.029a.418.418,0,0,1,.261.081.389.389,0,0,1,.143.19l1.428,4.8c.083.353.15.686.2,1,.044-.161.09-.325.137-.493s.1-.335.151-.506l1.574-4.826a.4.4,0,0,1,.128-.184.349.349,0,0,1,.225-.074h.574a.39.39,0,0,1,.244.074.384.384,0,0,1,.132.184l1.025,3.218Zm1.371,1q.037-.242.092-.488c.036-.165.077-.334.121-.511l1.456-4.8a.386.386,0,0,1,.14-.195.4.4,0,0,1,.243-.077h.985l-2.412,7.451C329.164,1747.763,329.285,1746.379,329.285,1746.379Z" transform="translate(109.509 -1736.928)" fill="#1e2a3b"/>
      <path id="Trazado_125493" data-name="Trazado 125493" d="M373.413,1743.935l2.653,3.844h-1.257a.364.364,0,0,1-.255-.084.835.835,0,0,1-.151-.188l-1.875-2.92c-.02.068-.041.136-.063.2a.7.7,0,0,1-.092.181l-1.736,2.538a1.431,1.431,0,0,1-.158.188.312.312,0,0,1-.231.084h-1.17l2.612-3.825-2.509-3.627h1.258a.422.422,0,0,1,.235.052.472.472,0,0,1,.132.147l2,2.6m.734-1.266.886-1.3a.661.661,0,0,1,.144-.166.287.287,0,0,1,.187-.063h1.206l-2.019,2.866C373.5,1743.193,373.54,1741.855,373.54,1741.855Z" transform="translate(85.457 -1736.944)" fill="#1e2a3b"/>
      <path id="Trazado_125494" data-name="Trazado 125494" d="M410.8,1745.837l-2.414-5.51h1.132a.4.4,0,0,1,.269.084.439.439,0,0,1,.136.188l1.561,3.676S411.376,1745.837,410.8,1745.837Zm1.225.192c.069-.231.231-.538.31-.744l1.934-4.686a.425.425,0,0,1,.151-.195.4.4,0,0,1,.239-.077h1.037l-4.156,9.651a.692.692,0,0,1-.166.236.452.452,0,0,1-.305.088h-.97l1.361-2.957" transform="translate(65.692 -1736.944)" fill="#1e2a3b"/>
      <path id="Trazado_125495" data-name="Trazado 125495" d="M453.39,1742.688l-3.059,4.068h4.075v1.022h-5.612v-.544a.7.7,0,0,1,.044-.225.844.844,0,0,1,.133-.247l3.082-4.1m.978-1.3h-4.009v-1.029h5.524C454.545,1741.094,453.031,1741.356,453.031,1741.356Z" transform="translate(45.368 -1736.944)" fill="#1e2a3b"/>
    </g>
    <g id="Grupo_56416" data-name="Grupo 56416" transform="translate(-537.492 1215.896)">
      <path id="Trazado_125496" data-name="Trazado 125496" d="M-415.957,1334.008l-11.9-30.84c-.354-.923-.723-1.985-1.11-3.2s-.76-2.509-1.115-3.889a57.507,57.507,0,0,1-2.273,7.144l-11.9,30.789-2.856,7.4-7.089,18.3a3.727,3.727,0,0,1-1.214,1.7,3.385,3.385,0,0,1-2.225.738h-7.934l30.313-75.806H-424.9l30.313,75.806h-7.933a3.422,3.422,0,0,1-2.225-.686,4.229,4.229,0,0,1-1.27-1.749l-7.088-18.3Z" transform="translate(465.575 -1285.501)" fill="#1e2a3b"/>
      <path id="Trazado_125497" data-name="Trazado 125497" d="M-196.287,1294.438V1320.3h13.542a26.562,26.562,0,0,0,7.538-.952,15.2,15.2,0,0,0,5.291-2.642,10.318,10.318,0,0,0,3.092-4.1,13.481,13.481,0,0,0,1.008-5.262q0-6.72-4.022-9.815t-12.483-3.092v-8.1a45.927,45.927,0,0,1,12.033,1.38,23.325,23.325,0,0,1,8.306,3.912,15.228,15.228,0,0,1,4.789,6.214,21.325,21.325,0,0,1,1.532,8.28,16.558,16.558,0,0,1-.871,5.372,16.069,16.069,0,0,1-2.62,4.782,18.739,18.739,0,0,1-4.417,4,24.147,24.147,0,0,1-6.269,2.878q8.358,1.594,12.564,5.955t4.206,11.446a21.294,21.294,0,0,1-1.771,8.782,18.835,18.835,0,0,1-5.184,6.827,24.2,24.2,0,0,1-8.387,4.421,37.77,37.77,0,0,1-11.317,1.557H-206.5v-75.806C-198.175,1286.342-196.287,1294.438-196.287,1294.438Zm16.4,59.563a25.176,25.176,0,0,0,7.568-1,14.062,14.062,0,0,0,5.21-2.834,10.949,10.949,0,0,0,2.989-4.332,15.506,15.506,0,0,0,.952-5.528,11.341,11.341,0,0,0-4.181-9.284q-4.179-3.421-12.539-3.417h-16.4V1354Z" transform="translate(335.283 -1285.501)" fill="#26aab7"/>
      <path id="Trazado_125498" data-name="Trazado 125498" d="M75.127,1345.637a1.962,1.962,0,0,1,1.479.687l4.074,4.391a32.358,32.358,0,0,1-11.295,8.413,38.691,38.691,0,0,1-16.055,3.018,37.475,37.475,0,0,1-14.811-2.834,32.507,32.507,0,0,1-11.372-7.933,35.879,35.879,0,0,1-7.3-12.243,45.806,45.806,0,0,1-2.59-15.712,44.169,44.169,0,0,1,2.7-15.712,35.909,35.909,0,0,1,7.59-12.273,33.937,33.937,0,0,1,11.719-7.962,38.934,38.934,0,0,1,15.073-2.827,36.751,36.751,0,0,1,14.284,2.59,35.961,35.961,0,0,1,10.9,7.033l-3.384,4.708a2.757,2.757,0,0,1-.819.871,2.307,2.307,0,0,1-1.351.347,4.221,4.221,0,0,1-2.328-1.033,35.5,35.5,0,0,0-3.6-2.3,26.851,26.851,0,0,0-13.753-3.328,27.535,27.535,0,0,0-10.738,2.037,23.377,23.377,0,0,0-8.383,5.9,27.154,27.154,0,0,0-5.476,9.416,37.555,37.555,0,0,0-1.959,12.538,36.588,36.588,0,0,0,2.037,12.642,27.843,27.843,0,0,0,5.557,9.387,23.348,23.348,0,0,0,8.3,5.845,26.4,26.4,0,0,0,10.343,2.015,42.5,42.5,0,0,0,6.11-.4,24.813,24.813,0,0,0,5.026-1.247,20.913,20.913,0,0,0,4.284-2.14,30.923,30.923,0,0,0,3.941-3.092A2.728,2.728,0,0,1,75.127,1345.637Z" transform="translate(222.757 -1284.65)" fill="#1e2a3b"/>
      <path id="Trazado_125499" data-name="Trazado 125499" d="M271.38,1353.845h18.036a29.35,29.35,0,0,0,11.111-2.015,23.1,23.1,0,0,0,8.464-5.793,26.029,26.029,0,0,0,5.395-9.284,41.875,41.875,0,0,0,0-24.966,26.421,26.421,0,0,0-5.395-9.314,23.067,23.067,0,0,0-8.464-5.815,29.352,29.352,0,0,0-11.111-2.007H271.38s-10.265-.353-10.265-8.31h28.3a41.257,41.257,0,0,1,15.262,2.723,33.8,33.8,0,0,1,11.822,7.727,34.746,34.746,0,0,1,7.62,11.978,45.893,45.893,0,0,1,0,31,34.379,34.379,0,0,1-7.62,11.956,33.938,33.938,0,0,1-11.822,7.7,41.252,41.252,0,0,1-15.262,2.723h-28.3C261.115,1353.87,271.38,1353.845,271.38,1353.845Z" transform="translate(100.117 -1285.501)" fill="#1e2a3b"/>
    </g>
  </g>
</svg>
