<svg xmlns="http://www.w3.org/2000/svg" xmlns:xlink="http://www.w3.org/1999/xlink" width="85" height="62" viewBox="0 0 85 62">
  <defs>
    <clipPath id="clip-path">
      <rect id="Rect치ngulo_401522" data-name="Rect치ngulo 401522" width="62" height="62" transform="translate(203 5571)" fill="#62529b" stroke="#62529b" stroke-width="1"/>
    </clipPath>
  </defs>
  <g id="Grupo_1099869" data-name="Grupo 1099869" transform="translate(-180 -5571)">
    <g id="Enmascarar_grupo_1098723" data-name="Enmascarar grupo 1098723" clip-path="url(#clip-path)">
      <g id="paleta-de-color" transform="translate(201.063 5569.063)">
        <g id="Grupo_1099873" data-name="Grupo 1099873">
          <path id="Trazado_874054" data-name="Trazado 874054" d="M46.57,55.453l-.009-.009c-.047.057-.1.1-.151.151C46.467,55.548,46.514,55.5,46.57,55.453Z" fill="#62529b"/>
          <path id="Trazado_874055" data-name="Trazado 874055" d="M60.7,3.386a6,6,0,0,0-8.439.622l-.17.208a.943.943,0,1,0,1.443,1.216l.16-.2a4.091,4.091,0,1,1,6.185,5.356l-3.262,3.875L50.429,9.118l1.235-1.471a.944.944,0,1,0-1.443-1.216L48.93,7.968a3.221,3.221,0,0,0-1.914-.443,3.32,3.32,0,0,0-2.291,5.488L43.48,14.455A26.568,26.568,0,0,0,6.689,23.988a.912.912,0,0,0,.424,1.037.989.989,0,0,0,1.32-.311A24.909,24.909,0,0,1,11.6,20.48l7.788,7.788.009.009a13.671,13.671,0,0,0-3.347,8.062H4.992a28.091,28.091,0,0,1,1.527-7.59.533.533,0,0,1,.028-.17A.949.949,0,0,0,6,27.363a.92.92,0,0,0-1.094.349,26.292,26.292,0,0,0-1.791,9.58A26.646,26.646,0,0,0,16.665,60.477a.927.927,0,0,0,1.131-.415.945.945,0,0,0-.273-1.263,20.771,20.771,0,0,1-4.6-3.357l7.8-7.8.019-.019A13.67,13.67,0,0,0,28.8,50.973v11.06a24.551,24.551,0,0,1-7.911-1.641,1.049,1.049,0,0,0-1.047.641.944.944,0,0,0,.4,1.131l.009.009a26.366,26.366,0,0,0,9.523,1.763A26.648,26.648,0,0,0,53.1,50.153a.93.93,0,0,0-.4-1.179.948.948,0,0,0-1.292.368c.047-.085.094-.17.132-.255A24.788,24.788,0,0,1,30.686,62.024V50.973a13.671,13.671,0,0,0,8.062-3.347l7.816,7.816c.462-.415.915-.867,1.339-1.329L40.1,46.306l-.009-.009a13.723,13.723,0,0,0,3.347-8.071H54.512a25.109,25.109,0,0,1-.764,5.3.942.942,0,0,0,1.8.547,26.428,26.428,0,0,0-3.7-21.611l1.622-1.867a3.312,3.312,0,0,0,1.763.509,2.14,2.14,0,0,0,.245-.009,3.336,3.336,0,0,0,2.461-5.28l3.366-4A5.992,5.992,0,0,0,60.7,3.386ZM30.686,12.55A24.629,24.629,0,0,1,42.226,15.9l-7.458,8.627a13.407,13.407,0,0,0-4.083-.915Zm2.527,20.423a3.858,3.858,0,0,1-.434-1.518,3.907,3.907,0,0,1,.943-2.838l6.732-7.788,3.979,7.336-4.809,5.563a3.88,3.88,0,0,1-4.243,1.122.957.957,0,0,0-1.028.273l-1.659,1.924a.845.845,0,0,1-1.179.085.862.862,0,0,1-.283-.566.851.851,0,0,1,.2-.6l1.659-1.923A.928.928,0,0,0,33.212,32.973ZM12.94,19.151A24.689,24.689,0,0,1,28.8,12.541V23.6a13.712,13.712,0,0,0-8.071,3.338ZM11.583,54.113A23.943,23.943,0,0,1,4.992,38.225h11.06A13.723,13.723,0,0,0,19.4,46.3Zm18.16-4.978a11.852,11.852,0,1,1,3.715-23.091L32.3,27.382a5.8,5.8,0,0,0-1.4,4.205,5.886,5.886,0,0,0,.377,1.669l-1.263,1.471a2.726,2.726,0,0,0,2.055,4.5c.066,0,.132-.009.2-.009a2.711,2.711,0,0,0,1.857-.933l1.273-1.462a5.763,5.763,0,0,0,5.657-1.857l.217-.255a11.064,11.064,0,0,1,.33,2.574A11.867,11.867,0,0,1,29.743,49.134ZM54.5,36.339H43.424A13.037,13.037,0,0,0,42.745,33l3.545-4.1,4.29-4.96A24.586,24.586,0,0,1,54.5,36.339Zm-8.75-9.7-3.979-7.326,4.337-5.026,5.9,5.11Zm10.589-7.92a1.437,1.437,0,0,1-2.046.141l-7.986-6.9a1.449,1.449,0,0,1-.151-2.046,1.428,1.428,0,0,1,1-.5.388.388,0,0,1,.1-.009,1.424,1.424,0,0,1,.952.358l7.986,6.9a1.459,1.459,0,0,1,.141,2.055Z" fill="#62529b"/>
        </g>
      </g>
    </g>
    <rect id="Rect치ngulo_401531" data-name="Rect치ngulo 401531" width="16" height="62" transform="translate(180 5571)" fill="#62529b"/>
  </g>
</svg>
