<svg id="Grupo_63513" data-name="Grupo 63513" xmlns="http://www.w3.org/2000/svg" width="216.008" height="116.103" viewBox="0 0 216.008 116.103">
  <g id="Grupo_63457" data-name="Grupo 63457" transform="translate(75.769 0)" opacity="0.29">
    <path id="Trazado_131938" data-name="Trazado 131938" d="M271.634,62.186H223.607V25.062h39.325l8.7,8.7Z" transform="translate(-214.137 -15.508)" fill="#c9c8c3" style="mix-blend-mode: multiply;isolation: isolate"/>
    <rect id="Rectángulo_31466" data-name="Rectángulo 31466" width="8.418" height="0.791" transform="translate(0 9.601)" fill="#c9c8c3"/>
    <rect id="Rectángulo_31467" data-name="Rectángulo 31467" width="0.791" height="8.418" transform="translate(9.338)" fill="#c9c8c3"/>
    <path id="Trazado_131939" data-name="Trazado 131939" d="M324.7,26.914V35.6h8.7" transform="translate(-276.691 -16.655)" fill="#fff"/>
  </g>
  <g id="Grupo_63479" data-name="Grupo 63479" transform="translate(15.701 7.732)">
    <g id="Grupo_63478" data-name="Grupo 63478">
      <g id="Grupo_63470" data-name="Grupo 63470">
        <path id="Trazado_131940" data-name="Trazado 131940" d="M58.567,159l41.1-1.815,12.523,54.83-64.1.348L41.556,181A18.33,18.33,0,0,1,58.567,159Z" transform="translate(-41.189 -104.996)" fill="#122832"/>
        <g id="Grupo_63459" data-name="Grupo 63459" transform="translate(5.815 26.092)">
          <rect id="Rectángulo_31468" data-name="Rectángulo 31468" width="2.256" height="7.889" transform="translate(12.147 20.033) rotate(-14.343)" fill="#122832"/>
          <rect id="Rectángulo_31469" data-name="Rectángulo 31469" width="2.256" height="7.889" transform="translate(29.4 20.033) rotate(-14.343)" fill="#122832"/>
          <g id="Grupo_63458" data-name="Grupo 63458">
            <path id="Trazado_131941" data-name="Trazado 131941" d="M64.327,109.734H98.189l-7.251-21H60.207a3.76,3.76,0,0,0-3.554,4.987l4.83,13.991A3.008,3.008,0,0,0,64.327,109.734Z" transform="translate(-56.444 -88.73)" fill="#122832"/>
          </g>
        </g>
        <g id="Grupo_63469" data-name="Grupo 63469" transform="translate(5.751)">
          <g id="Grupo_63468" data-name="Grupo 63468">
            <g id="Grupo_63467" data-name="Grupo 63467">
              <g id="Grupo_63460" data-name="Grupo 63460" transform="translate(31.84 42.786)">
                <path id="Trazado_131942" data-name="Trazado 131942" d="M254.446,185.437c5.505-3.653,15.324-9.919,15.324-9.919s17.356-11.262,17.034-12.226-6.18,1.558-6.18,1.558c.459-.891,5.808-4.077,5.6-4.654s-7.006,3.141-7.307,2.859,6.781-4.107,6.367-4.873-7.5,3.06-7.89,2.877,6.674-4.4,5.778-5.049-10.687,6.762-11.568,6.6,2.192-4.547,2.033-6.488-8.181,9.936-8.181,9.936c-1.842,1.6-16.344,7.83-16.344,7.83Z" transform="translate(-207.439 -146.99)" fill="#df9257"/>
                <path id="Trazado_131943" data-name="Trazado 131943" d="M306.438,171.82l-2.575,4.753s1.2-4.833.892-5.212Z" transform="translate(-241.322 -156.556)" fill="#b6613b"/>
                <path id="Trazado_131944" data-name="Trazado 131944" d="M172.962,160.565s-18.208-38.727-29.568-23.98c-12.215,15.856,9.728,30.279,20.915,42.1a8.225,8.225,0,0,0,11.215.676l26.38-17.673-4.468-9.134Z" transform="translate(-139.801 -132.963)" fill="#df9257"/>
                <path id="Trazado_131945" data-name="Trazado 131945" d="M153.352,167.713C158.22,162.2,164.9,154.9,170.2,149.819c-6.132-10.453-18.974-23.84-26.8-13.676C134.6,147.553,143.5,158.221,153.352,167.713Z" transform="translate(-139.801 -132.522)" fill="#7d6eb2"/>
              </g>
              <g id="Grupo_63461" data-name="Grupo 63461" transform="translate(7.563 36.344)">
                <path id="Trazado_131946" data-name="Trazado 131946" d="M76.132,137.248c-.626-9.771,16.121-17.661,16.121-17.661l6.233-3.966.372,1.04,10.4,9.718,1.724-4.5-.1-1.683,1.7,1.79c1.255.206,6.374,7.19,7.716,10.442,2.042,4.948,2.664,11.435,2.861,15.328,4.631,37.918,4.987,39.1,4.987,39.1H81.782S80.022,197.919,76.132,137.248Z" transform="translate(-76.115 -115.622)" fill="#7d6eb2"/>
                <path id="Trazado_131947" data-name="Trazado 131947" d="M85.845,135.652c.478-.316,30.588,63.6,30.588,63.6H79.113s-3.157-28-2.7-50.573C76.417,148.682,76.962,141.534,85.845,135.652Z" transform="translate(-76.274 -128.016)" fill="#5e5385"/>
              </g>
              <g id="Grupo_63464" data-name="Grupo 63464" transform="translate(28.307)">
                <g id="Grupo_63463" data-name="Grupo 63463">
                  <path id="Trazado_131948" data-name="Trazado 131948" d="M153.222,36.092a10.352,10.352,0,0,0,.584-4.644s7.394-2.522,5.628-6.749-10.452-1.867-10.452-1.867,3.289-5.044-3.175-.941c-2.569,1.631-3,2.031-4.993,1.143a5.426,5.426,0,0,0-6.085,1.924c-.571,1.036-.22,1.957-1,1.876-2.892-.3-4.245,2.716-2.259,9.117,0,0-1,3.263.947,8.353.7,1.838,3.1,2.455,3.1,2.455" transform="translate(-130.531 -20.282)" fill="#0e162e"/>
                  <path id="Trazado_131949" data-name="Trazado 131949" d="M155.713,50.269s2.193,14.832-2.324,20.551c-2.318,2.245-5.053,1.26-6.809,1.193-.068-.634.276,5.151.584,10.337,0,.013,0,.026,0,.039-.092.893-1.29,1.176-2.7,1.1a8.438,8.438,0,0,1-5.653-2.731l-4.289-4.605,2.392-10.78a18.063,18.063,0,0,0,.38-3.214c-1.742-.219-2.952-2.879-2.226-4.608.693-1.649,3.393-1.757,3.814-.2.427,1.579,1.749,1.536,1.914.227.095-.754-.476-6.949,3.99-7.681,2.681.188,3.3,2.046,4.665,2.121s2.626-2.8,3.3-2.026C154.864,52.437,155.713,50.269,155.713,50.269Z" transform="translate(-132.997 -38.581)" fill="#df9257"/>
                  <path id="Trazado_131950" data-name="Trazado 131950" d="M138.026,71.625c.932-3.143,3-.562,3-.562Z" transform="translate(-135.169 -51.088)" fill="#b6613b"/>
                  <path id="Trazado_131951" data-name="Trazado 131951" d="M163.2,107.652l-2.7-.239,2.147,5.506Z" transform="translate(-149.079 -74.199)" fill="#b6613b"/>
                  <g id="Grupo_63462" data-name="Grupo 63462" transform="translate(15.947 16.956)">
                    <path id="Trazado_131952" data-name="Trazado 131952" d="M183.294,78.325a22,22,0,0,1,1.068,3.149c-.48-.039-1.465.016-1.465.016Z" transform="translate(-178.882 -73.155)" fill="#b6613b"/>
                    <ellipse id="Elipse_4201" data-name="Elipse 4201" cx="0.852" cy="0.411" rx="0.852" ry="0.411" transform="translate(5.507 5.684) rotate(-88.584)" fill="#0e162e"/>
                    <path id="Trazado_131953" data-name="Trazado 131953" d="M178.723,75.582c-.012.47.163.857.39.862s.421-.371.433-.842-.163-.856-.39-.862S178.735,75.111,178.723,75.582Z" transform="translate(-176.299 -70.936)" fill="#0e162e"/>
                    <path id="Trazado_131954" data-name="Trazado 131954" d="M172.658,66.4c-.544.054-.582-1.867,2.168-1.617.778.071,1.438.836,1.073,1.419C175.661,66.585,174.627,66.207,172.658,66.4Z" transform="translate(-172.366 -64.762)" fill="#0e162e"/>
                    <path id="Trazado_131955" data-name="Trazado 131955" d="M188.687,66.853c.517.178,1.31-1.271-.225-1.8a.976.976,0,0,0-1.26,1.362C187.4,66.767,187.872,66.573,188.687,66.853Z" transform="translate(-181.474 -64.892)" fill="#0e162e"/>
                    <path id="Trazado_131956" data-name="Trazado 131956" d="M181.275,89.2l-3.692-.294a2.445,2.445,0,0,0,2.007,1.9C180.892,90.915,181.275,89.2,181.275,89.2Z" transform="translate(-175.594 -79.703)" fill="#fff"/>
                  </g>
                </g>
              </g>
              <path id="Trazado_131957" data-name="Trazado 131957" d="M125.4,269.465c6.565-.748,18.349-2.117,18.349-2.117s23.6.494,23.756-.51-14.325-8.67-14.325-8.67c-2.37.589-27.276-1.42-27.276-1.42Z" transform="translate(-99.052 -166.607)" fill="#df9257"/>
              <g id="Grupo_63465" data-name="Grupo 63465" transform="translate(0 40.794)">
                <path id="Trazado_131958" data-name="Trazado 131958" d="M80.311,142.816c.159-3.225,4.608-14.136-1.672-15.452-6.621-1.387-26.2,18.665-21.7,52.144,1.02,7.6,5.413,13.867,18.584,11.46l24.894-3.669-.754-9.55L75.536,172.22S79.839,152.392,80.311,142.816Z" transform="translate(-56.275 -127.297)" fill="#df9257"/>
              </g>
              <g id="Grupo_63466" data-name="Grupo 63466" transform="translate(0.161 40.805)">
                <path id="Trazado_131959" data-name="Trazado 131959" d="M82.835,164.2c1.005-9.55,1.758-16,2.01-21.111.159-3.225.335-14.388-5.944-15.7-4.816-1.009-17.928,11.436-22.2,30.028C63.809,160.008,75.62,161.889,82.835,164.2Z" transform="translate(-56.698 -127.324)" fill="#7d6eb2"/>
              </g>
            </g>
          </g>
        </g>
      </g>
      <g id="Grupo_63477" data-name="Grupo 63477" transform="translate(40.854 17.947)">
        <g id="Grupo_63476" data-name="Grupo 63476" transform="translate(7.444 0)">
          <g id="Grupo_63473" data-name="Grupo 63473">
            <g id="Grupo_63471" data-name="Grupo 63471" transform="translate(0.411 0.411)">
              <rect id="Rectángulo_31470" data-name="Rectángulo 31470" width="5.283" height="5.151" rx="2.576" transform="translate(0)" fill="#fff" opacity="0.33"/>
              <path id="Trazado_131960" data-name="Trazado 131960" d="M169.937,73.488c.276-.437.546-.879.8-1.333.684-1.226,1.315-2.5,2-3.716h-2.35a1.669,1.669,0,0,0-1.417,1.838v1.476A1.85,1.85,0,0,0,169.937,73.488Z" transform="translate(-168.966 -68.439)" fill="#fff" opacity="0.33"/>
            </g>
            <g id="Grupo_63472" data-name="Grupo 63472">
              <path id="Trazado_131961" data-name="Trazado 131961" d="M171.968,73.334h-2.055a2.027,2.027,0,0,1-2.025-2.025V69.386a2.027,2.027,0,0,1,2.025-2.025h2.055a2.027,2.027,0,0,1,2.025,2.025v1.923A2.027,2.027,0,0,1,171.968,73.334Zm-2.055-5.151a1.2,1.2,0,0,0-1.2,1.2v1.923a1.2,1.2,0,0,0,1.2,1.2h2.055a1.2,1.2,0,0,0,1.2-1.2V69.386a1.2,1.2,0,0,0-1.2-1.2Z" transform="translate(-167.888 -67.361)" fill="#0e162e"/>
            </g>
          </g>
          <g id="Grupo_63475" data-name="Grupo 63475" transform="translate(6.557 0.198)">
            <g id="Grupo_63474" data-name="Grupo 63474" transform="translate(0.316 0.316)">
              <rect id="Rectángulo_31471" data-name="Rectángulo 31471" width="3.549" height="4.974" rx="1.775" transform="translate(0 0)" fill="#fff" opacity="0.33"/>
              <path id="Trazado_131962" data-name="Trazado 131962" d="M186.348,73.388q1.208-2.291,2.41-4.586a.869.869,0,0,0-.38-.093h-1.37a1.283,1.283,0,0,0-1.089,1.413v2.149A1.578,1.578,0,0,0,186.348,73.388Z" transform="translate(-185.918 -68.709)" fill="#fff" opacity="0.33"/>
            </g>
            <path id="Trazado_131963" data-name="Trazado 131963" d="M187.714,73.487h-1.068a1.558,1.558,0,0,1-1.556-1.557V69.437a1.558,1.558,0,0,1,1.556-1.556h1.068a1.558,1.558,0,0,1,1.556,1.556V71.93A1.558,1.558,0,0,1,187.714,73.487Zm-1.068-4.974a.926.926,0,0,0-.925.925V71.93a.926.926,0,0,0,.925.925h1.068a.926.926,0,0,0,.925-.925V69.437a.926.926,0,0,0-.925-.925Z" transform="translate(-185.089 -67.881)" fill="#0e162e"/>
          </g>
          <rect id="Rectángulo_31472" data-name="Rectángulo 31472" width="1.078" height="0.822" transform="translate(5.694 3.038)" fill="#0e162e"/>
        </g>
        <rect id="Rectángulo_31473" data-name="Rectángulo 31473" width="0.822" height="7.799" transform="translate(0 2.056) rotate(-89.219)" fill="#0e162e"/>
      </g>
    </g>
  </g>
  <g id="Grupo_63485" data-name="Grupo 63485" transform="translate(0 74.574)">
    <g id="Grupo_63481" data-name="Grupo 63481" transform="translate(68.814)">
      <g id="Grupo_63480" data-name="Grupo 63480">
        <rect id="Rectángulo_31474" data-name="Rectángulo 31474" width="33.567" height="3.937" transform="translate(0 32.55)" fill="#999"/>
        <path id="Trazado_131964" data-name="Trazado 131964" d="M235.216,281.016q-2.531,1.916-4.982,3.937H244.85v-3.937Z" transform="translate(-211.282 -248.466)" fill="#666"/>
        <path id="Trazado_131965" data-name="Trazado 131965" d="M292.767,232.115H239.861l12.77-36.487h52.905Z" transform="translate(-217.24 -195.629)" fill="#999"/>
        <rect id="Rectángulo_31475" data-name="Rectángulo 31475" width="53.171" height="0.5" transform="translate(23.571 32.03)" fill="#fff"/>
        <path id="Trazado_131966" data-name="Trazado 131966" d="M323.385,240.784a3.322,3.322,0,1,0-3.321,3.322A3.321,3.321,0,0,0,323.385,240.784Z" transform="translate(-264.813 -221.516)" fill="#fff"/>
      </g>
    </g>
    <rect id="Rectángulo_31476" data-name="Rectángulo 31476" width="216.008" height="5.677" transform="translate(0 35.839)" fill="#12263f"/>
    <g id="Grupo_63484" data-name="Grupo 63484" transform="translate(16.616 5.22)">
      <g id="Grupo_63482" data-name="Grupo 63482" transform="translate(0 12.882)">
        <path id="Trazado_131967" data-name="Trazado 131967" d="M51.065,261.058h0a7.477,7.477,0,0,1-7.477-7.477V243.113H58.543v10.468A7.477,7.477,0,0,1,51.065,261.058Z" transform="translate(-43.588 -243.113)" fill="#ffb701"/>
        <path id="Trazado_131968" data-name="Trazado 131968" d="M49.363,264.961a15.556,15.556,0,0,1-5.775-8.724V261.7a7.477,7.477,0,0,0,7.477,7.477h0a7.44,7.44,0,0,0,5.071-1.994A11.067,11.067,0,0,1,49.363,264.961Z" transform="translate(-43.588 -251.234)" fill="#ffb701" style="mix-blend-mode: multiply;isolation: isolate"/>
        <path id="Trazado_131969" data-name="Trazado 131969" d="M74.144,259.331a6.149,6.149,0,1,1,6.149-6.149A6.156,6.156,0,0,1,74.144,259.331Zm0-11.3a5.15,5.15,0,1,0,5.15,5.15A5.156,5.156,0,0,0,74.144,248.032Z" transform="translate(-58.691 -245.539)" fill="#ffb701"/>
      </g>
      <g id="Grupo_63483" data-name="Grupo 63483" transform="translate(3.129)" opacity="0.61">
        <path id="Trazado_131970" data-name="Trazado 131970" d="M55.471,220.224a25.756,25.756,0,0,1-2.7-4.324,7.963,7.963,0,0,1-.975-3.22,3.391,3.391,0,0,1,1.351-2.951,3.3,3.3,0,0,1,4.35,1.229,6.029,6.029,0,0,1,.4,4.865,46.012,46.012,0,0,1-1.937,4.64" transform="translate(-51.797 -209.321)" fill="#fff"/>
        <path id="Trazado_131971" data-name="Trazado 131971" d="M68.68,236.152a3.242,3.242,0,0,1,1.125-1.45.986.986,0,1,1,.9,1.689,3.233,3.233,0,0,1-1.587.132" transform="translate(-62.244 -224.925)" fill="#fff"/>
      </g>
    </g>
  </g>
  <g id="Grupo_63509" data-name="Grupo 63509" transform="translate(21.933 0.163)">
    <g id="Grupo_63495" data-name="Grupo 63495" transform="translate(90.336 20.723)">
      <g id="Grupo_63494" data-name="Grupo 63494">
        <g id="Grupo_63487" data-name="Grupo 63487" transform="translate(9.894 18.28)">
          <g id="Grupo_63486" data-name="Grupo 63486">
            <path id="Trazado_131972" data-name="Trazado 131972" d="M339.927,118.5l-9.23-15.713a.11.11,0,0,0-.2.064v13.4a.106.106,0,0,0,.059.093.739.739,0,0,1,.2,1.133.126.126,0,0,1-.028.027.73.73,0,0,1-1.216-.533.711.711,0,0,1,.373-.626.114.114,0,0,0,.063-.1V102.853a.11.11,0,0,0-.2-.064l-9.262,15.39a.109.109,0,0,0,0,.124L325.06,128h10.326l4.544-9.37A.11.11,0,0,0,339.927,118.5Z" transform="translate(-320.466 -102.744)" fill="#122832"/>
          </g>
          <path id="Rectángulo_31477" data-name="Rectángulo 31477" d="M.308,0h9.878a.308.308,0,0,1,.308.308V2.954A1.558,1.558,0,0,1,8.936,4.512H1.558A1.558,1.558,0,0,1,0,2.954V.308A.308.308,0,0,1,.308,0Z" transform="translate(4.51 25.648)" fill="#122832"/>
        </g>
        <g id="Grupo_63493" data-name="Grupo 63493">
          <g id="Grupo_63490" data-name="Grupo 63490" transform="translate(4.42)">
            <g id="Grupo_63488" data-name="Grupo 63488" transform="translate(0.758 0.854)">
              <path id="Trazado_131973" data-name="Trazado 131973" d="M322.61,71.542A14.53,14.53,0,0,1,308.1,57.029h.571A13.959,13.959,0,0,0,322.61,70.972Z" transform="translate(-308.096 -57.029)" fill="#ffb701"/>
              <path id="Trazado_131974" data-name="Trazado 131974" d="M360.682,108.616h-.571a13.958,13.958,0,0,0-13.942-13.943V94.1A14.53,14.53,0,0,1,360.682,108.616Z" transform="translate(-331.656 -79.97)" fill="#ffb701"/>
            </g>
            <g id="Grupo_63489" data-name="Grupo 63489">
              <rect id="Rectángulo_31478" data-name="Rectángulo 31478" width="2.087" height="2.087" fill="#122832"/>
              <rect id="Rectángulo_31479" data-name="Rectángulo 31479" width="2.087" height="2.087" transform="translate(28.266 28.077)" fill="#122832"/>
            </g>
          </g>
          <g id="Grupo_63492" data-name="Grupo 63492" transform="translate(0 14.323)">
            <rect id="Rectángulo_31480" data-name="Rectángulo 31480" width="37.562" height="0.57" transform="translate(1.091 0.569)" fill="#ffb701"/>
            <g id="Grupo_63491" data-name="Grupo 63491">
              <rect id="Rectángulo_31481" data-name="Rectángulo 31481" width="2.087" height="2.087" transform="translate(18.544)" fill="#122832"/>
              <rect id="Rectángulo_31482" data-name="Rectángulo 31482" width="2.087" height="2.087" fill="#122832"/>
              <rect id="Rectángulo_31483" data-name="Rectángulo 31483" width="2.087" height="2.087" transform="translate(37.183)" fill="#122832"/>
            </g>
          </g>
        </g>
      </g>
    </g>
    <g id="Grupo_63496" data-name="Grupo 63496">
      <path id="Trazado_131975" data-name="Trazado 131975" d="M60.4,19.658l16.783.173a1.548,1.548,0,0,1,1.388.9l1.531,3.3a.188.188,0,0,0,.359-.072l.168-4.088L80.8,3.529A2.894,2.894,0,0,0,77.935.606L60.6.427A2.894,2.894,0,0,0,57.676,3.29l-.139,13.445A2.894,2.894,0,0,0,60.4,19.658Z" transform="translate(-57.537 -0.427)" fill="#a0a0a0" opacity="0.22" style="mix-blend-mode: multiply;isolation: isolate"/>
      <path id="Rectángulo_31484" data-name="Rectángulo 31484" d="M.555,0H2.979a.556.556,0,0,1,.556.556V5.315a.556.556,0,0,1-.556.556H.555A.555.555,0,0,1,0,5.315V.555A.555.555,0,0,1,.555,0Z" transform="translate(7.997 9.555) rotate(0.591)" fill="#fc1381"/>
      <rect id="Rectángulo_31485" data-name="Rectángulo 31485" width="3.535" height="3.535" rx="0.431" transform="translate(4.01 11.849) rotate(0.593)" fill="#ffb701"/>
      <rect id="Rectángulo_31486" data-name="Rectángulo 31486" width="3.535" height="9.034" rx="0.556" transform="matrix(1, 0.01, -0.01, 1, 11.958, 6.432)" fill="#009fbf"/>
      <rect id="Rectángulo_31487" data-name="Rectángulo 31487" width="3.193" height="11.657" rx="0.888" transform="translate(15.912 3.85) rotate(0.593)" fill="#122832"/>
    </g>
    <g id="Grupo_63508" data-name="Grupo 63508" transform="translate(123.41 54.486)">
      <g id="Grupo_63507" data-name="Grupo 63507" style="mix-blend-mode: multiply;isolation: isolate">
        <g id="Grupo_63497" data-name="Grupo 63497" transform="translate(10.355 2.368)">
          <circle id="Elipse_4202" data-name="Elipse 4202" cx="8.4" cy="8.4" r="8.4" transform="translate(14.404 2.13)" fill="#fc1381" style="mix-blend-mode: multiply;isolation: isolate"/>
          <circle id="Elipse_4203" data-name="Elipse 4203" cx="8.4" cy="8.4" r="8.4" transform="matrix(0.361, -0.933, 0.933, 0.361, 0, 15.666)" fill="#009fbf" style="mix-blend-mode: multiply;isolation: isolate"/>
          <circle id="Elipse_4204" data-name="Elipse 4204" cx="8.4" cy="8.4" r="8.4" transform="translate(7.411 14.163) rotate(-9.282)" fill="#ffb701" style="mix-blend-mode: multiply;isolation: isolate"/>
        </g>
        <g id="Grupo_63506" data-name="Grupo 63506">
          <g id="Grupo_63498" data-name="Grupo 63498" transform="translate(0.834 1.006)">
            <path id="Trazado_131976" data-name="Trazado 131976" d="M518.729,235.128h-1.144v-.294h.85v-.85h.294Z" transform="translate(-466.458 -200.443)" fill="#a0a0a0"/>
            <path id="Trazado_131977" data-name="Trazado 131977" d="M437.694,236.507h-2v-.294h2Zm-4,0h-2v-.294h2Zm-4,0h-2v-.294h2Zm-4,0h-2v-.294h2Zm-4,0h-2v-.294h2Zm-4,0h-2v-.294h2Zm-4,0h-2v-.294h2Zm-4,0h-2v-.294h2Zm-4,0h-2v-.294h2Zm-4,0h-2v-.294h2Zm-4,0h-2v-.294h2Zm-4,0h-2v-.294h2Z" transform="translate(-388.567 -201.822)" fill="#a0a0a0"/>
            <path id="Trazado_131978" data-name="Trazado 131978" d="M384.609,235.128h-1.144v-1.144h.294v.85h.85Z" transform="translate(-383.465 -200.443)" fill="#a0a0a0"/>
            <path id="Trazado_131979" data-name="Trazado 131979" d="M383.759,182.583h-.294v-1.906h.294Zm0-3.811h-.294v-1.906h.294Zm0-3.812h-.294v-1.906h.294Zm0-3.811h-.294v-1.906h.294Zm0-3.811h-.294v-1.906h.294Zm0-3.811h-.294v-1.906h.294Zm0-3.812h-.294v-1.906h.294Zm0-3.811h-.294V154h.294Z" transform="translate(-383.465 -150.948)" fill="#a0a0a0"/>
            <path id="Trazado_131980" data-name="Trazado 131980" d="M383.758,147.141h-.294V146h1.144v.294h-.85Z" transform="translate(-383.465 -145.997)" fill="#a0a0a0"/>
            <path id="Trazado_131981" data-name="Trazado 131981" d="M437.694,146.291h-2V146h2Zm-4,0h-2V146h2Zm-4,0h-2V146h2Zm-4,0h-2V146h2Zm-4,0h-2V146h2Zm-4,0h-2V146h2Zm-4,0h-2V146h2Zm-4,0h-2V146h2Zm-4,0h-2V146h2Zm-4,0h-2V146h2Zm-4,0h-2V146h2Zm-4,0h-2V146h2Z" transform="translate(-388.567 -145.997)" fill="#a0a0a0"/>
            <path id="Trazado_131982" data-name="Trazado 131982" d="M518.729,147.141h-.294v-.85h-.85V146h1.144Z" transform="translate(-466.458 -145.997)" fill="#a0a0a0"/>
            <path id="Trazado_131983" data-name="Trazado 131983" d="M520.109,182.583h-.294v-1.906h.294Zm0-3.811h-.294v-1.906h.294Zm0-3.812h-.294v-1.906h.294Zm0-3.811h-.294v-1.906h.294Zm0-3.811h-.294v-1.906h.294Zm0-3.812h-.294v-1.906h.294Zm0-3.811h-.294v-1.906h.294Zm0-3.811h-.294V154h.294Z" transform="translate(-467.838 -150.948)" fill="#a0a0a0"/>
          </g>
          <g id="Grupo_63505" data-name="Grupo 63505">
            <g id="Grupo_63501" data-name="Grupo 63501">
              <g id="Grupo_63499" data-name="Grupo 63499">
                <rect id="Rectángulo_31488" data-name="Rectángulo 31488" width="2.432" height="2.432" transform="translate(0.333 0.332)" fill="#fff"/>
                <path id="Trazado_131984" data-name="Trazado 131984" d="M384.373,146.455h-3.1v-3.1h3.1Zm-2.432-.665h1.767v-1.767h-1.767Z" transform="translate(-381.276 -143.358)" fill="#222221"/>
              </g>
              <g id="Grupo_63500" data-name="Grupo 63500" transform="translate(51.285)">
                <rect id="Rectángulo_31489" data-name="Rectángulo 31489" width="2.432" height="2.432" transform="translate(0.333 0.332)" fill="#fff"/>
                <path id="Trazado_131985" data-name="Trazado 131985" d="M518.906,146.455h-3.1v-3.1h3.1Zm-2.432-.665h1.767v-1.767h-1.767Z" transform="translate(-515.81 -143.358)" fill="#222221"/>
              </g>
            </g>
            <g id="Grupo_63504" data-name="Grupo 63504" transform="translate(0 33.269)">
              <g id="Grupo_63502" data-name="Grupo 63502">
                <rect id="Rectángulo_31490" data-name="Rectángulo 31490" width="2.432" height="2.432" transform="translate(0.333 0.333)" fill="#fff"/>
                <path id="Trazado_131986" data-name="Trazado 131986" d="M384.373,233.727h-3.1v-3.1h3.1Zm-2.432-.665h1.767V231.3h-1.767Z" transform="translate(-381.276 -230.631)" fill="#222221"/>
              </g>
              <g id="Grupo_63503" data-name="Grupo 63503" transform="translate(51.285)">
                <rect id="Rectángulo_31491" data-name="Rectángulo 31491" width="2.432" height="2.432" transform="translate(0.333 0.333)" fill="#fff"/>
                <path id="Trazado_131987" data-name="Trazado 131987" d="M518.906,233.727h-3.1v-3.1h3.1Zm-2.432-.665h1.767V231.3h-1.767Z" transform="translate(-515.81 -230.631)" fill="#222221"/>
              </g>
            </g>
          </g>
        </g>
      </g>
      <path id="Trazado_131988" data-name="Trazado 131988" d="M476.331,232.319l-1.621,4.7a.5.5,0,0,1-.941-.015l-3.216-10.364a.5.5,0,0,1,.63-.616l10.377,3.489a.5.5,0,0,1-.008.941l-4.9,1.553A.5.5,0,0,0,476.331,232.319Z" transform="translate(-436.506 -194.496)" fill="#122832"/>
    </g>
  </g>
  <g id="Grupo_63512" data-name="Grupo 63512" transform="translate(7.807 20.719)">
    <g id="Grupo_63510" data-name="Grupo 63510" transform="translate(157.815)">
      <path id="Trazado_131989" data-name="Trazado 131989" d="M440.676,68.884a3.1,3.1,0,1,0-3.1,3.1A3.1,3.1,0,0,0,440.676,68.884Z" transform="translate(-434.473 -61.423)" fill="#009fbf" style="mix-blend-mode: multiply;isolation: isolate"/>
      <path id="Trazado_131990" data-name="Trazado 131990" d="M455.588,62.192l-2.141,0V61.9l1.847,0V60.722h.294Zm-4.135,0-1.994,0v-.294l1.994,0Zm-3.989,0-1.994,0v-.294l1.994,0Zm-3.988,0-1.253,0V61.142h.294v.741h.959Zm-.956-3.031h-.294l0-1.994h.294Zm13.072-.42H455.3l0-1.994h.294ZM442.525,55.16h-.294v-.808l1.479,0v.294l-1.186,0Zm13.071-.42H455.3v-.08l-1.62,0v-.294l1.914,0Zm-3.908-.085-1.994,0v-.294l1.994,0Zm-3.988,0-1.994,0v-.294l1.994,0Z" transform="translate(-439.269 -54.351)" fill="#a0a0a0" style="mix-blend-mode: multiply;isolation: isolate"/>
    </g>
    <g id="Grupo_63511" data-name="Grupo 63511" transform="translate(0 23.195)">
      <path id="Trazado_131991" data-name="Trazado 131991" d="M41.211,158.035a2.326,2.326,0,1,0-2.329,2.323A2.326,2.326,0,0,0,41.211,158.035Z" transform="translate(-30.429 -140.265)" fill="#ffb701" style="mix-blend-mode: multiply;isolation: isolate"/>
      <path id="Trazado_131992" data-name="Trazado 131992" d="M29.746,133.114l-2.141,0v-.294l1.847,0v-1.174h.294Zm-4.135,0-1.994,0v-.294l1.994,0Zm-3.989,0H20.48l0-1.146h.294v.852h.849Zm-.845-3.141h-.294l0-1.994h.294Zm8.973-.312h-.294l0-1.994h.294Zm-8.969-3.676h-.294l0-1.994h.294Zm8.973-.312h-.294l0-1.994h.294Zm-8.969-3.676h-.294l0-1.994h.294Zm8.973-.312h-.294l0-1.994h.294ZM20.791,118H20.5l0-1.994h.294Zm8.973-.312H29.47l0-1.994h.294Zm-1.8-2.188-1.994,0V115.2l1.994,0Zm-3.989,0-1.994,0V115.2l1.994,0Z" transform="translate(-20.48 -115.199)" fill="#a0a0a0" style="mix-blend-mode: multiply;isolation: isolate"/>
    </g>
  </g>
</svg>
