<svg xmlns="http://www.w3.org/2000/svg" xmlns:xlink="http://www.w3.org/1999/xlink" width="295" height="312" viewBox="0 0 295 312">
  <defs>
    <clipPath id="clip-path">
      <rect id="Rectángulo_401554" data-name="Rectángulo 401554" width="208.37" height="208.396" fill="none"/>
    </clipPath>
  </defs>
  <g id="Grupo_1099941" data-name="Grupo 1099941" transform="translate(2370 8718)">
    <path id="Trazado_874370" data-name="Trazado 874370" d="M10,0H285a10,10,0,0,1,10,10V302a10,10,0,0,1-10,10H10A10,10,0,0,1,0,302V10A10,10,0,0,1,10,0Z" transform="translate(-2370 -8718)" fill="#fff"/>
    <path id="Trazado_874371" data-name="Trazado 874371" d="M-13.269-3.006V0h-1.758V-8.531H-11.7a3.85,3.85,0,0,1,1.69.352,2.591,2.591,0,0,1,1.122,1,2.786,2.786,0,0,1,.393,1.474,2.45,2.45,0,0,1-.858,1.978,3.575,3.575,0,0,1-2.376.724Zm0-1.424h1.57a1.544,1.544,0,0,0,1.063-.328,1.193,1.193,0,0,0,.366-.937,1.407,1.407,0,0,0-.369-1.014,1.379,1.379,0,0,0-1.02-.4h-1.611ZM-3.6-.645A2.124,2.124,0,0,1-5.335.117,2,2,0,0,1-6.891-.469a2.5,2.5,0,0,1-.548-1.717V-6.34h1.693v4.1q0,.99.9.99a1.223,1.223,0,0,0,1.184-.6V-6.34h1.7V0H-3.554ZM2.88-4.752A4.6,4.6,0,0,0,2.271-4.8a1.24,1.24,0,0,0-1.26.65V0H-.683V-6.34h1.6l.047.756a1.569,1.569,0,0,1,1.412-.873,1.774,1.774,0,0,1,.527.076Zm.34,1.523A3.76,3.76,0,0,1,3.583-4.91,2.659,2.659,0,0,1,4.629-6.053a3.051,3.051,0,0,1,1.585-.4,2.887,2.887,0,0,1,2.095.785,3.151,3.151,0,0,1,.905,2.133l.012.434A3.314,3.314,0,0,1,8.411-.765,2.831,2.831,0,0,1,6.226.117,2.845,2.845,0,0,1,4.037-.762,3.372,3.372,0,0,1,3.22-3.152Zm1.693.123a2.363,2.363,0,0,0,.34,1.38,1.122,1.122,0,0,0,.973.478,1.124,1.124,0,0,0,.961-.472,2.586,2.586,0,0,0,.346-1.509A2.34,2.34,0,0,0,7.187-4.6a1.124,1.124,0,0,0-.973-.486,1.106,1.106,0,0,0-.961.483A2.63,2.63,0,0,0,4.913-3.105ZM13.7-1.752a.546.546,0,0,0-.308-.489,3.494,3.494,0,0,0-.987-.319q-2.262-.475-2.262-1.922a1.742,1.742,0,0,1,.7-1.409,2.824,2.824,0,0,1,1.831-.565,3.04,3.04,0,0,1,1.931.568,1.791,1.791,0,0,1,.724,1.477H13.638a.819.819,0,0,0-.234-.6.992.992,0,0,0-.732-.237,1.013,1.013,0,0,0-.662.193.61.61,0,0,0-.234.492.522.522,0,0,0,.267.454,2.743,2.743,0,0,0,.9.3,7.346,7.346,0,0,1,1.066.284,1.752,1.752,0,0,1,1.342,1.705,1.654,1.654,0,0,1-.744,1.4,3.21,3.21,0,0,1-1.922.536,3.353,3.353,0,0,1-1.415-.284,2.374,2.374,0,0,1-.97-.779,1.811,1.811,0,0,1-.352-1.069h1.605a.884.884,0,0,0,.334.691,1.325,1.325,0,0,0,.832.24,1.226,1.226,0,0,0,.735-.185A.574.574,0,0,0,13.7-1.752Z" transform="translate(-2121 -8687)" fill="#12263f"/>
    <path id="Trazado_874372" data-name="Trazado 874372" d="M-37.219-8.531l2.191,6.188,2.18-6.187h2.309V0H-32.3V-2.332l.176-4.025L-34.43,0h-1.207l-2.3-6.352.176,4.02V0h-1.758V-8.531Zm11.9,7.887a2.124,2.124,0,0,1-1.734.762,2,2,0,0,1-1.556-.586,2.5,2.5,0,0,1-.548-1.717V-6.34h1.693v4.1q0,.99.9.99a1.223,1.223,0,0,0,1.184-.6V-6.34h1.7V0h-1.594ZM-20.033-2.4l1.172-3.943h1.816L-19.594.984l-.141.334a1.933,1.933,0,0,1-1.875,1.242,2.664,2.664,0,0,1-.75-.111V1.166l.258.006a1.393,1.393,0,0,0,.718-.146.962.962,0,0,0,.372-.486l.2-.521L-23.033-6.34h1.822Zm9.48-1.406a5.29,5.29,0,0,1-2.106-1.022,1.954,1.954,0,0,1-.659-1.5,2.064,2.064,0,0,1,.806-1.667,3.2,3.2,0,0,1,2.095-.659,3.5,3.5,0,0,1,1.567.34,2.577,2.577,0,0,1,1.066.938,2.4,2.4,0,0,1,.378,1.307H-8.537A1.552,1.552,0,0,0-9.029-7.28a2.006,2.006,0,0,0-1.389-.442,2.052,2.052,0,0,0-1.3.366,1.221,1.221,0,0,0-.466,1.017,1.1,1.1,0,0,0,.442.882,4.343,4.343,0,0,0,1.506.659,6.973,6.973,0,0,1,1.664.659,2.525,2.525,0,0,1,.891.841,2.146,2.146,0,0,1,.29,1.131A1.993,1.993,0,0,1-8.2-.507a3.448,3.448,0,0,1-2.162.624A4.01,4.01,0,0,1-12-.22a2.761,2.761,0,0,1-1.175-.923,2.252,2.252,0,0,1-.413-1.33h1.131a1.469,1.469,0,0,0,.571,1.222A2.4,2.4,0,0,0-10.359-.8a2.211,2.211,0,0,0,1.365-.363,1.18,1.18,0,0,0,.475-.99,1.158,1.158,0,0,0-.439-.97A5.066,5.066,0,0,0-10.553-3.8ZM-2.2,0a2.277,2.277,0,0,1-.152-.668,2.419,2.419,0,0,1-1.8.785A2.238,2.238,0,0,1-5.7-.413a1.716,1.716,0,0,1-.6-1.345A1.792,1.792,0,0,1-5.546-3.3a3.55,3.55,0,0,1,2.118-.548h1.055v-.5a1.217,1.217,0,0,0-.34-.905,1.366,1.366,0,0,0-1-.337,1.581,1.581,0,0,0-.973.293.863.863,0,0,0-.393.709H-6.17A1.5,1.5,0,0,1-5.833-5.5a2.3,2.3,0,0,1,.914-.7A3.075,3.075,0,0,1-3.65-6.457a2.506,2.506,0,0,1,1.717.548A1.976,1.976,0,0,1-1.289-4.4v2.918A3.567,3.567,0,0,0-1.066-.094V0ZM-4-.826a1.905,1.905,0,0,0,.967-.264,1.6,1.6,0,0,0,.662-.686v-1.3h-.85q-1.992,0-1.992,1.166a.987.987,0,0,0,.34.8A1.306,1.306,0,0,0-4-.826ZM1.881-7.875V-6.34H3.064V-5.5H1.881V-1.57A.878.878,0,0,0,2.039-1a.666.666,0,0,0,.539.19,2.624,2.624,0,0,0,.516-.07V0a3.143,3.143,0,0,1-.832.117,1.35,1.35,0,0,1-1.1-.439A1.888,1.888,0,0,1,.8-1.57V-5.5H-.357V-6.34H.8V-7.875ZM8.244-.627A2.3,2.3,0,0,1,6.387.117,1.971,1.971,0,0,1,4.843-.472a2.549,2.549,0,0,1-.536-1.743V-6.34H5.391v4.1Q5.391-.8,6.563-.8a1.623,1.623,0,0,0,1.652-.926V-6.34H9.3V0H8.268Zm5.766-4.74a3.248,3.248,0,0,0-.533-.041,1.428,1.428,0,0,0-1.447.908V0H10.945V-6.34H12l.018.732a1.688,1.688,0,0,1,1.512-.85,1.107,1.107,0,0,1,.48.082ZM18.686,0a2.277,2.277,0,0,1-.152-.668,2.419,2.419,0,0,1-1.8.785,2.238,2.238,0,0,1-1.538-.53,1.716,1.716,0,0,1-.6-1.345A1.792,1.792,0,0,1,15.343-3.3a3.55,3.55,0,0,1,2.118-.548h1.055v-.5a1.217,1.217,0,0,0-.34-.905,1.366,1.366,0,0,0-1-.337,1.581,1.581,0,0,0-.973.293.863.863,0,0,0-.393.709h-1.09a1.5,1.5,0,0,1,.337-.917,2.3,2.3,0,0,1,.914-.7,3.075,3.075,0,0,1,1.269-.258,2.506,2.506,0,0,1,1.717.548A1.976,1.976,0,0,1,19.6-4.4v2.918a3.567,3.567,0,0,0,.223,1.389V0Zm-1.8-.826a1.905,1.905,0,0,0,.967-.264,1.6,1.6,0,0,0,.662-.686v-1.3h-.85q-1.992,0-1.992,1.166a.987.987,0,0,0,.34.8A1.306,1.306,0,0,0,16.887-.826Zm4.148-2.4a3.714,3.714,0,0,1,.691-2.347,2.186,2.186,0,0,1,1.811-.888A2.2,2.2,0,0,1,25.3-5.7V-9h1.084V0h-1l-.053-.68a2.208,2.208,0,0,1-1.811.8,2.165,2.165,0,0,1-1.8-.9,3.756,3.756,0,0,1-.694-2.355Zm1.084.123a2.812,2.812,0,0,0,.445,1.688,1.44,1.44,0,0,0,1.23.609A1.581,1.581,0,0,0,25.3-1.729V-4.641a1.593,1.593,0,0,0-1.494-.9,1.446,1.446,0,0,0-1.242.615A3.1,3.1,0,0,0,22.119-3.1Zm5.66-.129A3.745,3.745,0,0,1,28.146-4.9a2.732,2.732,0,0,1,1.02-1.148,2.775,2.775,0,0,1,1.491-.4,2.674,2.674,0,0,1,2.095.9,3.449,3.449,0,0,1,.8,2.385V-3.1A3.777,3.777,0,0,1,33.2-1.438,2.692,2.692,0,0,1,32.183-.293a2.807,2.807,0,0,1-1.515.41,2.667,2.667,0,0,1-2.089-.9,3.432,3.432,0,0,1-.8-2.373Zm1.09.129a2.712,2.712,0,0,0,.489,1.693,1.566,1.566,0,0,0,1.31.639,1.556,1.556,0,0,0,1.313-.647,2.966,2.966,0,0,0,.486-1.813,2.708,2.708,0,0,0-.5-1.69,1.574,1.574,0,0,0-1.315-.647,1.557,1.557,0,0,0-1.295.639A2.944,2.944,0,0,0,28.869-3.1ZM38.6-1.682a.8.8,0,0,0-.331-.683,3.187,3.187,0,0,0-1.154-.419,5.457,5.457,0,0,1-1.307-.422,1.859,1.859,0,0,1-.715-.586,1.4,1.4,0,0,1-.231-.809,1.645,1.645,0,0,1,.659-1.318,2.574,2.574,0,0,1,1.685-.539,2.649,2.649,0,0,1,1.749.557,1.768,1.768,0,0,1,.671,1.424h-1.09a.979.979,0,0,0-.378-.768,1.416,1.416,0,0,0-.952-.322,1.482,1.482,0,0,0-.926.258.812.812,0,0,0-.334.674.658.658,0,0,0,.311.592,3.821,3.821,0,0,0,1.122.381,5.847,5.847,0,0,1,1.315.434,1.919,1.919,0,0,1,.747.606,1.491,1.491,0,0,1,.243.864A1.623,1.623,0,0,1,39.006-.4a2.851,2.851,0,0,1-1.764.513,3.193,3.193,0,0,1-1.348-.27,2.192,2.192,0,0,1-.917-.753,1.815,1.815,0,0,1-.331-1.046H35.73a1.122,1.122,0,0,0,.437.864,1.693,1.693,0,0,0,1.075.319,1.748,1.748,0,0,0,.987-.249A.765.765,0,0,0,38.6-1.682Z" transform="translate(-2316 -8440)" fill="#12263f"/>
    <path id="Trazado_874373" data-name="Trazado 874373" d="M-39.879-3.006V0h-1.758V-8.531h3.328a3.85,3.85,0,0,1,1.69.352,2.591,2.591,0,0,1,1.122,1A2.786,2.786,0,0,1-35.1-5.707a2.45,2.45,0,0,1-.858,1.978,3.575,3.575,0,0,1-2.376.724Zm0-1.424h1.57a1.544,1.544,0,0,0,1.063-.328,1.193,1.193,0,0,0,.366-.937,1.407,1.407,0,0,0-.369-1.014,1.379,1.379,0,0,0-1.02-.4h-1.611Zm5.531,1.2a3.76,3.76,0,0,1,.363-1.682,2.659,2.659,0,0,1,1.046-1.143,3.051,3.051,0,0,1,1.585-.4,2.887,2.887,0,0,1,2.095.785,3.151,3.151,0,0,1,.905,2.133l.012.434a3.314,3.314,0,0,1-.814,2.341,2.831,2.831,0,0,1-2.186.882A2.845,2.845,0,0,1-33.53-.762a3.372,3.372,0,0,1-.817-2.391Zm1.693.123a2.363,2.363,0,0,0,.34,1.38,1.122,1.122,0,0,0,.973.478,1.124,1.124,0,0,0,.961-.472,2.586,2.586,0,0,0,.346-1.509A2.34,2.34,0,0,0-30.381-4.6a1.124,1.124,0,0,0-.973-.486,1.106,1.106,0,0,0-.961.483A2.63,2.63,0,0,0-32.654-3.105Zm7.992,1.857a1.111,1.111,0,0,0,.762-.258.9.9,0,0,0,.3-.686h1.588a2.172,2.172,0,0,1-.352,1.181,2.32,2.32,0,0,1-.946.832,2.962,2.962,0,0,1-1.327.3,2.752,2.752,0,0,1-2.145-.864,3.42,3.42,0,0,1-.785-2.388v-.111a3.381,3.381,0,0,1,.779-2.338,2.72,2.72,0,0,1,2.139-.873,2.667,2.667,0,0,1,1.907.677,2.4,2.4,0,0,1,.729,1.8H-23.6a1.154,1.154,0,0,0-.3-.8,1.019,1.019,0,0,0-.773-.308,1.02,1.02,0,0,0-.894.431,2.493,2.493,0,0,0-.3,1.4v.176a2.524,2.524,0,0,0,.3,1.406A1.033,1.033,0,0,0-24.662-1.248Zm3.357-1.98a3.76,3.76,0,0,1,.363-1.682A2.659,2.659,0,0,1-19.9-6.053a3.051,3.051,0,0,1,1.585-.4,2.887,2.887,0,0,1,2.095.785,3.151,3.151,0,0,1,.905,2.133l.012.434a3.314,3.314,0,0,1-.814,2.341A2.831,2.831,0,0,1-18.3.117a2.845,2.845,0,0,1-2.188-.879A3.372,3.372,0,0,1-21.3-3.152Zm1.693.123a2.363,2.363,0,0,0,.34,1.38,1.122,1.122,0,0,0,.973.478,1.124,1.124,0,0,0,.961-.472,2.586,2.586,0,0,0,.346-1.509A2.34,2.34,0,0,0-17.338-4.6a1.124,1.124,0,0,0-.973-.486,1.106,1.106,0,0,0-.961.483A2.63,2.63,0,0,0-19.611-3.105Zm11.18-.7a5.29,5.29,0,0,1-2.106-1.022,1.954,1.954,0,0,1-.659-1.5,2.064,2.064,0,0,1,.806-1.667A3.2,3.2,0,0,1-8.3-8.648a3.5,3.5,0,0,1,1.567.34,2.577,2.577,0,0,1,1.066.938,2.4,2.4,0,0,1,.378,1.307H-6.416A1.552,1.552,0,0,0-6.908-7.28,2.006,2.006,0,0,0-8.3-7.723a2.052,2.052,0,0,0-1.3.366,1.221,1.221,0,0,0-.466,1.017,1.1,1.1,0,0,0,.442.882A4.343,4.343,0,0,0-8.112-4.8a6.973,6.973,0,0,1,1.664.659,2.525,2.525,0,0,1,.891.841,2.146,2.146,0,0,1,.29,1.131A1.993,1.993,0,0,1-6.076-.507,3.448,3.448,0,0,1-8.238.117,4.01,4.01,0,0,1-9.879-.22a2.761,2.761,0,0,1-1.175-.923,2.252,2.252,0,0,1-.413-1.33h1.131a1.469,1.469,0,0,0,.571,1.222A2.4,2.4,0,0,0-8.238-.8a2.211,2.211,0,0,0,1.365-.363,1.18,1.18,0,0,0,.475-.99,1.158,1.158,0,0,0-.439-.97A5.066,5.066,0,0,0-8.432-3.8ZM-.082,0A2.277,2.277,0,0,1-.234-.668a2.419,2.419,0,0,1-1.8.785,2.238,2.238,0,0,1-1.538-.53,1.716,1.716,0,0,1-.6-1.345A1.792,1.792,0,0,1-3.425-3.3a3.55,3.55,0,0,1,2.118-.548H-.252v-.5a1.217,1.217,0,0,0-.34-.905,1.366,1.366,0,0,0-1-.337,1.581,1.581,0,0,0-.973.293.863.863,0,0,0-.393.709h-1.09A1.5,1.5,0,0,1-3.712-5.5,2.3,2.3,0,0,1-2.8-6.2a3.075,3.075,0,0,1,1.269-.258,2.506,2.506,0,0,1,1.717.548A1.976,1.976,0,0,1,.832-4.4v2.918A3.567,3.567,0,0,0,1.055-.094V0Zm-1.8-.826A1.905,1.905,0,0,0-.914-1.09a1.6,1.6,0,0,0,.662-.686v-1.3H-1.1q-1.992,0-1.992,1.166a.987.987,0,0,0,.34.8A1.306,1.306,0,0,0-1.881-.826ZM4-7.875V-6.34H5.186V-5.5H4V-1.57A.878.878,0,0,0,4.16-1a.666.666,0,0,0,.539.19,2.624,2.624,0,0,0,.516-.07V0a3.143,3.143,0,0,1-.832.117,1.35,1.35,0,0,1-1.1-.439A1.888,1.888,0,0,1,2.918-1.57V-5.5H1.764V-6.34H2.918V-7.875ZM10.365-.627A2.3,2.3,0,0,1,8.508.117,1.971,1.971,0,0,1,6.964-.472a2.549,2.549,0,0,1-.536-1.743V-6.34H7.512v4.1Q7.512-.8,8.684-.8a1.623,1.623,0,0,0,1.652-.926V-6.34H11.42V0H10.389Zm5.766-4.74a3.248,3.248,0,0,0-.533-.041A1.428,1.428,0,0,0,14.15-4.5V0H13.066V-6.34h1.055l.018.732a1.688,1.688,0,0,1,1.512-.85,1.107,1.107,0,0,1,.48.082ZM20.807,0a2.277,2.277,0,0,1-.152-.668,2.419,2.419,0,0,1-1.8.785,2.238,2.238,0,0,1-1.538-.53,1.716,1.716,0,0,1-.6-1.345A1.792,1.792,0,0,1,17.464-3.3a3.55,3.55,0,0,1,2.118-.548h1.055v-.5a1.217,1.217,0,0,0-.34-.905,1.366,1.366,0,0,0-1-.337,1.581,1.581,0,0,0-.973.293.863.863,0,0,0-.393.709H16.84a1.5,1.5,0,0,1,.337-.917,2.3,2.3,0,0,1,.914-.7,3.075,3.075,0,0,1,1.269-.258,2.506,2.506,0,0,1,1.717.548A1.976,1.976,0,0,1,21.721-4.4v2.918a3.567,3.567,0,0,0,.223,1.389V0Zm-1.8-.826a1.905,1.905,0,0,0,.967-.264,1.6,1.6,0,0,0,.662-.686v-1.3h-.85q-1.992,0-1.992,1.166a.987.987,0,0,0,.34.8A1.306,1.306,0,0,0,19.008-.826Zm4.148-2.4a3.714,3.714,0,0,1,.691-2.347,2.186,2.186,0,0,1,1.811-.888,2.2,2.2,0,0,1,1.764.762V-9h1.084V0h-1l-.053-.68a2.208,2.208,0,0,1-1.811.8,2.165,2.165,0,0,1-1.8-.9,3.756,3.756,0,0,1-.694-2.355ZM24.24-3.1a2.812,2.812,0,0,0,.445,1.688,1.44,1.44,0,0,0,1.23.609,1.581,1.581,0,0,0,1.506-.926V-4.641a1.593,1.593,0,0,0-1.494-.9,1.446,1.446,0,0,0-1.242.615A3.1,3.1,0,0,0,24.24-3.1Zm5.66-.129A3.745,3.745,0,0,1,30.267-4.9a2.732,2.732,0,0,1,1.02-1.148,2.775,2.775,0,0,1,1.491-.4,2.674,2.674,0,0,1,2.095.9,3.449,3.449,0,0,1,.8,2.385V-3.1a3.777,3.777,0,0,1-.354,1.661A2.692,2.692,0,0,1,34.3-.293a2.807,2.807,0,0,1-1.515.41,2.667,2.667,0,0,1-2.089-.9,3.432,3.432,0,0,1-.8-2.373Zm1.09.129a2.712,2.712,0,0,0,.489,1.693,1.566,1.566,0,0,0,1.31.639A1.556,1.556,0,0,0,34.1-1.415a2.966,2.966,0,0,0,.486-1.813,2.708,2.708,0,0,0-.5-1.69,1.574,1.574,0,0,0-1.315-.647,1.557,1.557,0,0,0-1.295.639A2.944,2.944,0,0,0,30.99-3.1Zm9.732,1.418a.8.8,0,0,0-.331-.683,3.187,3.187,0,0,0-1.154-.419,5.457,5.457,0,0,1-1.307-.422,1.859,1.859,0,0,1-.715-.586,1.4,1.4,0,0,1-.231-.809,1.645,1.645,0,0,1,.659-1.318,2.574,2.574,0,0,1,1.685-.539,2.649,2.649,0,0,1,1.749.557,1.768,1.768,0,0,1,.671,1.424h-1.09a.979.979,0,0,0-.378-.768,1.416,1.416,0,0,0-.952-.322,1.482,1.482,0,0,0-.926.258.812.812,0,0,0-.334.674.658.658,0,0,0,.311.592,3.821,3.821,0,0,0,1.122.381,5.847,5.847,0,0,1,1.315.434,1.919,1.919,0,0,1,.747.606,1.491,1.491,0,0,1,.243.864A1.623,1.623,0,0,1,41.127-.4a2.851,2.851,0,0,1-1.764.513,3.193,3.193,0,0,1-1.348-.27A2.192,2.192,0,0,1,37.1-.905a1.815,1.815,0,0,1-.331-1.046h1.084a1.122,1.122,0,0,0,.437.864,1.693,1.693,0,0,0,1.075.319,1.748,1.748,0,0,0,.987-.249A.765.765,0,0,0,40.723-1.682Z" transform="translate(-2130 -8449)" fill="#12263f"/>
    <g id="Grupo_1099929" data-name="Grupo 1099929" transform="translate(11 -4)">
      <g id="Grupo_1099928" data-name="Grupo 1099928" transform="translate(-2129.015 -8673.529) rotate(90)">
        <g id="Grupo_1099927" data-name="Grupo 1099927" clip-path="url(#clip-path)">
          <path id="Trazado_874063" data-name="Trazado 874063" d="M65.5,9.766V.011A104.628,104.628,0,0,0,43.834,2.266l2.029,9.545A94.746,94.746,0,0,1,65.5,9.766" transform="translate(38.686 0.01)" fill="#ff2600"/>
          <path id="Trazado_874064" data-name="Trazado 874064" d="M64.547,14.948V5.193A94.875,94.875,0,0,0,44.912,7.237l2.028,9.545a85.038,85.038,0,0,1,17.608-1.834" transform="translate(39.638 4.583)" fill="#ff3b19"/>
          <path id="Trazado_874065" data-name="Trazado 874065" d="M63.6,20.13V10.375a85.038,85.038,0,0,0-17.608,1.834l2.029,9.545A75.156,75.156,0,0,1,63.6,20.13" transform="translate(40.588 9.157)" fill="#ff5132"/>
          <path id="Trazado_874066" data-name="Trazado 874066" d="M62.645,25.312V15.557A75.169,75.169,0,0,0,47.067,17.18L49.1,26.723a65.416,65.416,0,0,1,13.549-1.41" transform="translate(41.54 13.73)" fill="#ff664c"/>
          <path id="Trazado_874067" data-name="Trazado 874067" d="M61.694,30.494V20.739a65.288,65.288,0,0,0-13.549,1.412l2.028,9.543a55.694,55.694,0,0,1,11.521-1.2" transform="translate(42.491 18.304)" fill="#ff7c65"/>
          <path id="Trazado_874068" data-name="Trazado 874068" d="M60.743,35.676V25.921a55.694,55.694,0,0,0-11.521,1.2l2.029,9.545a45.826,45.826,0,0,1,9.492-.988" transform="translate(43.442 22.877)" fill="#ff917e"/>
          <path id="Trazado_874069" data-name="Trazado 874069" d="M59.792,40.858V31.1a45.825,45.825,0,0,0-9.492.988l2.029,9.545a35.956,35.956,0,0,1,7.463-.778" transform="translate(44.393 27.451)" fill="#ffa797"/>
          <path id="Trazado_874070" data-name="Trazado 874070" d="M58.84,46.04V36.285a35.956,35.956,0,0,0-7.463.778l2.028,9.545a26.235,26.235,0,0,1,5.435-.567" transform="translate(45.345 32.024)" fill="#ffbcb1"/>
          <path id="Trazado_874071" data-name="Trazado 874071" d="M57.89,51.222V41.467a26.235,26.235,0,0,0-5.435.567l2.029,9.545a16.367,16.367,0,0,1,3.406-.356" transform="translate(46.295 36.597)" fill="#ffd2ca"/>
          <path id="Trazado_874072" data-name="Trazado 874072" d="M55.563,56.548a6.612,6.612,0,0,1,1.376-.143V46.649A16.514,16.514,0,0,0,53.532,47Z" transform="translate(47.246 41.171)" fill="#ffe7e3"/>
          <path id="Trazado_874073" data-name="Trazado 874073" d="M45.65,13.708,41.682,4.8A104.677,104.677,0,0,0,22.809,15.668l5.734,7.894A94.982,94.982,0,0,1,45.65,13.708" transform="translate(20.13 4.233)" fill="#ff5700"/>
          <path id="Trazado_874074" data-name="Trazado 874074" d="M46.929,18.44,42.961,9.53a94.573,94.573,0,0,0-17.105,9.855l5.734,7.892A84.99,84.99,0,0,1,46.929,18.44" transform="translate(22.82 8.411)" fill="#ff6819"/>
          <path id="Trazado_874075" data-name="Trazado 874075" d="M48.209,23.174l-3.968-8.91A84.942,84.942,0,0,0,28.9,23.1l5.736,7.892a75.39,75.39,0,0,1,13.571-7.818" transform="translate(25.507 12.589)" fill="#ff7832"/>
          <path id="Trazado_874076" data-name="Trazado 874076" d="M49.488,27.909,45.519,19a75.166,75.166,0,0,0-13.571,7.818l5.736,7.894a65.39,65.39,0,0,1,11.8-6.8" transform="translate(28.196 16.766)" fill="#ff894c"/>
          <path id="Trazado_874077" data-name="Trazado 874077" d="M50.767,32.643,46.8,23.731a65.455,65.455,0,0,0-11.8,6.8l5.736,7.894a55.679,55.679,0,0,1,10.036-5.781" transform="translate(30.885 20.944)" fill="#ff9965"/>
          <path id="Trazado_874078" data-name="Trazado 874078" d="M52.045,37.377l-3.968-8.912a55.743,55.743,0,0,0-10.036,5.781l5.734,7.9a45.833,45.833,0,0,1,8.27-4.765" transform="translate(33.574 25.122)" fill="#ffaa7e"/>
          <path id="Trazado_874079" data-name="Trazado 874079" d="M53.325,42.111,49.356,33.2a45.816,45.816,0,0,0-8.268,4.765l5.734,7.894a35.944,35.944,0,0,1,6.5-3.746" transform="translate(36.263 29.3)" fill="#ffba97"/>
          <path id="Trazado_874080" data-name="Trazado 874080" d="M54.6,46.845l-3.968-8.912a36.121,36.121,0,0,0-6.5,3.746l5.736,7.894A26.3,26.3,0,0,1,54.6,46.845" transform="translate(38.951 33.478)" fill="#ffcbb1"/>
          <path id="Trazado_874081" data-name="Trazado 874081" d="M55.883,51.579l-3.968-8.912a26.3,26.3,0,0,0-4.735,2.728l5.736,7.894a16.408,16.408,0,0,1,2.967-1.709" transform="translate(41.64 37.657)" fill="#ffdbca"/>
          <path id="Trazado_874082" data-name="Trazado 874082" d="M55.963,57a6.587,6.587,0,0,1,1.2-.691L53.194,47.4a16.473,16.473,0,0,0-2.967,1.709Z" transform="translate(44.329 41.835)" fill="#ffece3"/>
          <path id="Trazado_874083" data-name="Trazado 874083" d="M55.58,10.763,53.552,1.22A104.668,104.668,0,0,0,32.829,7.931l3.97,8.914a94.816,94.816,0,0,1,18.78-6.083" transform="translate(28.974 1.077)" fill="#ff3b00"/>
          <path id="Trazado_874084" data-name="Trazado 874084" d="M55.748,15.832,53.719,6.289a94.776,94.776,0,0,0-18.781,6.083L38.9,21.286a85.1,85.1,0,0,1,16.843-5.454" transform="translate(30.835 5.55)" fill="#ff4e19"/>
          <path id="Trazado_874085" data-name="Trazado 874085" d="M55.915,20.9l-2.028-9.543a85.083,85.083,0,0,0-16.841,5.454l3.968,8.914a75.289,75.289,0,0,1,14.9-4.825" transform="translate(32.696 10.024)" fill="#ff6232"/>
          <path id="Trazado_874086" data-name="Trazado 874086" d="M56.082,25.968l-2.028-9.541a74.968,74.968,0,0,0-14.9,4.827l3.968,8.912a65.418,65.418,0,0,1,12.96-4.2" transform="translate(34.556 14.498)" fill="#ff754c"/>
          <path id="Trazado_874087" data-name="Trazado 874087" d="M56.251,31.038,54.223,21.5a65.436,65.436,0,0,0-12.961,4.2l3.97,8.914a55.545,55.545,0,0,1,11.019-3.569" transform="translate(36.417 18.971)" fill="#ff8865"/>
          <path id="Trazado_874088" data-name="Trazado 874088" d="M56.418,36.107l-2.028-9.543A55.563,55.563,0,0,0,43.37,30.133l3.968,8.914a45.769,45.769,0,0,1,9.08-2.941" transform="translate(38.277 23.445)" fill="#ff9c7e"/>
          <path id="Trazado_874089" data-name="Trazado 874089" d="M56.586,41.176l-2.029-9.543a45.834,45.834,0,0,0-9.078,2.941l3.967,8.914a36.2,36.2,0,0,1,7.141-2.312" transform="translate(40.138 27.918)" fill="#ffaf97"/>
          <path id="Trazado_874090" data-name="Trazado 874090" d="M56.753,46.244,54.726,36.7a36.1,36.1,0,0,0-7.139,2.312l3.968,8.914a26.307,26.307,0,0,1,5.2-1.683" transform="translate(41.999 32.391)" fill="#ffc2b1"/>
          <path id="Trazado_874091" data-name="Trazado 874091" d="M56.921,51.313,54.894,41.77a26.166,26.166,0,0,0-5.2,1.685l3.97,8.914a16.315,16.315,0,0,1,3.257-1.056" transform="translate(43.858 36.865)" fill="#ffd6ca"/>
          <path id="Trazado_874092" data-name="Trazado 874092" d="M55.771,56.809a6.58,6.58,0,0,1,1.318-.427L55.06,46.839A16.437,16.437,0,0,0,51.8,47.9Z" transform="translate(45.72 41.339)" fill="#ffe9e3"/>
          <path id="Trazado_874093" data-name="Trazado 874093" d="M36.145,18.472,30.41,10.58a104.641,104.641,0,0,0-16.2,14.558l7.252,6.529A94.889,94.889,0,0,1,36.145,18.472" transform="translate(12.54 9.338)" fill="#ff7900"/>
          <path id="Trazado_874094" data-name="Trazado 874094" d="M38.479,22.665l-5.734-7.892A94.889,94.889,0,0,0,18.061,27.968L25.313,34.5A85.04,85.04,0,0,1,38.479,22.665" transform="translate(15.94 13.038)" fill="#ff8619"/>
          <path id="Trazado_874095" data-name="Trazado 874095" d="M40.814,26.857,35.08,18.965A85.04,85.04,0,0,0,21.913,30.8l7.252,6.529A75.2,75.2,0,0,1,40.814,26.857" transform="translate(19.34 16.738)" fill="#ff9332"/>
          <path id="Trazado_874096" data-name="Trazado 874096" d="M43.149,31.049l-5.734-7.892A75.288,75.288,0,0,0,25.765,33.626l7.252,6.529a65.362,65.362,0,0,1,10.132-9.106" transform="translate(22.739 20.438)" fill="#ffa14c"/>
          <path id="Trazado_874097" data-name="Trazado 874097" d="M45.483,35.241l-5.734-7.892a65.343,65.343,0,0,0-10.132,9.106l7.252,6.529a55.514,55.514,0,0,1,8.615-7.743" transform="translate(26.139 24.137)" fill="#ffae65"/>
          <path id="Trazado_874098" data-name="Trazado 874098" d="M47.818,39.434l-5.734-7.892a55.5,55.5,0,0,0-8.615,7.741l7.252,6.531a45.667,45.667,0,0,1,7.1-6.38" transform="translate(29.539 27.838)" fill="#ffbb7e"/>
          <path id="Trazado_874099" data-name="Trazado 874099" d="M50.153,43.626l-5.734-7.892a45.751,45.751,0,0,0-7.1,6.378l7.25,6.529a36.1,36.1,0,0,1,5.582-5.015" transform="translate(32.938 31.538)" fill="#ffc897"/>
          <path id="Trazado_874100" data-name="Trazado 874100" d="M52.486,47.818l-5.734-7.892a35.9,35.9,0,0,0-5.58,5.015l7.25,6.529a26.252,26.252,0,0,1,4.064-3.652" transform="translate(36.337 35.237)" fill="#ffd6b1"/>
          <path id="Trazado_874101" data-name="Trazado 874101" d="M54.822,52.011l-5.734-7.892a26.156,26.156,0,0,0-4.064,3.652L52.275,54.3a16.5,16.5,0,0,1,2.547-2.289" transform="translate(39.736 38.938)" fill="#ffe3ca"/>
          <path id="Trazado_874102" data-name="Trazado 874102" d="M56.127,57.129a6.749,6.749,0,0,1,1.03-.926l-5.734-7.892A16.5,16.5,0,0,0,48.875,50.6Z" transform="translate(43.136 42.638)" fill="#fff0e3"/>
          <path id="Trazado_874103" data-name="Trazado 874103" d="M27.478,24.848l-7.25-6.527A104.669,104.669,0,0,0,7.408,35.929l8.451,4.88a94.857,94.857,0,0,1,11.619-15.96" transform="translate(6.538 16.17)" fill="#ff8700"/>
          <path id="Trazado_874104" data-name="Trazado 874104" d="M30.766,28.316l-7.25-6.527A94.843,94.843,0,0,0,11.9,37.748l8.451,4.88A84.927,84.927,0,0,1,30.766,28.316" transform="translate(10.5 19.23)" fill="#ff9319"/>
          <path id="Trazado_874105" data-name="Trazado 874105" d="M34.054,31.783,26.8,25.256A84.851,84.851,0,0,0,16.386,39.567l8.449,4.878a75.294,75.294,0,0,1,9.219-12.662" transform="translate(14.462 22.29)" fill="#ff9f32"/>
          <path id="Trazado_874106" data-name="Trazado 874106" d="M37.343,35.251l-7.25-6.527a75.142,75.142,0,0,0-9.219,12.662l8.451,4.878a65.5,65.5,0,0,1,8.018-11.013" transform="translate(18.423 25.351)" fill="#ffab4c"/>
          <path id="Trazado_874107" data-name="Trazado 874107" d="M40.631,38.718l-7.25-6.527A65.5,65.5,0,0,0,25.363,43.2l8.451,4.878a55.567,55.567,0,0,1,6.817-9.364" transform="translate(22.385 28.411)" fill="#ffb765"/>
          <path id="Trazado_874108" data-name="Trazado 874108" d="M43.919,42.185l-7.25-6.527a55.492,55.492,0,0,0-6.817,9.364L38.3,49.9a45.743,45.743,0,0,1,5.616-7.715" transform="translate(26.346 31.471)" fill="#ffc27e"/>
          <path id="Trazado_874109" data-name="Trazado 874109" d="M47.207,45.653l-7.25-6.527a45.783,45.783,0,0,0-5.618,7.715l8.451,4.878a36.033,36.033,0,0,1,4.417-6.066" transform="translate(30.307 34.531)" fill="#ffce97"/>
          <path id="Trazado_874110" data-name="Trazado 874110" d="M50.5,49.12l-7.25-6.527a36.138,36.138,0,0,0-4.417,6.066l8.451,4.878A26.388,26.388,0,0,1,50.5,49.12" transform="translate(34.269 37.591)" fill="#ffdab1"/>
          <path id="Trazado_874111" data-name="Trazado 874111" d="M53.783,52.588l-7.25-6.527a26.236,26.236,0,0,0-3.215,4.417l8.451,4.88a16.321,16.321,0,0,1,2.014-2.769" transform="translate(38.231 40.652)" fill="#ffe6ca"/>
          <path id="Trazado_874112" data-name="Trazado 874112" d="M56.257,57.175a6.687,6.687,0,0,1,.815-1.12l-7.25-6.527A16.5,16.5,0,0,0,47.806,52.3Z" transform="translate(42.192 43.712)" fill="#fff2e3"/>
          <path id="Trazado_874113" data-name="Trazado 874113" d="M20.029,32.558,11.58,27.68A104.592,104.592,0,0,0,2.7,47.569l9.281,3.016a94.684,94.684,0,0,1,8.046-18.027" transform="translate(2.385 24.429)" fill="#ff9300"/>
          <path id="Trazado_874114" data-name="Trazado 874114" d="M24.127,35.149l-8.449-4.878A94.8,94.8,0,0,0,7.632,48.3l9.279,3.014a84.991,84.991,0,0,1,7.216-16.164" transform="translate(6.736 26.716)" fill="#ff9e19"/>
          <path id="Trazado_874115" data-name="Trazado 874115" d="M28.225,37.74l-8.449-4.878A85.109,85.109,0,0,0,12.56,49.026l9.281,3.016a75.083,75.083,0,0,1,6.384-14.3" transform="translate(11.085 29.003)" fill="#ffa832"/>
          <path id="Trazado_874116" data-name="Trazado 874116" d="M32.323,40.331l-8.449-4.878a75.318,75.318,0,0,0-6.384,14.3l9.279,3.016a65.471,65.471,0,0,1,5.554-12.44" transform="translate(15.436 31.29)" fill="#ffb34c"/>
          <path id="Trazado_874117" data-name="Trazado 874117" d="M36.421,42.922l-8.449-4.878a65.344,65.344,0,0,0-5.552,12.44L31.7,53.5a55.6,55.6,0,0,1,4.721-10.576" transform="translate(19.787 33.576)" fill="#ffbe65"/>
          <path id="Trazado_874118" data-name="Trazado 874118" d="M40.519,45.513,32.07,40.635a55.717,55.717,0,0,0-4.721,10.576l9.279,3.016a45.635,45.635,0,0,1,3.891-8.714" transform="translate(24.137 35.863)" fill="#ffc87e"/>
          <path id="Trazado_874119" data-name="Trazado 874119" d="M44.616,48.1l-8.449-4.878a45.86,45.86,0,0,0-3.889,8.714l9.279,3.016A36.078,36.078,0,0,1,44.616,48.1" transform="translate(28.488 38.15)" fill="#ffd397"/>
          <path id="Trazado_874120" data-name="Trazado 874120" d="M48.714,50.695l-8.449-4.878a36.069,36.069,0,0,0-3.057,6.853l9.279,3.014a26.207,26.207,0,0,1,2.227-4.989" transform="translate(32.839 40.437)" fill="#ffdeb1"/>
          <path id="Trazado_874121" data-name="Trazado 874121" d="M52.813,53.286l-8.449-4.878A26.223,26.223,0,0,0,42.137,53.4l9.281,3.014a16.469,16.469,0,0,1,1.395-3.127" transform="translate(37.189 42.723)" fill="#ffe8ca"/>
          <path id="Trazado_874122" data-name="Trazado 874122" d="M56.346,57.142a6.674,6.674,0,0,1,.565-1.265L48.462,51a16.4,16.4,0,0,0-1.395,3.127Z" transform="translate(41.54 45.01)" fill="#fff3e3"/>
          <path id="Trazado_874123" data-name="Trazado 874123" d="M14.123,41.263,4.846,38.249A104.59,104.59,0,0,0,.3,59.55L10,60.569a94.824,94.824,0,0,1,4.123-19.306" transform="translate(0.261 33.757)" fill="#ffb200"/>
          <path id="Trazado_874124" data-name="Trazado 874124" d="M18.851,42.864,9.574,39.85A94.7,94.7,0,0,0,5.451,59.156l9.7,1.02a85.082,85.082,0,0,1,3.7-17.312" transform="translate(4.811 35.17)" fill="#ffba19"/>
          <path id="Trazado_874125" data-name="Trazado 874125" d="M23.581,44.466,14.3,41.452a84.964,84.964,0,0,0-3.7,17.31l9.7,1.02a75.221,75.221,0,0,1,3.272-15.317" transform="translate(9.361 36.584)" fill="#ffc132"/>
          <path id="Trazado_874126" data-name="Trazado 874126" d="M28.309,46.067l-9.277-3.014A75.2,75.2,0,0,0,15.76,58.37l9.7,1.02a65.32,65.32,0,0,1,2.845-13.323" transform="translate(13.909 37.997)" fill="#ffc94c"/>
          <path id="Trazado_874127" data-name="Trazado 874127" d="M33.038,47.668,23.76,44.654a65.435,65.435,0,0,0-2.846,13.321l9.7,1.02a55.687,55.687,0,0,1,2.419-11.327" transform="translate(18.458 39.41)" fill="#ffd065"/>
          <path id="Trazado_874128" data-name="Trazado 874128" d="M37.766,49.27l-9.277-3.014A55.534,55.534,0,0,0,26.07,57.583l9.7,1.02a45.917,45.917,0,0,1,1.994-9.334" transform="translate(23.009 40.824)" fill="#ffd87e"/>
          <path id="Trazado_874129" data-name="Trazado 874129" d="M42.495,50.871l-9.277-3.014a45.674,45.674,0,0,0-1.994,9.332l9.7,1.02a35.926,35.926,0,0,1,1.566-7.338" transform="translate(27.557 42.237)" fill="#ffdf97"/>
          <path id="Trazado_874130" data-name="Trazado 874130" d="M47.223,52.472l-9.277-3.014A36.057,36.057,0,0,0,36.378,56.8l9.7,1.018a26.165,26.165,0,0,1,1.141-5.343" transform="translate(32.106 43.65)" fill="#ffe7b1"/>
          <path id="Trazado_874131" data-name="Trazado 874131" d="M51.952,54.074,42.675,51.06A26.166,26.166,0,0,0,41.534,56.4l9.7,1.02a16.423,16.423,0,0,1,.715-3.349" transform="translate(36.657 45.064)" fill="#ffeeca"/>
          <path id="Trazado_874132" data-name="Trazado 874132" d="M56.393,57.029a6.631,6.631,0,0,1,.288-1.354L47.4,52.66a16.423,16.423,0,0,0-.715,3.349Z" transform="translate(41.205 46.476)" fill="#fff6e3"/>
          <path id="Trazado_874133" data-name="Trazado 874133" d="M10.281,50.584l-9.7-1.02A104.645,104.645,0,0,0,.558,71.345l9.7-1.02a94.786,94.786,0,0,1,.019-19.741" transform="translate(0 43.744)" fill="#ffd000"/>
          <path id="Trazado_874134" data-name="Trazado 874134" d="M15.409,51.126l-9.7-1.02a94.933,94.933,0,0,0-.019,19.742l9.7-1.02a85.075,85.075,0,0,1,.017-17.7" transform="translate(4.574 44.222)" fill="#ffd519"/>
          <path id="Trazado_874135" data-name="Trazado 874135" d="M20.537,51.668l-9.7-1.02a85.075,85.075,0,0,0-.017,17.7l9.7-1.018a75.234,75.234,0,0,1,.015-15.663" transform="translate(9.147 44.7)" fill="#ffd932"/>
          <path id="Trazado_874136" data-name="Trazado 874136" d="M25.665,52.209l-9.7-1.02a75.233,75.233,0,0,0-.013,15.663l9.7-1.02a65.375,65.375,0,0,1,.013-13.622" transform="translate(13.722 45.178)" fill="#ffde4c"/>
          <path id="Trazado_874137" data-name="Trazado 874137" d="M30.793,52.751l-9.7-1.02a65.521,65.521,0,0,0-.011,13.624l9.7-1.02a55.665,55.665,0,0,1,.011-11.583" transform="translate(18.295 45.656)" fill="#ffe365"/>
          <path id="Trazado_874138" data-name="Trazado 874138" d="M35.922,53.293l-9.7-1.02a55.794,55.794,0,0,0-.011,11.583l9.7-1.02a45.806,45.806,0,0,1,.009-9.543" transform="translate(22.869 46.134)" fill="#ffe77e"/>
          <path id="Trazado_874139" data-name="Trazado 874139" d="M41.049,53.834l-9.7-1.02a45.824,45.824,0,0,0-.009,9.545l9.7-1.02a36.094,36.094,0,0,1,.008-7.5" transform="translate(27.443 46.612)" fill="#ffec97"/>
          <path id="Trazado_874140" data-name="Trazado 874140" d="M46.178,54.376l-9.7-1.02a35.964,35.964,0,0,0-.006,7.5l9.7-1.02a26.236,26.236,0,0,1,.006-5.463" transform="translate(32.016 47.09)" fill="#fff1b1"/>
          <path id="Trazado_874141" data-name="Trazado 874141" d="M51.306,54.918,41.6,53.9a26.252,26.252,0,0,0,0,5.465l9.7-1.02a16.525,16.525,0,0,1,0-3.424" transform="translate(36.591 47.569)" fill="#fff5ca"/>
          <path id="Trazado_874142" data-name="Trazado 874142" d="M56.433,56.844a6.557,6.557,0,0,1,0-1.386l-9.7-1.018a16.525,16.525,0,0,0,0,3.424Z" transform="translate(41.165 48.047)" fill="#fffae3"/>
          <path id="Trazado_874143" data-name="Trazado 874143" d="M10.01,60.592l-9.7,1.02A104.668,104.668,0,0,0,4.816,82.921l9.279-3.016A94.852,94.852,0,0,1,10.01,60.592" transform="translate(0.271 53.477)" fill="#ffdf00"/>
          <path id="Trazado_874144" data-name="Trazado 874144" d="M15.164,60.05l-9.7,1.02A94.754,94.754,0,0,0,9.548,80.384l9.279-3.014a85.011,85.011,0,0,1-3.663-17.32" transform="translate(4.82 52.998)" fill="#ffe219"/>
          <path id="Trazado_874145" data-name="Trazado 874145" d="M20.317,59.508l-9.7,1.02a85.246,85.246,0,0,0,3.663,17.318l9.281-3.014a75.224,75.224,0,0,1-3.242-15.324" transform="translate(9.368 52.52)" fill="#ffe532"/>
          <path id="Trazado_874146" data-name="Trazado 874146" d="M25.471,58.967l-9.7,1.02A75.333,75.333,0,0,0,19.01,75.31l9.281-3.016a65.419,65.419,0,0,1-2.82-13.327" transform="translate(13.916 52.042)" fill="#ffe84c"/>
          <path id="Trazado_874147" data-name="Trazado 874147" d="M30.624,58.425l-9.7,1.02a65.446,65.446,0,0,0,2.82,13.327l9.279-3.014a55.676,55.676,0,0,1-2.4-11.333" transform="translate(18.464 51.564)" fill="#ffeb65"/>
          <path id="Trazado_874148" data-name="Trazado 874148" d="M35.778,57.883l-9.7,1.022a55.614,55.614,0,0,0,2.4,11.329l9.279-3.012a45.908,45.908,0,0,1-1.975-9.339" transform="translate(23.013 51.086)" fill="#ffef7e"/>
          <path id="Trazado_874149" data-name="Trazado 874149" d="M40.93,57.342l-9.7,1.02A45.745,45.745,0,0,0,33.2,67.7l9.279-3.014a36,36,0,0,1-1.553-7.342" transform="translate(27.562 50.608)" fill="#fff297"/>
          <path id="Trazado_874150" data-name="Trazado 874150" d="M46.085,56.8l-9.7,1.02a36.084,36.084,0,0,0,1.553,7.34l9.281-3.014A26.37,26.37,0,0,1,46.085,56.8" transform="translate(32.11 50.13)" fill="#fff5b1"/>
          <path id="Trazado_874151" data-name="Trazado 874151" d="M51.239,56.258l-9.7,1.022a26.28,26.28,0,0,0,1.131,5.343l9.281-3.014a16.43,16.43,0,0,1-.71-3.351" transform="translate(36.658 49.652)" fill="#fff8ca"/>
          <path id="Trazado_874152" data-name="Trazado 874152" d="M56.679,57.071a6.668,6.668,0,0,1-.286-1.355l-9.7,1.02a16.457,16.457,0,0,0,.71,3.351Z" transform="translate(41.207 49.173)" fill="#fffbe3"/>
          <path id="Trazado_874153" data-name="Trazado 874153" d="M11.99,70.848,2.713,73.862A104.67,104.67,0,0,0,11.552,93.77L20,88.891A94.7,94.7,0,0,1,11.99,70.848" transform="translate(2.394 62.528)" fill="#ffed00"/>
          <path id="Trazado_874154" data-name="Trazado 874154" d="M16.918,69.247,7.641,72.261A94.936,94.936,0,0,0,15.653,90.3L24.1,85.426a85.031,85.031,0,0,1-7.184-16.179" transform="translate(6.744 61.115)" fill="#ffef19"/>
          <path id="Trazado_874155" data-name="Trazado 874155" d="M21.847,67.645,12.57,70.659a85.029,85.029,0,0,0,7.184,16.179L28.2,81.96a75.246,75.246,0,0,1-6.357-14.315" transform="translate(11.094 59.701)" fill="#fff132"/>
          <path id="Trazado_874156" data-name="Trazado 874156" d="M26.775,66.044,17.5,69.058a75.189,75.189,0,0,0,6.356,14.315l8.451-4.88a65.388,65.388,0,0,1-5.529-12.449" transform="translate(15.443 58.288)" fill="#fff24c"/>
          <path id="Trazado_874157" data-name="Trazado 874157" d="M31.7,64.443l-9.277,3.014a65.4,65.4,0,0,0,5.527,12.451l8.451-4.88a55.547,55.547,0,0,1-4.7-10.586" transform="translate(19.792 56.875)" fill="#fff465"/>
          <path id="Trazado_874158" data-name="Trazado 874158" d="M36.632,62.841l-9.277,3.016a55.67,55.67,0,0,0,4.7,10.588l8.451-4.88a45.782,45.782,0,0,1-3.874-8.724" transform="translate(24.143 55.461)" fill="#fff67e"/>
          <path id="Trazado_874159" data-name="Trazado 874159" d="M41.56,61.24l-9.277,3.014a45.706,45.706,0,0,0,3.872,8.722L44.606,68.1A35.977,35.977,0,0,1,41.56,61.24" transform="translate(28.492 54.048)" fill="#fff897"/>
          <path id="Trazado_874160" data-name="Trazado 874160" d="M46.488,59.639l-9.277,3.014a36.089,36.089,0,0,0,3.044,6.858l8.451-4.88a26.236,26.236,0,0,1-2.218-4.993" transform="translate(32.841 52.635)" fill="#fff9b1"/>
          <path id="Trazado_874161" data-name="Trazado 874161" d="M51.417,58.037,42.14,61.053a26.3,26.3,0,0,0,2.218,4.994l8.449-4.88a16.53,16.53,0,0,1-1.389-3.131" transform="translate(37.191 51.222)" fill="#fffbca"/>
          <path id="Trazado_874162" data-name="Trazado 874162" d="M56.908,57.7a6.787,6.787,0,0,1-.563-1.265L47.068,59.45a16.513,16.513,0,0,0,1.389,3.129Z" transform="translate(41.541 49.809)" fill="#fffde3"/>
          <path id="Trazado_874163" data-name="Trazado 874163" d="M15.867,80.427,7.418,85.3A104.623,104.623,0,0,0,20.2,102.939l7.252-6.529A94.774,94.774,0,0,1,15.867,80.427" transform="translate(6.547 70.982)" fill="#dced00"/>
          <path id="Trazado_874164" data-name="Trazado 874164" d="M20.355,77.836l-8.449,4.878A94.879,94.879,0,0,0,23.5,98.7l7.252-6.529A85.136,85.136,0,0,1,20.355,77.836" transform="translate(10.508 68.696)" fill="#dfef19"/>
          <path id="Trazado_874165" data-name="Trazado 874165" d="M24.842,75.245l-8.449,4.878A85.136,85.136,0,0,0,26.785,94.455l7.252-6.531a75.2,75.2,0,0,1-9.194-12.679" transform="translate(14.468 66.409)" fill="#e3f132"/>
          <path id="Trazado_874166" data-name="Trazado 874166" d="M29.33,72.654l-8.449,4.878a75.2,75.2,0,0,0,9.194,12.679l7.252-6.529a65.346,65.346,0,0,1-8-11.028" transform="translate(18.429 64.122)" fill="#e6f24c"/>
          <path id="Trazado_874167" data-name="Trazado 874167" d="M33.818,70.063l-8.449,4.878a65.451,65.451,0,0,0,8,11.028l7.252-6.529a55.6,55.6,0,0,1-6.8-9.377" transform="translate(22.39 61.835)" fill="#eaf465"/>
          <path id="Trazado_874168" data-name="Trazado 874168" d="M38.306,67.472,29.857,72.35a55.594,55.594,0,0,0,6.8,9.377L43.907,75.2a45.849,45.849,0,0,1-5.6-7.726" transform="translate(26.351 59.549)" fill="#edf67e"/>
          <path id="Trazado_874169" data-name="Trazado 874169" d="M42.793,64.881l-8.449,4.878a45.962,45.962,0,0,0,5.6,7.726L47.2,70.956a36.114,36.114,0,0,1-4.405-6.075" transform="translate(30.311 57.262)" fill="#f1f897"/>
          <path id="Trazado_874170" data-name="Trazado 874170" d="M47.281,62.29l-8.449,4.878a36.115,36.115,0,0,0,4.405,6.075l7.252-6.529a26.3,26.3,0,0,1-3.208-4.424" transform="translate(34.272 54.975)" fill="#f4f9b1"/>
          <path id="Trazado_874171" data-name="Trazado 874171" d="M51.769,59.7,43.32,64.577A26.3,26.3,0,0,0,46.528,69l7.252-6.529A16.447,16.447,0,0,1,51.769,59.7" transform="translate(38.233 52.688)" fill="#f8fbca"/>
          <path id="Trazado_874172" data-name="Trazado 874172" d="M57.069,58.227a6.521,6.521,0,0,1-.813-1.118l-8.449,4.878a16.721,16.721,0,0,0,2.011,2.771Z" transform="translate(42.193 50.403)" fill="#fbfde3"/>
          <path id="Trazado_874173" data-name="Trazado 874173" d="M21.468,88.91l-7.25,6.527a104.638,104.638,0,0,0,16.173,14.592l5.734-7.9A94.774,94.774,0,0,1,21.468,88.91" transform="translate(12.548 78.469)" fill="#badf00"/>
          <path id="Trazado_874174" data-name="Trazado 874174" d="M25.319,85.442l-7.25,6.527a94.788,94.788,0,0,0,14.658,13.225L38.463,97.3A85.046,85.046,0,0,1,25.319,85.442" transform="translate(15.947 75.408)" fill="#c1e219"/>
          <path id="Trazado_874175" data-name="Trazado 874175" d="M29.17,81.975,21.92,88.5A84.95,84.95,0,0,0,35.064,100.36L40.8,92.467A75.282,75.282,0,0,1,29.17,81.975" transform="translate(19.346 72.349)" fill="#c8e532"/>
          <path id="Trazado_874176" data-name="Trazado 874176" d="M33.021,78.508l-7.25,6.527A75.281,75.281,0,0,0,37.4,95.526l5.736-7.894a65.369,65.369,0,0,1-10.115-9.125" transform="translate(22.745 69.289)" fill="#cee84c"/>
          <path id="Trazado_874177" data-name="Trazado 874177" d="M36.872,75.04l-7.25,6.527a65.359,65.359,0,0,0,10.115,9.125L45.471,82.8a55.6,55.6,0,0,1-8.6-7.758" transform="translate(26.143 66.228)" fill="#d5eb65"/>
          <path id="Trazado_874178" data-name="Trazado 874178" d="M40.723,71.573,33.473,78.1a55.545,55.545,0,0,0,8.6,7.76l5.734-7.894a45.876,45.876,0,0,1-7.086-6.393" transform="translate(29.542 63.168)" fill="#dcef7e"/>
          <path id="Trazado_874179" data-name="Trazado 874179" d="M44.574,68.1l-7.25,6.527a45.781,45.781,0,0,0,7.086,6.393l5.736-7.894A36.137,36.137,0,0,1,44.574,68.1" transform="translate(32.941 60.107)" fill="#e3f297"/>
          <path id="Trazado_874180" data-name="Trazado 874180" d="M48.425,64.638l-7.25,6.527a35.945,35.945,0,0,0,5.572,5.026L52.482,68.3a26.19,26.19,0,0,1-4.057-3.66" transform="translate(36.34 57.047)" fill="#e9f5b1"/>
          <path id="Trazado_874181" data-name="Trazado 874181" d="M52.276,61.171,45.026,67.7a26.189,26.189,0,0,0,4.057,3.66l5.736-7.894a16.362,16.362,0,0,1-2.543-2.293" transform="translate(39.738 53.988)" fill="#f0f8ca"/>
          <path id="Trazado_874182" data-name="Trazado 874182" d="M57.155,58.63a6.694,6.694,0,0,1-1.028-.926l-7.25,6.527a16.362,16.362,0,0,0,2.543,2.293Z" transform="translate(43.137 50.928)" fill="#f7fbe3"/>
          <path id="Trazado_874183" data-name="Trazado 874183" d="M28.549,95.926l-5.734,7.892a104.586,104.586,0,0,0,18.852,10.909l3.968-8.914a94.825,94.825,0,0,1-17.086-9.887" transform="translate(20.136 84.661)" fill="#70c700"/>
          <path id="Trazado_874184" data-name="Trazado 874184" d="M31.6,91.734l-5.734,7.892a94.839,94.839,0,0,0,17.088,9.887l3.968-8.914A84.964,84.964,0,0,1,31.6,91.734" transform="translate(22.824 80.961)" fill="#7ecd19"/>
          <path id="Trazado_874185" data-name="Trazado 874185" d="M34.641,87.541l-5.734,7.892A85.041,85.041,0,0,0,44.229,104.3L48.2,95.386a75.227,75.227,0,0,1-13.556-7.845" transform="translate(25.512 77.261)" fill="#8cd232"/>
          <path id="Trazado_874186" data-name="Trazado 874186" d="M37.687,83.349l-5.734,7.892a75.228,75.228,0,0,0,13.556,7.845l3.968-8.914a65.354,65.354,0,0,1-11.791-6.822" transform="translate(28.201 73.561)" fill="#9ad84c"/>
          <path id="Trazado_874187" data-name="Trazado 874187" d="M40.733,79.157,35,87.049A65.354,65.354,0,0,0,46.79,93.871l3.97-8.914a55.493,55.493,0,0,1-10.027-5.8" transform="translate(30.889 69.861)" fill="#a8dd65"/>
          <path id="Trazado_874188" data-name="Trazado 874188" d="M43.779,74.964l-5.734,7.892a55.616,55.616,0,0,0,10.027,5.8l3.968-8.914a45.918,45.918,0,0,1-8.261-4.78" transform="translate(33.577 66.161)" fill="#b7e37e"/>
          <path id="Trazado_874189" data-name="Trazado 874189" d="M46.825,70.772l-5.734,7.892a45.918,45.918,0,0,0,8.261,4.78L53.32,74.53a36.043,36.043,0,0,1-6.495-3.758" transform="translate(36.266 62.461)" fill="#c5e897"/>
          <path id="Trazado_874190" data-name="Trazado 874190" d="M49.87,66.58l-5.734,7.892a35.932,35.932,0,0,0,6.495,3.758L54.6,69.317A26.242,26.242,0,0,1,49.87,66.58" transform="translate(38.953 58.761)" fill="#d3eeb1"/>
          <path id="Trazado_874191" data-name="Trazado 874191" d="M52.916,62.388,47.182,70.28a26.241,26.241,0,0,0,4.729,2.737L55.879,64.1a16.434,16.434,0,0,1-2.963-1.715" transform="translate(41.641 55.062)" fill="#e1f3ca"/>
          <path id="Trazado_874192" data-name="Trazado 874192" d="M57.161,58.887a6.675,6.675,0,0,1-1.2-.691l-5.734,7.892A16.385,16.385,0,0,0,53.193,67.8Z" transform="translate(44.33 51.362)" fill="#eff9e3"/>
          <path id="Trazado_874193" data-name="Trazado 874193" d="M36.8,101.169l-3.968,8.912a104.654,104.654,0,0,0,20.71,6.751l2.028-9.545A94.714,94.714,0,0,1,36.8,101.169" transform="translate(28.978 89.289)" fill="#3bbe00"/>
          <path id="Trazado_874194" data-name="Trazado 874194" d="M38.91,96.435l-3.968,8.912a94.755,94.755,0,0,0,18.769,6.118l2.029-9.545a85.036,85.036,0,0,1-16.83-5.486" transform="translate(30.839 85.11)" fill="#4ec419"/>
          <path id="Trazado_874195" data-name="Trazado 874195" d="M41.017,91.7l-3.968,8.912a85.077,85.077,0,0,0,16.83,5.486l2.029-9.545A75.112,75.112,0,0,1,41.017,91.7" transform="translate(32.698 80.932)" fill="#62cb32"/>
          <path id="Trazado_874196" data-name="Trazado 874196" d="M43.125,86.967l-3.968,8.912a75.111,75.111,0,0,0,14.891,4.853l2.029-9.543a65.444,65.444,0,0,1-12.952-4.223" transform="translate(34.559 76.754)" fill="#75d14c"/>
          <path id="Trazado_874197" data-name="Trazado 874197" d="M45.233,82.233l-3.968,8.912a65.443,65.443,0,0,0,12.952,4.223l2.029-9.545a55.6,55.6,0,0,1-11.013-3.59" transform="translate(36.419 72.576)" fill="#88d865"/>
          <path id="Trazado_874198" data-name="Trazado 874198" d="M47.34,77.5l-3.968,8.912A55.642,55.642,0,0,0,54.385,90l2.029-9.545A45.8,45.8,0,0,1,47.34,77.5" transform="translate(38.279 68.398)" fill="#9cde7e"/>
          <path id="Trazado_874199" data-name="Trazado 874199" d="M49.448,72.765,45.48,81.677a45.841,45.841,0,0,0,9.074,2.958l2.029-9.545a36,36,0,0,1-7.135-2.325" transform="translate(40.139 64.22)" fill="#afe597"/>
          <path id="Trazado_874200" data-name="Trazado 874200" d="M51.556,68.031l-3.968,8.912a36.041,36.041,0,0,0,7.135,2.325l2.028-9.545a26.1,26.1,0,0,1-5.194-1.692" transform="translate(42 60.042)" fill="#c2ebb1"/>
          <path id="Trazado_874201" data-name="Trazado 874201" d="M53.663,63.3l-3.968,8.912a26.119,26.119,0,0,0,5.2,1.692l2.029-9.543A16.53,16.53,0,0,1,53.663,63.3" transform="translate(43.859 55.864)" fill="#d6f2ca"/>
          <path id="Trazado_874202" data-name="Trazado 874202" d="M57.089,58.992a6.608,6.608,0,0,1-1.318-.429L51.8,67.475a16.556,16.556,0,0,0,3.255,1.062Z" transform="translate(45.72 51.686)" fill="#e9f8e3"/>
          <path id="Trazado_874203" data-name="Trazado 874203" d="M45.865,104.409l-2.028,9.543a104.539,104.539,0,0,0,21.659,2.3v-9.757a94.693,94.693,0,0,1-19.631-2.082" transform="translate(38.689 92.148)" fill="#00b600"/>
          <path id="Trazado_874204" data-name="Trazado 874204" d="M46.943,99.34l-2.029,9.543a94.822,94.822,0,0,0,19.631,2.082v-9.757a84.944,84.944,0,0,1-17.6-1.868" transform="translate(39.64 87.674)" fill="#19bd19"/>
          <path id="Trazado_874205" data-name="Trazado 874205" d="M48.02,94.271l-2.028,9.543a85.088,85.088,0,0,0,17.6,1.868V95.924A75.241,75.241,0,0,1,48.02,94.271" transform="translate(40.591 83.201)" fill="#32c432"/>
          <path id="Trazado_874206" data-name="Trazado 874206" d="M49.1,89.2l-2.028,9.543A75.1,75.1,0,0,0,62.643,100.4V90.639A65.393,65.393,0,0,1,49.1,89.2" transform="translate(41.542 78.728)" fill="#4ccc4c"/>
          <path id="Trazado_874207" data-name="Trazado 874207" d="M50.175,84.134l-2.028,9.543a65.375,65.375,0,0,0,13.545,1.436V85.356a55.671,55.671,0,0,1-11.518-1.222" transform="translate(42.493 74.254)" fill="#65d365"/>
          <path id="Trazado_874208" data-name="Trazado 874208" d="M51.252,79.065l-2.028,9.543A55.645,55.645,0,0,0,60.742,89.83V80.072a45.926,45.926,0,0,1-9.49-1.007" transform="translate(43.444 69.78)" fill="#7eda7e"/>
          <path id="Trazado_874209" data-name="Trazado 874209" d="M52.33,74,50.3,83.539a45.82,45.82,0,0,0,9.49,1.005V74.789A35.934,35.934,0,0,1,52.33,74" transform="translate(44.394 65.306)" fill="#97e197"/>
          <path id="Trazado_874210" data-name="Trazado 874210" d="M53.407,68.928l-2.028,9.543a36.059,36.059,0,0,0,7.461.791V69.5a26.212,26.212,0,0,1-5.433-.576" transform="translate(45.345 60.834)" fill="#b1e9b1"/>
          <path id="Trazado_874211" data-name="Trazado 874211" d="M54.484,63.859,52.456,73.4a26.211,26.211,0,0,0,5.433.576V64.22a16.5,16.5,0,0,1-3.406-.361" transform="translate(46.296 56.36)" fill="#caf0ca"/>
          <path id="Trazado_874212" data-name="Trazado 874212" d="M56.939,58.936a6.659,6.659,0,0,1-1.378-.145l-2.028,9.541a16.367,16.367,0,0,0,3.406.361Z" transform="translate(47.247 51.887)" fill="#e3f7e3"/>
          <path id="Trazado_874213" data-name="Trazado 874213" d="M55.342,106.463v9.755a104.627,104.627,0,0,0,21.665-2.255l-2.029-9.545a94.774,94.774,0,0,1-19.635,2.044" transform="translate(48.843 92.157)" fill="#00bd4f"/>
          <path id="Trazado_874214" data-name="Trazado 874214" d="M55.342,101.183v9.755a94.774,94.774,0,0,0,19.635-2.044l-2.029-9.545a85.019,85.019,0,0,1-17.606,1.834" transform="translate(48.843 87.682)" fill="#19c460"/>
          <path id="Trazado_874215" data-name="Trazado 874215" d="M55.342,95.9v9.755a85.019,85.019,0,0,0,17.606-1.834L70.92,94.279A75.182,75.182,0,0,1,55.342,95.9" transform="translate(48.843 83.208)" fill="#32ca72"/>
          <path id="Trazado_874216" data-name="Trazado 874216" d="M55.342,90.62v9.755A75.182,75.182,0,0,0,70.92,98.753L68.891,89.21a65.429,65.429,0,0,1-13.549,1.41" transform="translate(48.843 78.734)" fill="#4cd183"/>
          <path id="Trazado_874217" data-name="Trazado 874217" d="M55.342,85.339v9.755a65.3,65.3,0,0,0,13.549-1.412L66.863,84.14a55.72,55.72,0,0,1-11.521,1.2" transform="translate(48.843 74.259)" fill="#65d794"/>
          <path id="Trazado_874218" data-name="Trazado 874218" d="M55.342,80.058v9.755a55.721,55.721,0,0,0,11.521-1.2L64.834,79.07a45.838,45.838,0,0,1-9.492.988" transform="translate(48.843 69.785)" fill="#7edea6"/>
          <path id="Trazado_874219" data-name="Trazado 874219" d="M55.342,74.777v9.755a45.838,45.838,0,0,0,9.492-.988L62.8,74a36.086,36.086,0,0,1-7.462.777" transform="translate(48.843 65.31)" fill="#97e4b7"/>
          <path id="Trazado_874220" data-name="Trazado 874220" d="M55.342,69.5v9.755a35.956,35.956,0,0,0,7.462-.777L60.777,68.93a26.236,26.236,0,0,1-5.435.567" transform="translate(48.843 60.835)" fill="#b1ebc8"/>
          <path id="Trazado_874221" data-name="Trazado 874221" d="M55.342,64.216v9.755a26.235,26.235,0,0,0,5.435-.567L58.748,63.86a16.368,16.368,0,0,1-3.406.356" transform="translate(48.843 56.361)" fill="#caf1da"/>
          <path id="Trazado_874222" data-name="Trazado 874222" d="M56.72,58.791a6.645,6.645,0,0,1-1.378.143V68.69a16.513,16.513,0,0,0,3.407-.354Z" transform="translate(48.843 51.887)" fill="#e3f8eb"/>
          <path id="Trazado_874223" data-name="Trazado 874223" d="M65.77,107.261,67.8,116.8a104.61,104.61,0,0,0,20.721-6.711l-3.968-8.914a94.694,94.694,0,0,1-18.78,6.083" transform="translate(58.046 89.296)" fill="#00c6a0"/>
          <path id="Trazado_874224" data-name="Trazado 874224" d="M64.693,101.9l2.028,9.543A94.794,94.794,0,0,0,85.5,105.357l-3.968-8.914A85.124,85.124,0,0,1,64.693,101.9" transform="translate(57.096 85.117)" fill="#19cca9"/>
          <path id="Trazado_874225" data-name="Trazado 874225" d="M63.615,96.533l2.028,9.543a85.083,85.083,0,0,0,16.841-5.454l-3.968-8.914a75.289,75.289,0,0,1-14.9,4.825" transform="translate(56.145 80.939)" fill="#32d1b3"/>
          <path id="Trazado_874226" data-name="Trazado 874226" d="M62.538,91.17l2.028,9.543a75.09,75.09,0,0,0,14.9-4.827L75.5,86.974a65.416,65.416,0,0,1-12.96,4.2" transform="translate(55.194 76.76)" fill="#4cd7bc"/>
          <path id="Trazado_874227" data-name="Trazado 874227" d="M61.46,85.807l2.028,9.543a65.438,65.438,0,0,0,12.961-4.2l-3.97-8.914A55.545,55.545,0,0,1,61.46,85.807" transform="translate(54.243 72.581)" fill="#65ddc5"/>
          <path id="Trazado_874228" data-name="Trazado 874228" d="M60.383,80.444l2.028,9.543a55.687,55.687,0,0,0,11.021-3.569L69.463,77.5a45.77,45.77,0,0,1-9.08,2.941" transform="translate(53.292 68.402)" fill="#7ee2cf"/>
          <path id="Trazado_874229" data-name="Trazado 874229" d="M59.306,75.079l2.028,9.543a45.811,45.811,0,0,0,9.08-2.941l-3.968-8.912a36.013,36.013,0,0,1-7.139,2.31" transform="translate(52.342 64.224)" fill="#97e8d8"/>
          <path id="Trazado_874230" data-name="Trazado 874230" d="M58.228,69.717l2.028,9.543a35.982,35.982,0,0,0,7.139-2.314l-3.968-8.912a26.307,26.307,0,0,1-5.2,1.683" transform="translate(51.39 60.045)" fill="#b1eee1"/>
          <path id="Trazado_874231" data-name="Trazado 874231" d="M57.151,64.354,59.179,73.9a26.168,26.168,0,0,0,5.2-1.685L60.408,63.3a16.315,16.315,0,0,1-3.257,1.056" transform="translate(50.44 55.865)" fill="#caf3eb"/>
          <path id="Trazado_874232" data-name="Trazado 874232" d="M57.391,58.563a6.5,6.5,0,0,1-1.318.429L58.1,68.535a16.6,16.6,0,0,0,3.257-1.056Z" transform="translate(49.488 51.686)" fill="#e3f9f4"/>
          <path id="Trazado_874233" data-name="Trazado 874233" d="M75.742,105.788,79.71,114.7a104.612,104.612,0,0,0,18.873-10.872l-5.734-7.894a94.982,94.982,0,0,1-17.107,9.853" transform="translate(66.847 84.669)" fill="#00afcf"/>
          <path id="Trazado_874234" data-name="Trazado 874234" d="M73.635,100.578,77.6,109.49a94.8,94.8,0,0,0,17.105-9.855l-5.734-7.894a84.989,84.989,0,0,1-15.339,8.837" transform="translate(64.988 80.968)" fill="#19b7d4"/>
          <path id="Trazado_874235" data-name="Trazado 874235" d="M71.527,95.366l3.968,8.912a84.972,84.972,0,0,0,15.337-8.837L85.1,87.548a75.165,75.165,0,0,1-13.571,7.818" transform="translate(63.127 77.267)" fill="#32bfd9"/>
          <path id="Trazado_874236" data-name="Trazado 874236" d="M69.419,90.155l3.968,8.912a75.165,75.165,0,0,0,13.571-7.818l-5.736-7.894a65.391,65.391,0,0,1-11.8,6.8" transform="translate(61.267 73.566)" fill="#4cc7dd"/>
          <path id="Trazado_874237" data-name="Trazado 874237" d="M67.312,84.943l3.967,8.912a65.392,65.392,0,0,0,11.8-6.8l-5.736-7.894a55.663,55.663,0,0,1-10.034,5.781" transform="translate(59.407 69.866)" fill="#65cfe2"/>
          <path id="Trazado_874238" data-name="Trazado 874238" d="M65.2,79.733l3.968,8.912a55.631,55.631,0,0,0,10.036-5.781l-5.734-7.9a45.831,45.831,0,0,1-8.27,4.765" transform="translate(57.547 66.164)" fill="#7ed6e7"/>
          <path id="Trazado_874239" data-name="Trazado 874239" d="M63.1,74.521l3.968,8.912a45.92,45.92,0,0,0,8.268-4.763l-5.734-7.9a36.009,36.009,0,0,1-6.5,3.746" transform="translate(55.687 62.464)" fill="#97deec"/>
          <path id="Trazado_874240" data-name="Trazado 874240" d="M60.988,69.31l3.968,8.912a35.929,35.929,0,0,0,6.5-3.746l-5.734-7.894a26.3,26.3,0,0,1-4.735,2.728" transform="translate(53.826 58.763)" fill="#b1e6f0"/>
          <path id="Trazado_874241" data-name="Trazado 874241" d="M58.881,64.1l3.968,8.912a26.3,26.3,0,0,0,4.735-2.728l-5.736-7.894A16.411,16.411,0,0,1,58.881,64.1" transform="translate(51.966 55.063)" fill="#caeef5"/>
          <path id="Trazado_874242" data-name="Trazado 874242" d="M57.972,58.2a6.586,6.586,0,0,1-1.2.691L60.74,67.8a16.426,16.426,0,0,0,2.969-1.709Z" transform="translate(50.106 51.362)" fill="#e3f6fa"/>
          <path id="Trazado_874243" data-name="Trazado 874243" d="M84.823,102.112,90.557,110a104.641,104.641,0,0,0,16.2-14.558l-7.252-6.529a94.89,94.89,0,0,1-14.684,13.195" transform="translate(74.862 78.475)" fill="#009bcc"/>
          <path id="Trazado_874244" data-name="Trazado 874244" d="M81.777,97.281l5.734,7.892A94.888,94.888,0,0,0,102.2,91.978l-7.252-6.529A85.039,85.039,0,0,1,81.777,97.281" transform="translate(72.174 75.415)" fill="#19a5d1"/>
          <path id="Trazado_874245" data-name="Trazado 874245" d="M78.731,92.449l5.734,7.892A85.041,85.041,0,0,0,97.632,88.509L90.38,81.98A75.2,75.2,0,0,1,78.731,92.449" transform="translate(69.485 72.353)" fill="#32afd6"/>
          <path id="Trazado_874246" data-name="Trazado 874246" d="M75.685,87.618l5.734,7.892A75.106,75.106,0,0,0,93.069,85.041l-7.252-6.529a65.364,65.364,0,0,1-10.132,9.106" transform="translate(66.797 69.292)" fill="#4cb9db"/>
          <path id="Trazado_874247" data-name="Trazado 874247" d="M72.639,82.787l5.734,7.892a65.343,65.343,0,0,0,10.132-9.106l-7.252-6.529a55.419,55.419,0,0,1-8.615,7.743" transform="translate(64.109 66.231)" fill="#65c3e0"/>
          <path id="Trazado_874248" data-name="Trazado 874248" d="M69.593,77.954l5.734,7.892A55.676,55.676,0,0,0,83.942,78.1L76.69,71.576a45.752,45.752,0,0,1-7.1,6.378" transform="translate(61.421 63.171)" fill="#7ecce5"/>
          <path id="Trazado_874249" data-name="Trazado 874249" d="M66.548,73.123l5.734,7.892a45.752,45.752,0,0,0,7.1-6.378l-7.25-6.529a36.1,36.1,0,0,1-5.582,5.015" transform="translate(58.733 60.11)" fill="#97d6ea"/>
          <path id="Trazado_874250" data-name="Trazado 874250" d="M63.5,68.292l5.734,7.892a35.9,35.9,0,0,0,5.58-5.015l-7.25-6.529A26.251,26.251,0,0,1,63.5,68.292" transform="translate(56.045 57.049)" fill="#b1e0ef"/>
          <path id="Trazado_874251" data-name="Trazado 874251" d="M60.456,63.461l5.734,7.892A26.251,26.251,0,0,0,70.255,67.7L63,61.172a16.5,16.5,0,0,1-2.547,2.289" transform="translate(53.357 53.988)" fill="#caeaf4"/>
          <path id="Trazado_874252" data-name="Trazado 874252" d="M58.44,57.7a6.65,6.65,0,0,1-1.03.926l5.734,7.894a16.6,16.6,0,0,0,2.547-2.289Z" transform="translate(50.668 50.927)" fill="#e3f4f9"/>
          <path id="Trazado_874253" data-name="Trazado 874253" d="M92.615,96.392l7.25,6.527a104.668,104.668,0,0,0,12.82-17.608l-8.451-4.88a94.752,94.752,0,0,1-11.619,15.96" transform="translate(81.739 70.987)" fill="#0087c3"/>
          <path id="Trazado_874254" data-name="Trazado 874254" d="M88.764,92.151l7.25,6.527A94.919,94.919,0,0,0,107.633,82.72l-8.451-4.88A84.925,84.925,0,0,1,88.764,92.151" transform="translate(78.34 68.699)" fill="#1993c9"/>
          <path id="Trazado_874255" data-name="Trazado 874255" d="M84.913,87.911l7.25,6.527a84.912,84.912,0,0,0,10.418-14.309l-8.449-4.88a75.3,75.3,0,0,1-9.219,12.662" transform="translate(74.941 66.412)" fill="#329fcf"/>
          <path id="Trazado_874256" data-name="Trazado 874256" d="M81.062,83.671l7.25,6.527a75.143,75.143,0,0,0,9.219-12.662L89.08,72.658a65.5,65.5,0,0,1-8.018,11.013" transform="translate(71.543 64.126)" fill="#4cabd5"/>
          <path id="Trazado_874257" data-name="Trazado 874257" d="M77.211,79.43l7.25,6.527a65.5,65.5,0,0,0,8.018-11.013l-8.451-4.878a55.568,55.568,0,0,1-6.817,9.364" transform="translate(68.144 61.838)" fill="#65b7db"/>
          <path id="Trazado_874258" data-name="Trazado 874258" d="M73.36,75.19l7.25,6.527a55.492,55.492,0,0,0,6.817-9.364l-8.449-4.878A45.934,45.934,0,0,1,73.36,75.19" transform="translate(64.745 59.551)" fill="#7ec2e0"/>
          <path id="Trazado_874259" data-name="Trazado 874259" d="M69.509,70.95l7.25,6.527a45.783,45.783,0,0,0,5.618-7.715l-8.451-4.88a35.973,35.973,0,0,1-4.417,6.068" transform="translate(61.346 57.263)" fill="#97cee6"/>
          <path id="Trazado_874260" data-name="Trazado 874260" d="M65.659,66.709l7.248,6.527a35.93,35.93,0,0,0,4.417-6.066l-8.451-4.88a26.42,26.42,0,0,1-3.214,4.418" transform="translate(57.949 54.976)" fill="#b1daec"/>
          <path id="Trazado_874261" data-name="Trazado 874261" d="M61.807,62.469,69.057,69a26.236,26.236,0,0,0,3.215-4.416L63.821,59.7a16.322,16.322,0,0,1-2.014,2.769" transform="translate(54.549 52.689)" fill="#cae6f2"/>
          <path id="Trazado_874262" data-name="Trazado 874262" d="M58.771,57.108a6.687,6.687,0,0,1-.815,1.12l7.25,6.527a16.437,16.437,0,0,0,2.016-2.769Z" transform="translate(51.15 50.402)" fill="#e3f2f8"/>
          <path id="Trazado_874263" data-name="Trazado 874263" d="M98.778,88.878l8.449,4.878a104.593,104.593,0,0,0,8.878-19.889l-9.281-3.016a94.8,94.8,0,0,1-8.046,18.027" transform="translate(87.178 62.531)" fill="#0074bf"/>
          <path id="Trazado_874264" data-name="Trazado 874264" d="M94.29,85.414l8.449,4.878a94.8,94.8,0,0,0,8.046-18.027l-9.279-3.014A84.991,84.991,0,0,1,94.29,85.414" transform="translate(83.217 61.118)" fill="#1982c5"/>
          <path id="Trazado_874265" data-name="Trazado 874265" d="M89.8,81.95l8.449,4.878a85.11,85.11,0,0,0,7.216-16.164l-9.281-3.016A75.083,75.083,0,0,1,89.8,81.95" transform="translate(79.257 59.704)" fill="#3290cc"/>
          <path id="Trazado_874266" data-name="Trazado 874266" d="M85.315,78.486l8.449,4.878a75.318,75.318,0,0,0,6.384-14.3l-9.279-3.016a65.472,65.472,0,0,1-5.554,12.44" transform="translate(75.296 58.29)" fill="#4c9dd2"/>
          <path id="Trazado_874267" data-name="Trazado 874267" d="M80.827,75.021,89.276,79.9a65.344,65.344,0,0,0,5.552-12.44l-9.279-3.014a55.6,55.6,0,0,1-4.721,10.576" transform="translate(71.335 56.877)" fill="#65abd8"/>
          <path id="Trazado_874268" data-name="Trazado 874268" d="M76.34,71.557l8.449,4.878A55.719,55.719,0,0,0,89.51,65.859l-9.281-3.016a45.861,45.861,0,0,1-3.889,8.714" transform="translate(67.375 55.463)" fill="#7eb9df"/>
          <path id="Trazado_874269" data-name="Trazado 874269" d="M71.852,68.094,80.3,72.971a45.859,45.859,0,0,0,3.889-8.714l-9.279-3.016a36.079,36.079,0,0,1-3.059,6.853" transform="translate(63.414 54.049)" fill="#97c7e5"/>
          <path id="Trazado_874270" data-name="Trazado 874270" d="M67.364,64.629l8.449,4.878a36.07,36.07,0,0,0,3.057-6.853L69.591,59.64a26.207,26.207,0,0,1-2.227,4.989" transform="translate(59.453 52.636)" fill="#b1d4eb"/>
          <path id="Trazado_874271" data-name="Trazado 874271" d="M62.877,61.165l8.449,4.878a26.206,26.206,0,0,0,2.227-4.989l-9.281-3.016a16.468,16.468,0,0,1-1.395,3.127" transform="translate(55.493 51.222)" fill="#cae2f2"/>
          <path id="Trazado_874272" data-name="Trazado 874272" d="M58.953,56.436a6.674,6.674,0,0,1-.565,1.265l8.449,4.878a16.4,16.4,0,0,0,1.395-3.127Z" transform="translate(51.531 49.809)" fill="#e3f0f8"/>
          <path id="Trazado_874273" data-name="Trazado 874273" d="M103.043,79.9l9.277,3.014a104.572,104.572,0,0,0,4.55-21.3l-9.7-1.02A94.823,94.823,0,0,1,103.043,79.9" transform="translate(90.942 53.477)" fill="#0040ba"/>
          <path id="Trazado_874274" data-name="Trazado 874274" d="M98.115,77.363l9.277,3.014a94.7,94.7,0,0,0,4.123-19.306l-9.7-1.02a85.082,85.082,0,0,1-3.7,17.312" transform="translate(86.593 52.999)" fill="#1953c1"/>
          <path id="Trazado_874275" data-name="Trazado 874275" d="M93.186,74.826l9.277,3.014a84.965,84.965,0,0,0,3.7-17.31l-9.7-1.02a75.222,75.222,0,0,1-3.272,15.317" transform="translate(82.243 52.521)" fill="#3266c8"/>
          <path id="Trazado_874276" data-name="Trazado 874276" d="M88.258,72.29,97.535,75.3a75.2,75.2,0,0,0,3.272-15.317l-9.7-1.02A65.319,65.319,0,0,1,88.258,72.29" transform="translate(77.894 52.042)" fill="#4c79ce"/>
          <path id="Trazado_874277" data-name="Trazado 874277" d="M83.33,69.753l9.277,3.014a65.434,65.434,0,0,0,2.846-13.321l-9.7-1.02A55.714,55.714,0,0,1,83.33,69.753" transform="translate(73.544 51.565)" fill="#658cd5"/>
          <path id="Trazado_874278" data-name="Trazado 874278" d="M78.4,67.215l9.277,3.016A55.561,55.561,0,0,0,90.1,58.9l-9.7-1.018a45.882,45.882,0,0,1-1.994,9.33" transform="translate(69.194 51.087)" fill="#7e9edc"/>
          <path id="Trazado_874279" data-name="Trazado 874279" d="M73.473,64.68l9.277,3.014a45.673,45.673,0,0,0,1.994-9.332l-9.7-1.02a36.053,36.053,0,0,1-1.566,7.338" transform="translate(64.845 50.608)" fill="#97b1e3"/>
          <path id="Trazado_874280" data-name="Trazado 874280" d="M68.545,62.145l9.277,3.014A36.058,36.058,0,0,0,79.39,57.82l-9.7-1.02a26.158,26.158,0,0,1-1.141,5.345" transform="translate(60.496 50.13)" fill="#b1c4e9"/>
          <path id="Trazado_874281" data-name="Trazado 874281" d="M63.616,59.607l9.277,3.016a26.156,26.156,0,0,0,1.141-5.345l-9.7-1.02a16.369,16.369,0,0,1-.715,3.349" transform="translate(56.145 49.652)" fill="#cad7f0"/>
          <path id="Trazado_874282" data-name="Trazado 874282" d="M58.976,55.717a6.63,6.63,0,0,1-.288,1.354l9.277,3.016a16.422,16.422,0,0,0,.715-3.349Z" transform="translate(51.796 49.174)" fill="#e3eaf7"/>
          <path id="Trazado_874283" data-name="Trazado 874283" d="M105.223,70.325l9.7,1.02a104.644,104.644,0,0,0,.021-21.781l-9.7,1.02a94.787,94.787,0,0,1-.019,19.741" transform="translate(92.866 43.744)" fill="#0229ba"/>
          <path id="Trazado_874284" data-name="Trazado 874284" d="M100.07,68.827l9.7,1.02A94.931,94.931,0,0,0,109.79,50.1l-9.7,1.02a85.072,85.072,0,0,1-.015,17.7" transform="translate(88.319 44.221)" fill="#1b3ec1"/>
          <path id="Trazado_874285" data-name="Trazado 874285" d="M94.916,67.328l9.7,1.02a85.074,85.074,0,0,0,.017-17.7l-9.7,1.018a75.234,75.234,0,0,1-.015,15.663" transform="translate(83.77 44.699)" fill="#3453c8"/>
          <path id="Trazado_874286" data-name="Trazado 874286" d="M89.762,65.832l9.7,1.02a75.365,75.365,0,0,0,.015-15.663l-9.7,1.02a65.376,65.376,0,0,1-.013,13.622" transform="translate(79.221 45.178)" fill="#4d68ce"/>
          <path id="Trazado_874287" data-name="Trazado 874287" d="M84.609,64.334l9.7,1.02a65.655,65.655,0,0,0,.013-13.624l-9.7,1.02a55.664,55.664,0,0,1-.011,11.583" transform="translate(74.673 45.655)" fill="#667dd5"/>
          <path id="Trazado_874288" data-name="Trazado 874288" d="M79.455,62.835l9.7,1.022a55.681,55.681,0,0,0,.009-11.585l-9.7,1.022a45.788,45.788,0,0,1-.009,9.541" transform="translate(70.124 46.134)" fill="#7f93dc"/>
          <path id="Trazado_874289" data-name="Trazado 874289" d="M74.3,61.338l9.7,1.02a45.951,45.951,0,0,0,.008-9.545l-9.7,1.02a36.1,36.1,0,0,1-.008,7.5" transform="translate(65.577 46.612)" fill="#98a8e3"/>
          <path id="Trazado_874290" data-name="Trazado 874290" d="M69.148,59.84l9.7,1.02a35.965,35.965,0,0,0,.006-7.5l-9.7,1.02a26.366,26.366,0,0,1-.006,5.463" transform="translate(61.028 47.09)" fill="#b1bde9"/>
          <path id="Trazado_874291" data-name="Trazado 874291" d="M63.994,58.342l9.7,1.022a26.271,26.271,0,0,0,0-5.467L64,54.919a16.507,16.507,0,0,1,0,3.423" transform="translate(56.479 47.568)" fill="#cad2f0"/>
          <path id="Trazado_874292" data-name="Trazado 874292" d="M58.842,55.459a6.555,6.555,0,0,1,0,1.386l9.7,1.018a16.524,16.524,0,0,0,0-3.424Z" transform="translate(51.93 48.046)" fill="#e3e7f7"/>
          <path id="Trazado_874293" data-name="Trazado 874293" d="M107.138,60.574l9.7-1.02a104.668,104.668,0,0,0-4.509-21.309l-9.279,3.014a94.9,94.9,0,0,1,4.085,19.315" transform="translate(90.951 33.754)" fill="#4d22b3"/>
          <path id="Trazado_874294" data-name="Trazado 874294" d="M101.788,60.181l9.7-1.02A94.656,94.656,0,0,0,107.4,39.847l-9.279,3.016a84.968,84.968,0,0,1,3.665,17.318" transform="translate(86.6 35.168)" fill="#5f38bb"/>
          <path id="Trazado_874295" data-name="Trazado 874295" d="M96.436,59.787l9.7-1.02a85.121,85.121,0,0,0-3.665-17.318l-9.279,3.016a75.177,75.177,0,0,1,3.242,15.322" transform="translate(82.25 36.582)" fill="#704ec2"/>
          <path id="Trazado_874296" data-name="Trazado 874296" d="M91.084,59.393l9.7-1.02A75.3,75.3,0,0,0,97.545,43.05l-9.281,3.016a65.419,65.419,0,0,1,2.82,13.327" transform="translate(77.899 37.995)" fill="#8263ca"/>
          <path id="Trazado_874297" data-name="Trazado 874297" d="M85.732,59l9.7-1.02a65.449,65.449,0,0,0-2.82-13.327l-9.279,3.014A55.675,55.675,0,0,1,85.732,59" transform="translate(73.55 39.408)" fill="#9379d1"/>
          <path id="Trazado_874298" data-name="Trazado 874298" d="M80.381,58.606l9.7-1.02a55.66,55.66,0,0,0-2.4-11.331l-9.279,3.014a45.916,45.916,0,0,1,1.975,9.338" transform="translate(69.199 40.822)" fill="#a58fd9"/>
          <path id="Trazado_874299" data-name="Trazado 874299" d="M75.03,58.211l9.7-1.02a45.772,45.772,0,0,0-1.977-9.336l-9.279,3.016a35.958,35.958,0,0,1,1.553,7.34" transform="translate(64.848 42.235)" fill="#b6a5e0"/>
          <path id="Trazado_874300" data-name="Trazado 874300" d="M69.678,57.817l9.7-1.02a36.088,36.088,0,0,0-1.555-7.34l-9.279,3.016a26.326,26.326,0,0,1,1.131,5.345" transform="translate(60.497 43.649)" fill="#c8bae8"/>
          <path id="Trazado_874301" data-name="Trazado 874301" d="M64.327,57.424l9.7-1.02A26.325,26.325,0,0,0,72.9,51.059l-9.281,3.014a16.456,16.456,0,0,1,.71,3.351" transform="translate(56.146 45.063)" fill="#d9d0ef"/>
          <path id="Trazado_874302" data-name="Trazado 874302" d="M58.688,55.676a6.641,6.641,0,0,1,.286,1.355l9.7-1.02a16.456,16.456,0,0,0-.71-3.351Z" transform="translate(51.796 46.476)" fill="#ebe6f7"/>
          <path id="Trazado_874303" data-name="Trazado 874303" d="M106.8,50.6l9.277-3.014a104.671,104.671,0,0,0-8.839-19.908l-8.451,4.88A94.754,94.754,0,0,1,106.8,50.6" transform="translate(87.186 24.424)" fill="#7524af"/>
          <path id="Trazado_874304" data-name="Trazado 874304" d="M101.483,51.323l9.277-3.014a94.7,94.7,0,0,0-8.012-18.043L94.3,35.144a85.03,85.03,0,0,1,7.184,16.179" transform="translate(83.225 26.712)" fill="#833ab7"/>
          <path id="Trazado_874305" data-name="Trazado 874305" d="M96.166,52.051l9.277-3.014a85.028,85.028,0,0,0-7.184-16.179L89.81,37.736a75.36,75.36,0,0,1,6.356,14.315" transform="translate(79.263 28.999)" fill="#904fbf"/>
          <path id="Trazado_874306" data-name="Trazado 874306" d="M90.85,52.778l9.277-3.014a75.189,75.189,0,0,0-6.356-14.315l-8.451,4.88A65.389,65.389,0,0,1,90.85,52.778" transform="translate(75.302 31.286)" fill="#9e65c7"/>
          <path id="Trazado_874307" data-name="Trazado 874307" d="M85.534,53.505l9.277-3.014A65.288,65.288,0,0,0,89.282,38.04l-8.449,4.88a55.548,55.548,0,0,1,4.7,10.586" transform="translate(71.341 33.573)" fill="#ac7bcf"/>
          <path id="Trazado_874308" data-name="Trazado 874308" d="M80.216,54.234l9.277-3.014a55.618,55.618,0,0,0-4.7-10.588l-8.449,4.88a45.93,45.93,0,0,1,3.872,8.722" transform="translate(67.379 35.86)" fill="#b990d6"/>
          <path id="Trazado_874309" data-name="Trazado 874309" d="M74.9,54.96l9.277-3.014a45.707,45.707,0,0,0-3.872-8.722L71.855,48.1A35.976,35.976,0,0,1,74.9,54.96" transform="translate(63.417 38.148)" fill="#c7a6de"/>
          <path id="Trazado_874310" data-name="Trazado 874310" d="M69.585,55.687l9.277-3.014a36.088,36.088,0,0,0-3.044-6.858l-8.451,4.878a26.306,26.306,0,0,1,2.218,4.994" transform="translate(59.456 40.435)" fill="#d5bce6"/>
          <path id="Trazado_874311" data-name="Trazado 874311" d="M64.267,56.415,73.545,53.4a26.252,26.252,0,0,0-2.218-4.994l-8.449,4.88a16.513,16.513,0,0,1,1.389,3.129" transform="translate(55.494 42.722)" fill="#e2d1ee"/>
          <path id="Trazado_874312" data-name="Trazado 874312" d="M58.389,55.877a6.784,6.784,0,0,1,.563,1.265l9.277-3.014A16.512,16.512,0,0,0,66.84,51Z" transform="translate(51.532 45.01)" fill="#f0e7f6"/>
          <path id="Trazado_874313" data-name="Trazado 874313" d="M104.211,40.825l8.449-4.878A104.7,104.7,0,0,0,99.874,18.313l-7.252,6.529a94.775,94.775,0,0,1,11.589,15.983" transform="translate(81.745 16.162)" fill="#a92bbc"/>
          <path id="Trazado_874314" data-name="Trazado 874314" d="M99.162,42.642l8.449-4.878A94.879,94.879,0,0,0,96.022,21.781L88.77,28.31A85.031,85.031,0,0,1,99.162,42.642" transform="translate(78.346 19.223)" fill="#b140c3"/>
          <path id="Trazado_874315" data-name="Trazado 874315" d="M94.113,44.459l8.449-4.878A85.136,85.136,0,0,0,92.171,25.249L84.919,31.78a75.194,75.194,0,0,1,9.194,12.679" transform="translate(74.947 22.284)" fill="#ba55c9"/>
          <path id="Trazado_874316" data-name="Trazado 874316" d="M89.064,46.275,97.513,41.4a75.194,75.194,0,0,0-9.194-12.679l-7.252,6.529a65.453,65.453,0,0,1,8,11.028" transform="translate(71.547 25.346)" fill="#c26ad0"/>
          <path id="Trazado_874317" data-name="Trazado 874317" d="M84.015,48.092l8.449-4.878a65.452,65.452,0,0,0-8-11.028l-7.252,6.529a55.6,55.6,0,0,1,6.8,9.377" transform="translate(68.147 28.406)" fill="#cb7fd7"/>
          <path id="Trazado_874318" data-name="Trazado 874318" d="M78.967,49.909l8.449-4.878a55.708,55.708,0,0,0-6.8-9.377l-7.252,6.529a45.964,45.964,0,0,1,5.6,7.726" transform="translate(64.749 31.467)" fill="#d393dd"/>
          <path id="Trazado_874319" data-name="Trazado 874319" d="M73.917,51.726l8.449-4.878a45.963,45.963,0,0,0-5.6-7.726l-7.252,6.529a36.038,36.038,0,0,1,4.405,6.075" transform="translate(61.349 34.528)" fill="#dca8e4"/>
          <path id="Trazado_874320" data-name="Trazado 874320" d="M68.868,53.543l8.449-4.878a36.037,36.037,0,0,0-4.405-6.075L65.66,49.119a26.3,26.3,0,0,1,3.208,4.424" transform="translate(57.949 37.589)" fill="#e4bdeb"/>
          <path id="Trazado_874321" data-name="Trazado 874321" d="M63.82,55.36l8.449-4.878a26.294,26.294,0,0,0-3.208-4.424l-7.252,6.529A16.447,16.447,0,0,1,63.82,55.36" transform="translate(54.551 40.649)" fill="#edd2f1"/>
          <path id="Trazado_874322" data-name="Trazado 874322" d="M57.957,56.056a6.687,6.687,0,0,1,.813,1.12L67.219,52.3a16.536,16.536,0,0,0-2.011-2.771Z" transform="translate(51.151 43.711)" fill="#f5e7f8"/>
          <path id="Trazado_874323" data-name="Trazado 874323" d="M99.487,31.689l7.25-6.527A104.552,104.552,0,0,0,90.563,10.57l-5.734,7.9A94.774,94.774,0,0,1,99.487,31.689" transform="translate(74.867 9.329)" fill="#c82db3"/>
          <path id="Trazado_874324" data-name="Trazado 874324" d="M94.926,34.516l7.25-6.527A94.787,94.787,0,0,0,87.518,14.764l-5.736,7.894A85.045,85.045,0,0,1,94.926,34.516" transform="translate(72.178 13.03)" fill="#cd42bb"/>
          <path id="Trazado_874325" data-name="Trazado 874325" d="M90.365,37.342l7.25-6.527A84.949,84.949,0,0,0,84.47,18.957l-5.734,7.894A75.284,75.284,0,0,1,90.365,37.342" transform="translate(69.49 16.731)" fill="#d357c2"/>
          <path id="Trazado_874326" data-name="Trazado 874326" d="M85.8,40.169l7.25-6.527A75.283,75.283,0,0,0,81.425,23.151l-5.736,7.894A65.367,65.367,0,0,1,85.8,40.169" transform="translate(66.801 20.432)" fill="#d86bca"/>
          <path id="Trazado_874327" data-name="Trazado 874327" d="M81.243,43l7.25-6.527a65.444,65.444,0,0,0-10.115-9.125l-5.736,7.894A55.53,55.53,0,0,1,81.243,43" transform="translate(64.111 24.133)" fill="#de80d1"/>
          <path id="Trazado_874328" data-name="Trazado 874328" d="M76.682,45.823l7.25-6.527a55.544,55.544,0,0,0-8.6-7.76L69.6,39.43a45.876,45.876,0,0,1,7.086,6.393" transform="translate(61.423 27.833)" fill="#e395d9"/>
          <path id="Trazado_874329" data-name="Trazado 874329" d="M72.121,48.65l7.25-6.527a45.876,45.876,0,0,0-7.086-6.393l-5.736,7.894a36.136,36.136,0,0,1,5.572,5.026" transform="translate(58.734 31.534)" fill="#e9aae0"/>
          <path id="Trazado_874330" data-name="Trazado 874330" d="M67.562,51.476l7.248-6.527a35.945,35.945,0,0,0-5.572-5.026L63.5,47.817a26.287,26.287,0,0,1,4.059,3.66" transform="translate(56.046 35.235)" fill="#eebee8"/>
          <path id="Trazado_874331" data-name="Trazado 874331" d="M63,54.3l7.25-6.527a26.3,26.3,0,0,0-4.057-3.662l-5.736,7.9A16.363,16.363,0,0,1,63,54.3" transform="translate(53.357 38.935)" fill="#f4d3ef"/>
          <path id="Trazado_874332" data-name="Trazado 874332" d="M57.41,56.2a6.612,6.612,0,0,1,1.028.928l7.25-6.529a16.438,16.438,0,0,0-2.541-2.293Z" transform="translate(50.668 42.636)" fill="#f9e8f7"/>
          <path id="Trazado_874333" data-name="Trazado 874333" d="M92.833,23.586l5.734-7.892A104.651,104.651,0,0,0,79.715,4.785L75.747,13.7a94.824,94.824,0,0,1,17.086,9.887" transform="translate(66.852 4.223)" fill="#d2278d"/>
          <path id="Trazado_874334" data-name="Trazado 874334" d="M88.96,27.3l5.734-7.892A94.726,94.726,0,0,0,77.606,9.521l-3.968,8.914A84.964,84.964,0,0,1,88.96,27.3" transform="translate(64.991 8.403)" fill="#d63c98"/>
          <path id="Trazado_874335" data-name="Trazado 874335" d="M85.086,31.014l5.734-7.892A85.039,85.039,0,0,0,75.5,14.255L71.53,23.169a75.229,75.229,0,0,1,13.556,7.845" transform="translate(63.13 12.581)" fill="#db52a3"/>
          <path id="Trazado_874336" data-name="Trazado 874336" d="M81.213,34.726l5.734-7.892A75.23,75.23,0,0,0,73.39,18.99L69.422,27.9a65.354,65.354,0,0,1,11.791,6.822" transform="translate(61.27 16.76)" fill="#df67af"/>
          <path id="Trazado_874337" data-name="Trazado 874337" d="M77.34,38.439l5.734-7.892a65.354,65.354,0,0,0-11.791-6.822l-3.97,8.914a55.606,55.606,0,0,1,10.027,5.8" transform="translate(59.408 20.939)" fill="#e47cba"/>
          <path id="Trazado_874338" data-name="Trazado 874338" d="M73.466,42.154,79.2,34.262a55.617,55.617,0,0,0-10.027-5.8l-3.968,8.914a45.918,45.918,0,0,1,8.261,4.78" transform="translate(57.548 25.118)" fill="#e892c5"/>
          <path id="Trazado_874339" data-name="Trazado 874339" d="M69.593,45.867l5.734-7.892a45.918,45.918,0,0,0-8.261-4.78L63.1,42.109a36.043,36.043,0,0,1,6.495,3.758" transform="translate(55.688 29.297)" fill="#eda7d0"/>
          <path id="Trazado_874340" data-name="Trazado 874340" d="M65.719,49.58l5.734-7.892a36.053,36.053,0,0,0-6.495-3.759L60.99,46.843a26.243,26.243,0,0,1,4.729,2.737" transform="translate(53.828 33.475)" fill="#f1bcdc"/>
          <path id="Trazado_874341" data-name="Trazado 874341" d="M61.846,53.294,67.58,45.4a26.244,26.244,0,0,0-4.729-2.737l-3.97,8.914a16.384,16.384,0,0,1,2.965,1.715" transform="translate(51.966 37.655)" fill="#f6d2e7"/>
          <path id="Trazado_874342" data-name="Trazado 874342" d="M56.773,56.314a6.685,6.685,0,0,1,1.2.693l5.734-7.892A16.384,16.384,0,0,0,60.741,47.4Z" transform="translate(50.106 41.834)" fill="#fae7f2"/>
          <path id="Trazado_874343" data-name="Trazado 874343" d="M84.541,16.873,88.51,7.961A104.679,104.679,0,0,0,67.8,1.21l-2.029,9.545a94.716,94.716,0,0,1,18.769,6.118" transform="translate(58.048 1.068)" fill="#e5276f"/>
          <path id="Trazado_874344" data-name="Trazado 874344" d="M81.525,21.309l3.968-8.91A94.632,94.632,0,0,0,66.724,6.28l-2.029,9.545a85.03,85.03,0,0,1,16.83,5.484" transform="translate(57.098 5.543)" fill="#e83c7d"/>
          <path id="Trazado_874345" data-name="Trazado 874345" d="M78.508,25.746l3.968-8.91a84.955,84.955,0,0,0-16.83-5.486l-2.029,9.543a75.237,75.237,0,0,1,14.891,4.853" transform="translate(56.146 10.017)" fill="#ea528b"/>
          <path id="Trazado_874346" data-name="Trazado 874346" d="M75.491,30.184l3.968-8.912a75.154,75.154,0,0,0-14.891-4.853l-2.029,9.543a65.443,65.443,0,0,1,12.952,4.223" transform="translate(55.195 14.491)" fill="#ed679a"/>
          <path id="Trazado_874347" data-name="Trazado 874347" d="M72.476,34.623l3.967-8.912A65.443,65.443,0,0,0,63.49,21.488l-2.029,9.545a55.659,55.659,0,0,1,11.015,3.59" transform="translate(54.244 18.965)" fill="#ef7ca8"/>
          <path id="Trazado_874348" data-name="Trazado 874348" d="M69.458,39.06l3.968-8.912a55.766,55.766,0,0,0-11.013-3.59L60.384,36.1a45.8,45.8,0,0,1,9.074,2.958" transform="translate(53.293 23.439)" fill="#f292b6"/>
          <path id="Trazado_874349" data-name="Trazado 874349" d="M66.441,43.5l3.968-8.912a45.842,45.842,0,0,0-9.074-2.958l-2.029,9.545A36,36,0,0,1,66.441,43.5" transform="translate(52.342 27.914)" fill="#f4a7c4"/>
          <path id="Trazado_874350" data-name="Trazado 874350" d="M63.424,47.935l3.968-8.912A36.041,36.041,0,0,0,60.257,36.7l-2.029,9.545a26.079,26.079,0,0,1,5.2,1.692" transform="translate(51.39 32.388)" fill="#f7bcd3"/>
          <path id="Trazado_874351" data-name="Trazado 874351" d="M60.407,52.373l3.968-8.912a26.119,26.119,0,0,0-5.2-1.692l-2.028,9.543a16.554,16.554,0,0,1,3.255,1.062" transform="translate(50.441 36.863)" fill="#f9d2e1"/>
          <path id="Trazado_874352" data-name="Trazado 874352" d="M56.074,56.382a6.591,6.591,0,0,1,1.316.429L61.358,47.9A16.554,16.554,0,0,0,58.1,46.837Z" transform="translate(49.489 41.337)" fill="#fce7ef"/>
          <path id="Trazado_874353" data-name="Trazado 874353" d="M74.973,11.839,77,2.3A104.541,104.541,0,0,0,55.342,0V9.757a94.7,94.7,0,0,1,19.631,2.082" transform="translate(48.843)" fill="#f22540"/>
          <path id="Trazado_874354" data-name="Trazado 874354" d="M72.946,16.808l2.028-9.543A94.952,94.952,0,0,0,55.342,5.183V14.94a84.977,84.977,0,0,1,17.6,1.868" transform="translate(48.843 4.574)" fill="#f33b53"/>
          <path id="Trazado_874355" data-name="Trazado 874355" d="M70.916,21.776l2.028-9.543a85.2,85.2,0,0,0-17.6-1.868v9.757a75.242,75.242,0,0,1,15.574,1.653" transform="translate(48.843 9.149)" fill="#f55066"/>
          <path id="Trazado_874356" data-name="Trazado 874356" d="M68.889,26.743,70.916,17.2a75.228,75.228,0,0,0-15.574-1.653v9.759a65.517,65.517,0,0,1,13.547,1.435" transform="translate(48.843 13.723)" fill="#f66679"/>
          <path id="Trazado_874357" data-name="Trazado 874357" d="M66.86,31.711l2.028-9.543a65.374,65.374,0,0,0-13.545-1.436v9.757A55.67,55.67,0,0,1,66.86,31.711" transform="translate(48.843 18.297)" fill="#f77b8c"/>
          <path id="Trazado_874358" data-name="Trazado 874358" d="M64.832,36.68l2.028-9.543a55.643,55.643,0,0,0-11.518-1.222v9.757a45.939,45.939,0,0,1,9.49,1.007" transform="translate(48.843 22.872)" fill="#f9919e"/>
          <path id="Trazado_874359" data-name="Trazado 874359" d="M62.8,41.647,64.832,32.1a45.794,45.794,0,0,0-9.49-1.005v9.757a35.947,35.947,0,0,1,7.462.791" transform="translate(48.843 27.447)" fill="#faa6b1"/>
          <path id="Trazado_874360" data-name="Trazado 874360" d="M60.775,46.614,62.8,37.072a36.058,36.058,0,0,0-7.461-.791v9.757a26.212,26.212,0,0,1,5.433.576" transform="translate(48.843 32.02)" fill="#fbbcc4"/>
          <path id="Trazado_874361" data-name="Trazado 874361" d="M58.748,51.583l2.028-9.543a26.212,26.212,0,0,0-5.433-.576v9.757a16.494,16.494,0,0,1,3.406.361" transform="translate(48.843 36.595)" fill="#fdd1d7"/>
          <path id="Trazado_874362" data-name="Trazado 874362" d="M55.342,56.4a6.627,6.627,0,0,1,1.376.145l2.029-9.541a16.508,16.508,0,0,0-3.406-.361Z" transform="translate(48.843 41.169)" fill="#fee7ea"/>
        </g>
      </g>
      <text id="_1" data-name="1" transform="translate(-2279 -8668)" fill="#12263f" font-size="6" font-family="Roboto-Regular, Roboto"><tspan x="-1.685" y="0">1</tspan></text>
      <text id="_2" data-name="2" transform="translate(-2257 -8675)" fill="#12263f" font-size="6" font-family="Roboto-Regular, Roboto"><tspan x="-1.685" y="0">2</tspan></text>
      <text id="_3" data-name="3" transform="translate(-2233 -8678)" fill="#12263f" font-size="6" font-family="Roboto-Regular, Roboto"><tspan x="-1.685" y="0">3</tspan></text>
      <text id="_4" data-name="4" transform="translate(-2210 -8676)" fill="#12263f" font-size="6" font-family="Roboto-Regular, Roboto"><tspan x="-1.685" y="0">4</tspan></text>
      <text id="_5" data-name="5" transform="translate(-2188 -8668)" fill="#12263f" font-size="6" font-family="Roboto-Regular, Roboto"><tspan x="-1.685" y="0">5</tspan></text>
      <text id="_6" data-name="6" transform="translate(-2168 -8656)" fill="#12263f" font-size="6" font-family="Roboto-Regular, Roboto"><tspan x="-1.685" y="0">6</tspan></text>
      <text id="_7" data-name="7" transform="translate(-2151 -8641)" fill="#12263f" font-size="6" font-family="Roboto-Regular, Roboto"><tspan x="-1.685" y="0">7</tspan></text>
      <text id="_8" data-name="8" transform="translate(-2139 -8621)" fill="#12263f" font-size="6" font-family="Roboto-Regular, Roboto"><tspan x="-1.685" y="0">8</tspan></text>
      <text id="_9" data-name="9" transform="translate(-2130 -8601)" fill="#12263f" font-size="6" font-family="Roboto-Regular, Roboto"><tspan x="-1.685" y="0">9</tspan></text>
      <text id="_10" data-name="10" transform="translate(-2124 -8580)" fill="#12263f" font-size="6" font-family="Roboto-Regular, Roboto"><tspan x="-3.369" y="0">10</tspan></text>
      <text id="_11" data-name="11" transform="translate(-2125 -8557)" fill="#12263f" font-size="6" font-family="Roboto-Regular, Roboto"><tspan x="-3.369" y="0">11</tspan></text>
      <text id="_12" data-name="12" transform="translate(-2129 -8532)" fill="#12263f" font-size="6" font-family="Roboto-Regular, Roboto"><tspan x="-3.369" y="0">12</tspan></text>
      <text id="_13" data-name="13" transform="translate(-2138 -8512)" fill="#12263f" font-size="6" font-family="Roboto-Regular, Roboto"><tspan x="-3.369" y="0">13</tspan></text>
      <text id="_14" data-name="14" transform="translate(-2150 -8495)" fill="#12263f" font-size="6" font-family="Roboto-Regular, Roboto"><tspan x="-3.369" y="0">14</tspan></text>
      <text id="_15" data-name="15" transform="translate(-2168 -8478)" fill="#12263f" font-size="6" font-family="Roboto-Regular, Roboto"><tspan x="-3.369" y="0">15</tspan></text>
      <text id="_16" data-name="16" transform="translate(-2188 -8467)" fill="#12263f" font-size="6" font-family="Roboto-Regular, Roboto"><tspan x="-3.369" y="0">16</tspan></text>
      <text id="_17" data-name="17" transform="translate(-2211 -8459)" fill="#12263f" font-size="6" font-family="Roboto-Regular, Roboto"><tspan x="-3.369" y="0">17</tspan></text>
      <text id="_18" data-name="18" transform="translate(-2233 -8457)" fill="#12263f" font-size="6" font-family="Roboto-Regular, Roboto"><tspan x="-3.369" y="0">18</tspan></text>
      <text id="_19" data-name="19" transform="translate(-2256 -8459)" fill="#12263f" font-size="6" font-family="Roboto-Regular, Roboto"><tspan x="-3.369" y="0">19</tspan></text>
      <text id="_20" data-name="20" transform="translate(-2279 -8467)" fill="#12263f" font-size="6" font-family="Roboto-Regular, Roboto"><tspan x="-3.369" y="0">20</tspan></text>
      <text id="_21" data-name="21" transform="translate(-2298 -8478)" fill="#12263f" font-size="6" font-family="Roboto-Regular, Roboto"><tspan x="-3.369" y="0">21</tspan></text>
      <text id="_22" data-name="22" transform="translate(-2315 -8493)" fill="#12263f" font-size="6" font-family="Roboto-Regular, Roboto"><tspan x="-3.369" y="0">22</tspan></text>
      <text id="_23" data-name="23" transform="translate(-2328 -8512)" fill="#12263f" font-size="6" font-family="Roboto-Regular, Roboto"><tspan x="-3.369" y="0">23</tspan></text>
      <text id="_24" data-name="24" transform="translate(-2338 -8532)" fill="#12263f" font-size="6" font-family="Roboto-Regular, Roboto"><tspan x="-3.369" y="0">24</tspan></text>
      <text id="_25" data-name="25" transform="translate(-2343 -8557)" fill="#12263f" font-size="6" font-family="Roboto-Regular, Roboto"><tspan x="-3.369" y="0">25</tspan></text>
      <text id="_26" data-name="26" transform="translate(-2343 -8579)" fill="#12263f" font-size="6" font-family="Roboto-Regular, Roboto"><tspan x="-3.369" y="0">26</tspan></text>
      <text id="_27" data-name="27" transform="translate(-2339 -8601)" fill="#12263f" font-size="6" font-family="Roboto-Regular, Roboto"><tspan x="-3.369" y="0">27</tspan></text>
      <text id="_28" data-name="28" transform="translate(-2329 -8622)" fill="#12263f" font-size="6" font-family="Roboto-Regular, Roboto"><tspan x="-3.369" y="0">28</tspan></text>
      <text id="_29" data-name="29" transform="translate(-2315 -8641)" fill="#12263f" font-size="6" font-family="Roboto-Regular, Roboto"><tspan x="-3.369" y="0">29</tspan></text>
      <text id="_30" data-name="30" transform="translate(-2299 -8656)" fill="#12263f" font-size="6" font-family="Roboto-Regular, Roboto"><tspan x="-3.369" y="0">30</tspan></text>
    </g>
    <g id="Grupo_1099930" data-name="Grupo 1099930" transform="translate(9 1)">
      <line id="Línea_1593" data-name="Línea 1593" y1="35" x2="124" transform="translate(-2260.5 -8680.5)" fill="none" stroke="#26aab7" stroke-width="1"/>
      <line id="Línea_1594" data-name="Línea 1594" y1="101" x2="6" transform="translate(-2142.5 -8680.5)" fill="none" stroke="#26aab7" stroke-width="1"/>
      <line id="Línea_1595" data-name="Línea 1595" y1="196" x2="92" transform="translate(-2228.5 -8680.5)" fill="none" stroke="#26aab7" stroke-width="1"/>
      <line id="Línea_1596" data-name="Línea 1596" y1="118" x2="185" transform="translate(-2321.5 -8680.5)" fill="none" stroke="#26aab7" stroke-width="1"/>
    </g>
    <g id="Grupo_1099931" data-name="Grupo 1099931" transform="translate(9 1)">
      <line id="Línea_1597" data-name="Línea 1597" x1="7" y2="75" transform="translate(-2328.5 -8527.5)" fill="none" stroke="#ffd947" stroke-width="1"/>
      <line id="Línea_1598" data-name="Línea 1598" x1="39" y2="204" transform="translate(-2328.5 -8656.5)" fill="none" stroke="#ffd947" stroke-width="1"/>
      <line id="Línea_1599" data-name="Línea 1599" x1="198" y2="132" transform="translate(-2328.5 -8584.5)" fill="none" stroke="#ffd947" stroke-width="1"/>
      <line id="Línea_1600" data-name="Línea 1600" x1="174" y2="58" transform="translate(-2328.5 -8511.5)" fill="none" stroke="#ffd947" stroke-width="1"/>
    </g>
    <g id="Grupo_1099932" data-name="Grupo 1099932" transform="translate(9 1)">
      <line id="Línea_1601" data-name="Línea 1601" x2="109" y2="71" transform="translate(-2247.5 -8534.5)" fill="none" stroke="#59836b" stroke-width="1"/>
      <line id="Línea_1602" data-name="Línea 1602" x2="91" y2="151" transform="translate(-2229.5 -8614.5)" fill="none" stroke="#59836b" stroke-width="1"/>
      <line id="Línea_1603" data-name="Línea 1603" x2="54" y2="106" transform="translate(-2192.5 -8569.5)" fill="none" stroke="#59836b" stroke-width="1"/>
      <line id="Línea_1604" data-name="Línea 1604" x2="143" y2="106" transform="translate(-2281.5 -8569.5)" fill="none" stroke="#59836b" stroke-width="1"/>
    </g>
  </g>
</svg>
