<svg xmlns="http://www.w3.org/2000/svg" xmlns:xlink="http://www.w3.org/1999/xlink" width="85" height="62" viewBox="0 0 85 62">
  <defs>
    <clipPath id="clip-path">
      <rect id="Rect치ngulo_401520" data-name="Rect치ngulo 401520" width="62" height="62" transform="translate(207 4351)" fill="#62529b" stroke="#707070" stroke-width="1"/>
    </clipPath>
  </defs>
  <g id="Grupo_1099866" data-name="Grupo 1099866" transform="translate(-180 -4351)">
    <g id="Enmascarar_grupo_1098720" data-name="Enmascarar grupo 1098720" transform="translate(-4)" clip-path="url(#clip-path)">
      <g id="equilibrio" transform="translate(207 4351)">
        <g id="Grupo_1099864" data-name="Grupo 1099864">
          <path id="Trazado_874046" data-name="Trazado 874046" d="M61.094,36.087c0-.02,0-.041,0-.061s0-.02,0-.029,0-.034-.008-.052,0-.026-.007-.039-.006-.025-.01-.037-.009-.034-.014-.051-.007-.018-.01-.027-.014-.039-.023-.058l0-.007L54.041,20.258h5.107a1.613,1.613,0,0,0,1.611-1.611V16.51A1.613,1.613,0,0,0,59.149,14.9H50.929a5.538,5.538,0,0,1-4.077-1.768,9.975,9.975,0,0,0-7.273-3.073H33.911V8.066a4.56,4.56,0,1,0-5.822,0v1.992H22.421a9.975,9.975,0,0,0-7.273,3.073A5.537,5.537,0,0,1,11.071,14.9H2.851A1.613,1.613,0,0,0,1.24,16.51v2.138a1.613,1.613,0,0,0,1.611,1.611H7.94L.984,35.727l0,.007c-.008.018-.015.037-.022.056s-.007.019-.01.029-.009.033-.014.049-.007.026-.01.039,0,.025-.006.037S.913,35.979.911,36s0,.019,0,.028,0,.042,0,.062c0,0,0,0,0,.007v.88a8.12,8.12,0,0,0,8.111,8.111H9.71a8.12,8.12,0,0,0,8.111-8.111v-.88s0-.005,0-.008c0-.02,0-.04,0-.06s0-.021,0-.031,0-.034-.008-.051,0-.027-.007-.039-.006-.025-.01-.037-.009-.034-.014-.051-.007-.018-.01-.027-.014-.039-.023-.058l0-.007L10.767,20.258h.641a9.975,9.975,0,0,0,7.273-3.073,5.537,5.537,0,0,1,4.077-1.768h5.331V51.13H18.864a2.741,2.741,0,0,0-2.738,2.738v1.6H14.563a2.788,2.788,0,0,0-2.785,2.785V61.1a.9.9,0,0,0,.9.9H49.326a.9.9,0,0,0,.9-.9V58.248a2.788,2.788,0,0,0-2.785-2.785H45.873v-1.6a2.741,2.741,0,0,0-2.738-2.738H33.911v-25.9a.9.9,0,1,0-1.792,0v25.9H29.881V15.417h2.238v4.14a.9.9,0,1,0,1.792,0v-4.14H39.6A4.813,4.813,0,0,1,43.041,16.9a10.86,10.86,0,0,0,7.889,3.358h.285L44.258,35.727l0,.006c-.009.019-.016.039-.023.059l-.009.025c-.006.017-.01.035-.015.052s-.007.024-.009.036,0,.026-.007.04-.006.034-.008.051,0,.02,0,.03,0,.04,0,.061c0,0,0,0,0,.007v.88a8.12,8.12,0,0,0,8.111,8.111h.694a8.12,8.12,0,0,0,8.111-8.111v-.88S61.094,36.089,61.094,36.087ZM31,1.792a2.766,2.766,0,0,1,1.485,5.1q-.051.032-.1.062l-.053.031q-.071.039-.144.074l-.052.023q-.058.026-.117.05l-.05.02c-.053.02-.106.038-.159.054l-.043.012q-.067.019-.136.035l-.046.011c-.057.012-.115.023-.173.032l-.029,0c-.05.007-.1.012-.152.017l-.048,0c-.06,0-.12.007-.181.007s-.121,0-.181-.007l-.048,0c-.051,0-.1-.01-.152-.017l-.029,0c-.058-.009-.116-.019-.173-.032l-.046-.011q-.068-.016-.135-.035l-.044-.012q-.08-.025-.159-.054l-.051-.02q-.058-.023-.115-.049l-.053-.024q-.072-.035-.143-.073l-.055-.032-.1-.06A2.766,2.766,0,0,1,31,1.792ZM32.119,8.98v1.078H29.881V8.98l.044.01q.1.025.2.045l.068.012q.1.019.21.032l.048.006A4.589,4.589,0,0,0,31,9.119c.1,0,.189,0,.283-.01h0c.087-.005.173-.013.259-.024l.051-.007q.1-.014.207-.032l.07-.012c.069-.013.137-.028.2-.045ZM9.71,43.293H9.016A6.326,6.326,0,0,1,2.7,36.99H16.029A6.326,6.326,0,0,1,9.71,43.293ZM15.538,35.2H3.187L9.354,21.484Zm27.6,17.724a.947.947,0,0,1,.946.946v1.6H25.372a.9.9,0,1,0,0,1.792H47.437a.994.994,0,0,1,.993.993v1.96H13.57v-1.96a.994.994,0,0,1,.993-.993h5.086a.9.9,0,1,0,0-1.792H17.918v-1.6a.947.947,0,0,1,.946-.946Zm7.794-34.456a9.082,9.082,0,0,1-6.6-2.809A6.615,6.615,0,0,0,39.6,13.625H22.758a7.312,7.312,0,0,0-5.384,2.334,8.177,8.177,0,0,1-5.966,2.507H3.033V16.691h8.038a7.312,7.312,0,0,0,5.384-2.334,8.178,8.178,0,0,1,5.966-2.507H39.579a8.177,8.177,0,0,1,5.966,2.507,7.313,7.313,0,0,0,5.384,2.334h8.038v1.775H50.929Zm1.7,3.018L58.812,35.2H46.461Zm.356,21.808H52.29a6.325,6.325,0,0,1-6.318-6.3H59.3A6.326,6.326,0,0,1,52.984,43.293Z" fill="#62529b"/>
        </g>
      </g>
    </g>
    <rect id="Rect치ngulo_401529" data-name="Rect치ngulo 401529" width="16" height="62" transform="translate(180 4351)" fill="#62529b"/>
  </g>
</svg>
