<svg xmlns="http://www.w3.org/2000/svg" xmlns:xlink="http://www.w3.org/1999/xlink" width="62" height="62" viewBox="0 0 62 62">
  <defs>
    <clipPath id="clip-path">
      <rect id="Rectángulo_401518" data-name="Rectángulo 401518" width="62" height="62" transform="translate(207 2911)" fill="#62529b" stroke="#62529b" stroke-width="1"/>
    </clipPath>
  </defs>
  <g id="Enmascarar_grupo_1098721" data-name="Enmascarar grupo 1098721" transform="translate(-207 -2911)" clip-path="url(#clip-path)">
    <g id="Guide" transform="translate(202.571 2906.571)">
      <path id="Trazado_874047" data-name="Trazado 874047" d="M65.321,66.429H5.536a1.107,1.107,0,0,1-1.107-1.107V5.536A1.107,1.107,0,0,1,5.536,4.429H65.321a1.107,1.107,0,0,1,1.107,1.107V65.321A1.107,1.107,0,0,1,65.321,66.429ZM6.643,64.214H64.214V6.643H6.643Z" fill="#62529b"/>
      <path id="Trazado_874048" data-name="Trazado 874048" d="M65.321,66.429a1.1,1.1,0,0,1-.783-.324L4.753,6.318A1.107,1.107,0,1,1,6.319,4.753L66.1,64.539a1.107,1.107,0,0,1-.783,1.89Z" fill="#62529b"/>
      <path id="Trazado_874049" data-name="Trazado 874049" d="M5.536,66.429a1.107,1.107,0,0,1-.783-1.89L64.539,4.753A1.107,1.107,0,1,1,66.1,6.319L6.318,66.1A1.1,1.1,0,0,1,5.536,66.429Z" fill="#62529b"/>
      <path id="Trazado_874050" data-name="Trazado 874050" d="M58.679,59.786h-46.5a1.107,1.107,0,0,1-1.107-1.107v-46.5a1.107,1.107,0,0,1,1.107-1.107h46.5a1.107,1.107,0,0,1,1.107,1.107v46.5A1.107,1.107,0,0,1,58.679,59.786ZM13.286,57.571H57.571V13.286H13.286Z" fill="#62529b"/>
      <path id="Trazado_874051" data-name="Trazado 874051" d="M35.429,59.786A24.357,24.357,0,1,1,59.786,35.429,24.357,24.357,0,0,1,35.429,59.786Zm0-46.5A22.143,22.143,0,1,0,57.571,35.429,22.143,22.143,0,0,0,35.429,13.286Z" fill="#62529b"/>
      <path id="Trazado_874052" data-name="Trazado 874052" d="M35.429,66.429a1.107,1.107,0,0,1-1.107-1.107V5.536a1.107,1.107,0,0,1,2.214,0V65.321A1.107,1.107,0,0,1,35.429,66.429Z" fill="#62529b"/>
      <path id="Trazado_874053" data-name="Trazado 874053" d="M65.321,36.536H5.536a1.107,1.107,0,0,1,0-2.214H65.321a1.107,1.107,0,0,1,0,2.214Z" fill="#62529b"/>
    </g>
  </g>
</svg>
