<svg xmlns="http://www.w3.org/2000/svg" xmlns:xlink="http://www.w3.org/1999/xlink" width="85" height="62" viewBox="0 0 85 62">
  <defs>
    <clipPath id="clip-path">
      <rect id="Rect치ngulo_401521" data-name="Rect치ngulo 401521" width="62" height="62" transform="translate(207 5064)" fill="#62529b" stroke="#707070" stroke-width="1"/>
    </clipPath>
  </defs>
  <g id="Grupo_1099867" data-name="Grupo 1099867" transform="translate(-180 -5064)">
    <g id="Enmascarar_grupo_1098722" data-name="Enmascarar grupo 1098722" transform="translate(-4)" clip-path="url(#clip-path)">
      <path id="complementario" d="M30.674,62.081a.98.98,0,0,0,1.386,0L55.325,38.816a.98.98,0,0,0,0-1.386L43.693,25.8a.98.98,0,0,0-1.386,0l-3.548,3.548a.98.98,0,0,0,.461,1.645,3.948,3.948,0,0,1,1.813,1.054c1.207,1.207,1.5,2.951.644,3.809s-2.6.563-3.809-.643A3.948,3.948,0,0,1,36.813,33.4a.98.98,0,0,0-1.645-.461l-3.8,3.8L28.6,33.971a6.176,6.176,0,0,0,1.239-.962c1.992-1.992,2.28-4.944.643-6.582s-4.59-1.349-6.582.643a6.173,6.173,0,0,0-.962,1.239L20.428,25.8a.98.98,0,0,0-1.386,0L7.41,37.429a.98.98,0,0,0,0,1.386m2.079-.693L19.735,27.877l2.855,2.855a.98.98,0,0,0,1.645-.461,3.946,3.946,0,0,1,1.054-1.813c1.207-1.207,2.951-1.5,3.809-.643s.563,2.6-.643,3.809a3.949,3.949,0,0,1-1.813,1.054.98.98,0,0,0-.461,1.645l3.8,3.8-2.765,2.765a6.174,6.174,0,0,0-.962-1.239c-1.992-1.992-4.945-2.281-6.582-.643a3.849,3.849,0,0,0-1.034,3.278,5.734,5.734,0,0,0,1.677,3.3,6.183,6.183,0,0,0,1.239.962l-1.82,1.82ZM31.368,60,21.122,49.755,23.976,46.9a.98.98,0,0,0-.461-1.645A3.948,3.948,0,0,1,21.7,44.2c-1.207-1.207-1.5-2.951-.644-3.809s2.6-.563,3.809.643a3.948,3.948,0,0,1,1.054,1.813.98.98,0,0,0,1.645.461l3.8-3.8,2.765,2.765a6.176,6.176,0,0,0-1.239.962c-1.992,1.992-2.28,4.944-.643,6.582a3.848,3.848,0,0,0,3.278,1.034,5.734,5.734,0,0,0,3.3-1.677,6.177,6.177,0,0,0,.962-1.239l1.82,1.82ZM43,48.369l-2.855-2.855a.98.98,0,0,0-1.645.461,3.946,3.946,0,0,1-1.054,1.813c-1.207,1.207-2.951,1.5-3.809.643s-.563-2.6.643-3.809a3.949,3.949,0,0,1,1.813-1.054.98.98,0,0,0,.461-1.645l-3.8-3.8,2.765-2.765a6.174,6.174,0,0,0,.962,1.239c1.992,1.992,4.945,2.281,6.582.643s1.348-4.59-.643-6.582A6.183,6.183,0,0,0,41.18,29.7L43,27.876,53.246,38.123ZM22.855,17.221A.98.98,0,0,0,24.5,16.76a3.947,3.947,0,0,1,1.054-1.813c1.207-1.207,2.951-1.5,3.809-.643s.563,2.6-.644,3.809a3.949,3.949,0,0,1-1.813,1.054.98.98,0,0,0-.461,1.645l4.493,4.493a.98.98,0,0,0,1.386,0l3.458-3.458a6.177,6.177,0,0,0,.962,1.239c1.992,1.992,4.945,2.281,6.582.643s1.349-4.59-.643-6.582a6.18,6.18,0,0,0-1.239-.962l2.513-2.513a.98.98,0,0,0,0-1.386L32.325.655a.98.98,0,0,0-1.386,0L19.307,12.287a.98.98,0,0,0,0,1.386ZM31.632,2.734,41.878,12.98l-2.855,2.855a.98.98,0,0,0,.461,1.645A3.947,3.947,0,0,1,41.3,18.534c1.207,1.207,1.5,2.951.644,3.809s-2.6.563-3.809-.643a3.948,3.948,0,0,1-1.054-1.813.98.98,0,0,0-1.645-.461l-3.8,3.8-2.765-2.765a6.176,6.176,0,0,0,1.239-.962c1.992-1.992,2.281-4.944.643-6.582s-4.59-1.348-6.582.643a6.179,6.179,0,0,0-.962,1.239l-1.82-1.82Z" transform="translate(206.632 5063.632)" fill="#62529b"/>
    </g>
    <rect id="Rect치ngulo_401528" data-name="Rect치ngulo 401528" width="16" height="62" transform="translate(180 5064)" fill="#62529b"/>
  </g>
</svg>
