<svg xmlns="http://www.w3.org/2000/svg" width="1030" height="426" viewBox="0 0 1030 426">
  <g id="Grupo_1099944" data-name="Grupo 1099944" transform="translate(-285 -13131)">
    <path id="Trazado_874394" data-name="Trazado 874394" d="M20,0h990a20,20,0,0,1,20,20V406a20,20,0,0,1-20,20H20A20,20,0,0,1,0,406V20A20,20,0,0,1,20,0Z" transform="translate(285 13131)" fill="#f0f0f0"/>
    <path id="Trazado_874395" data-name="Trazado 874395" d="M-17.227-25.977h-41.7L-68.291,0H-81.826l38.008-99.531h11.484L5.742,0H-7.725Zm-37.734-10.8h33.838L-38.076-83.33ZM62.822,0q-1.094-2.188-1.777-7.793A28.217,28.217,0,0,1,39.99,1.367q-10.938,0-17.944-6.187a20.016,20.016,0,0,1-7.007-15.688q0-11.553,8.784-17.944t24.712-6.392h12.3v-5.811q0-6.631-3.965-10.562T45.186-65.146a18.441,18.441,0,0,0-11.348,3.418q-4.58,3.418-4.58,8.271H16.543a17.453,17.453,0,0,1,3.931-10.7,26.827,26.827,0,0,1,10.664-8.169,35.876,35.876,0,0,1,14.8-3.008q12.783,0,20.029,6.392t7.52,17.6v34.043q0,10.186,2.6,16.2V0ZM41.836-9.639a22.227,22.227,0,0,0,11.279-3.076,18.607,18.607,0,0,0,7.725-8V-35.889H50.928q-23.242,0-23.242,13.6a11.513,11.513,0,0,0,3.965,9.3A15.239,15.239,0,0,0,41.836-9.639Z" transform="translate(934 13314)" fill="#646464"/>
    <path id="Trazado_874396" data-name="Trazado 874396" d="M-36.993-6.018a6.491,6.491,0,0,1-1,3.278,6.041,6.041,0,0,1-2.57,2.2,8.746,8.746,0,0,1-3.778.781A6.979,6.979,0,0,1-49.86-2.039a9.425,9.425,0,0,1-2.014-6.445v-.879a10.758,10.758,0,0,1,.909-4.572,6.891,6.891,0,0,1,2.618-3.027,7.306,7.306,0,0,1,3.955-1.068,7.661,7.661,0,0,1,5.2,1.7,6.728,6.728,0,0,1,2.234,4.694h-4.272a3.183,3.183,0,0,0-.818-2.332,3.364,3.364,0,0,0-2.344-.708,2.559,2.559,0,0,0-2.344,1.2,7.689,7.689,0,0,0-.781,3.821V-8.4A8.508,8.508,0,0,0-46.8-4.333a2.613,2.613,0,0,0,2.46,1.221,3.29,3.29,0,0,0,2.258-.7,2.953,2.953,0,0,0,.83-2.209Zm1.318-.708a7.8,7.8,0,0,1,.769-3.522A5.5,5.5,0,0,1-32.7-12.622a6.654,6.654,0,0,1,3.381-.83,6.073,6.073,0,0,1,4.675,1.837,7.05,7.05,0,0,1,1.709,5v.146a6.84,6.84,0,0,1-1.715,4.9A6.089,6.089,0,0,1-29.291.244,6.159,6.159,0,0,1-33.82-1.447,6.613,6.613,0,0,1-35.663-6.03Zm4.114.256a4.914,4.914,0,0,0,.574,2.686,1.911,1.911,0,0,0,1.7.854q2.2,0,2.246-3.381v-.415q0-3.552-2.271-3.552-2.063,0-2.234,3.064Zm14.221-6.738.134,1.55a4.479,4.479,0,0,1,3.772-1.794,3.768,3.768,0,0,1,3.082,1.233A5.87,5.87,0,0,1-9.3-8.508V0h-4.126V-8.337a2.229,2.229,0,0,0-.4-1.471,1.864,1.864,0,0,0-1.465-.47,1.962,1.962,0,0,0-1.794.952V0H-21.2V-13.208Zm25.9,8.484A1.76,1.76,0,0,0,7.9-6.189,8.269,8.269,0,0,0,5.56-7.275,22.427,22.427,0,0,1,2.826-8.362q-3.455-1.7-3.455-4.663a4.182,4.182,0,0,1,.861-2.606,5.566,5.566,0,0,1,2.435-1.758,9.477,9.477,0,0,1,3.54-.629,8.29,8.29,0,0,1,3.436.684,5.441,5.441,0,0,1,2.362,1.947,5.084,5.084,0,0,1,.842,2.887H8.575a2.149,2.149,0,0,0-.665-1.685,2.593,2.593,0,0,0-1.8-.6,2.924,2.924,0,0,0-1.813.507,1.554,1.554,0,0,0-.665,1.288,1.565,1.565,0,0,0,.732,1.239A9.236,9.236,0,0,0,6.94-10.6,15.778,15.778,0,0,1,9.967-9.326a5.087,5.087,0,0,1,2.881,4.578A4.34,4.34,0,0,1,11.09-1.086,7.819,7.819,0,0,1,6.268.244,9.566,9.566,0,0,1,2.356-.531,5.9,5.9,0,0,1-.281-2.655a5.534,5.534,0,0,1-.885-3.107h4.3A2.726,2.726,0,0,0,3.87-3.656a3.491,3.491,0,0,0,2.4.677,2.758,2.758,0,0,0,1.678-.458A1.511,1.511,0,0,0,8.563-4.724ZM21.246.244a6.79,6.79,0,0,1-4.919-1.813,6.26,6.26,0,0,1-1.88-4.718v-.342a8.111,8.111,0,0,1,.751-3.577,5.493,5.493,0,0,1,2.191-2.4,6.615,6.615,0,0,1,3.418-.848A5.717,5.717,0,0,1,25.2-11.725a6.788,6.788,0,0,1,1.611,4.816v1.6H18.634A2.965,2.965,0,0,0,19.6-3.564a2.869,2.869,0,0,0,1.929.635A3.7,3.7,0,0,0,24.579-4.3l1.88,2.222A5.255,5.255,0,0,1,24.28-.385,7.363,7.363,0,0,1,21.246.244Zm-.464-10.522q-1.807,0-2.148,2.393h4.15V-8.2a2.038,2.038,0,0,0-.5-1.532A1.992,1.992,0,0,0,20.782-10.278Zm15.674.793-1.355-.1a2.434,2.434,0,0,0-2.49,1.221V0H28.5V-13.208h3.857l.134,1.7a3.185,3.185,0,0,1,2.893-1.941,4.012,4.012,0,0,1,1.147.146ZM42.279,0H38.153V-13.208h4.126Zm-4.37-16.614a1.836,1.836,0,0,1,.635-1.44,2.4,2.4,0,0,1,1.648-.562,2.4,2.4,0,0,1,1.648.562,1.836,1.836,0,0,1,.635,1.44,1.836,1.836,0,0,1-.635,1.44,2.4,2.4,0,0,1-1.648.562,2.4,2.4,0,0,1-1.648-.562A1.836,1.836,0,0,1,37.909-16.614ZM45.721,0V-10.352H43.8v-2.856h1.917v-1.05a4.563,4.563,0,0,1,1.331-3.5,5.257,5.257,0,0,1,3.735-1.245,8.18,8.18,0,0,1,1.929.256l.012,3.027a3.758,3.758,0,0,0-1.013-.11q-1.868,0-1.868,1.611v1.013h2.576v2.856H49.847V0Z" transform="translate(672 13369)" fill="#26aab7"/>
    <path id="Trazado_874397" data-name="Trazado 874397" d="M-28.853-6.572h-6.162v5.039h7.158V0H-36.89V-14.219h8.936v1.543h-7.061v4.57h6.162ZM-23.843,0h-1.807V-15h1.807Zm7.275.2a4.617,4.617,0,0,1-3.5-1.411A5.237,5.237,0,0,1-21.411-4.99v-.332a6.341,6.341,0,0,1,.6-2.808,4.685,4.685,0,0,1,1.68-1.934,4.223,4.223,0,0,1,2.339-.7,3.957,3.957,0,0,1,3.2,1.357,5.877,5.877,0,0,1,1.143,3.887v.752H-19.6a3.756,3.756,0,0,0,.913,2.524,2.87,2.87,0,0,0,2.222.962,3.147,3.147,0,0,0,1.621-.391,4.073,4.073,0,0,0,1.162-1.035l1.1.859A4.437,4.437,0,0,1-16.567.2Zm-.225-9.473a2.41,2.41,0,0,0-1.836.8,3.868,3.868,0,0,0-.918,2.231h5.293v-.137A3.441,3.441,0,0,0-15-8.521,2.269,2.269,0,0,0-16.792-9.277Zm6.006,3.906A6.21,6.21,0,0,1-9.644-9.3a3.654,3.654,0,0,1,3.027-1.46A3.635,3.635,0,0,1-3.6-9.395l.088-1.172h1.65V-.254A4.3,4.3,0,0,1-3.076,2.979,4.487,4.487,0,0,1-6.343,4.16a5.435,5.435,0,0,1-2.236-.488,3.85,3.85,0,0,1-1.67-1.338l.938-1.084A3.533,3.533,0,0,0-6.47,2.686a2.768,2.768,0,0,0,2.056-.742,2.837,2.837,0,0,0,.737-2.09v-.908A3.713,3.713,0,0,1-6.636.2a3.609,3.609,0,0,1-3-1.494A6.529,6.529,0,0,1-10.786-5.371Zm1.816.205a4.738,4.738,0,0,0,.732,2.808A2.38,2.38,0,0,0-6.187-1.338a2.646,2.646,0,0,0,2.51-1.553V-7.715a2.677,2.677,0,0,0-2.49-1.514A2.4,2.4,0,0,0-8.228-8.2,5.16,5.16,0,0,0-8.97-5.166ZM7.388,0a3.8,3.8,0,0,1-.254-1.113A4.031,4.031,0,0,1,4.126.2,3.73,3.73,0,0,1,1.563-.688a2.859,2.859,0,0,1-1-2.241A2.987,2.987,0,0,1,1.816-5.493a5.916,5.916,0,0,1,3.53-.913H7.1v-.83a2.029,2.029,0,0,0-.566-1.509,2.276,2.276,0,0,0-1.67-.562,2.634,2.634,0,0,0-1.621.488,1.439,1.439,0,0,0-.654,1.182H.776a2.493,2.493,0,0,1,.562-1.528,3.832,3.832,0,0,1,1.523-1.167,5.125,5.125,0,0,1,2.114-.43,4.177,4.177,0,0,1,2.861.913A3.294,3.294,0,0,1,8.911-7.334v4.863A5.946,5.946,0,0,0,9.282-.156V0Zm-3-1.377A3.175,3.175,0,0,0,6-1.816,2.658,2.658,0,0,0,7.1-2.959V-5.127H5.688q-3.32,0-3.32,1.943a1.645,1.645,0,0,0,.566,1.328A2.177,2.177,0,0,0,4.39-1.377Zm9.063-9.189.059,1.328a3.85,3.85,0,0,1,3.164-1.523q3.35,0,3.379,3.779V0H18.247V-6.992a2.432,2.432,0,0,0-.522-1.689,2.094,2.094,0,0,0-1.6-.547,2.607,2.607,0,0,0-1.543.469,3.183,3.183,0,0,0-1.035,1.23V0H11.743V-10.566Zm11.777-2.559v2.559H27.2v1.4H25.229v6.553a1.464,1.464,0,0,0,.264.952,1.11,1.11,0,0,0,.9.317,4.374,4.374,0,0,0,.859-.117V0a5.238,5.238,0,0,1-1.387.2,2.25,2.25,0,0,1-1.826-.732,3.147,3.147,0,0,1-.615-2.08V-9.17H21.5v-1.4h1.924v-2.559ZM33.7.2a4.617,4.617,0,0,1-3.5-1.411A5.237,5.237,0,0,1,28.853-4.99v-.332a6.341,6.341,0,0,1,.6-2.808,4.685,4.685,0,0,1,1.68-1.934,4.223,4.223,0,0,1,2.339-.7,3.957,3.957,0,0,1,3.2,1.357,5.877,5.877,0,0,1,1.143,3.887v.752H30.659a3.756,3.756,0,0,0,.913,2.524,2.87,2.87,0,0,0,2.222.962,3.147,3.147,0,0,0,1.621-.391,4.073,4.073,0,0,0,1.162-1.035l1.1.859A4.437,4.437,0,0,1,33.7.2Zm-.225-9.473a2.41,2.41,0,0,0-1.836.8,3.868,3.868,0,0,0-.918,2.231h5.293v-.137a3.441,3.441,0,0,0-.742-2.134A2.269,2.269,0,0,0,33.472-9.277Zm-71.04,23.6h-4.57V27H-44V14.324h-4.561V12.781h11Zm6.2,3.73a5.414,5.414,0,0,0-.889-.068A2.381,2.381,0,0,0-34.668,19.5V27h-1.807V16.434h1.758l.029,1.221a2.813,2.813,0,0,1,2.52-1.416,1.846,1.846,0,0,1,.8.137ZM-23.574,27a3.8,3.8,0,0,1-.254-1.113A4.031,4.031,0,0,1-26.836,27.2a3.73,3.73,0,0,1-2.563-.884,2.859,2.859,0,0,1-1-2.241,2.987,2.987,0,0,1,1.255-2.563,5.916,5.916,0,0,1,3.53-.913h1.758v-.83a2.029,2.029,0,0,0-.566-1.509,2.276,2.276,0,0,0-1.67-.562,2.634,2.634,0,0,0-1.621.488,1.439,1.439,0,0,0-.654,1.182h-1.816a2.493,2.493,0,0,1,.562-1.528A3.832,3.832,0,0,1-28.1,16.668a5.125,5.125,0,0,1,2.114-.43,4.177,4.177,0,0,1,2.861.913,3.294,3.294,0,0,1,1.074,2.515v4.863a5.946,5.946,0,0,0,.371,2.314V27Zm-3-1.377a3.175,3.175,0,0,0,1.611-.439,2.658,2.658,0,0,0,1.1-1.143V21.873h-1.416q-3.32,0-3.32,1.943a1.645,1.645,0,0,0,.566,1.328A2.177,2.177,0,0,0-26.572,25.623Zm6.914-3.994a6.19,6.19,0,0,1,1.152-3.911,3.644,3.644,0,0,1,3.018-1.479,3.665,3.665,0,0,1,2.939,1.27V12h1.807V27H-12.4l-.088-1.133A3.679,3.679,0,0,1-15.508,27.2a3.609,3.609,0,0,1-2.993-1.5,6.26,6.26,0,0,1-1.157-3.926Zm1.807.205a4.687,4.687,0,0,0,.742,2.813,2.4,2.4,0,0,0,2.051,1.016,2.636,2.636,0,0,0,2.51-1.543V19.266a2.656,2.656,0,0,0-2.49-1.494,2.411,2.411,0,0,0-2.07,1.025A5.16,5.16,0,0,0-17.852,21.834ZM-5.977,27H-7.783V16.434h1.807ZM-7.93,13.631a1.078,1.078,0,0,1,.269-.742,1.008,1.008,0,0,1,.8-.3,1.024,1.024,0,0,1,.8.3,1.067,1.067,0,0,1,.273.742,1.032,1.032,0,0,1-.273.732,1.043,1.043,0,0,1-.8.293,1.026,1.026,0,0,1-.8-.293A1.043,1.043,0,0,1-7.93,13.631Zm9.082,12.09a2.6,2.6,0,0,0,1.689-.586,2.061,2.061,0,0,0,.8-1.465H5.352A3.276,3.276,0,0,1,4.727,25.4a4.116,4.116,0,0,1-1.538,1.309,4.438,4.438,0,0,1-2.036.488,4.353,4.353,0,0,1-3.433-1.44,5.737,5.737,0,0,1-1.274-3.94v-.3a6.361,6.361,0,0,1,.566-2.744A4.314,4.314,0,0,1-1.362,16.9a4.619,4.619,0,0,1,2.5-.664A4.238,4.238,0,0,1,4.1,17.3a3.8,3.8,0,0,1,1.255,2.764H3.643a2.49,2.49,0,0,0-.776-1.685,2.415,2.415,0,0,0-1.724-.659,2.529,2.529,0,0,0-2.134.991,4.655,4.655,0,0,0-.757,2.866v.342A4.562,4.562,0,0,0-1,24.734,2.541,2.541,0,0,0,1.152,25.721ZM9.346,27H7.539V16.434H9.346ZM7.393,13.631a1.078,1.078,0,0,1,.269-.742,1.008,1.008,0,0,1,.8-.3,1.024,1.024,0,0,1,.8.3,1.067,1.067,0,0,1,.273.742,1.032,1.032,0,0,1-.273.732,1.043,1.043,0,0,1-.8.293,1.026,1.026,0,0,1-.8-.293A1.043,1.043,0,0,1,7.393,13.631Zm4.365,7.988a6.241,6.241,0,0,1,.61-2.793,4.553,4.553,0,0,1,1.7-1.914,4.626,4.626,0,0,1,2.485-.674,4.456,4.456,0,0,1,3.491,1.494,5.748,5.748,0,0,1,1.333,3.975v.127a6.3,6.3,0,0,1-.591,2.769A4.486,4.486,0,0,1,19.1,26.512a4.679,4.679,0,0,1-2.524.684A4.445,4.445,0,0,1,13.091,25.7a5.719,5.719,0,0,1-1.333-3.955Zm1.816.215a4.52,4.52,0,0,0,.815,2.822,2.763,2.763,0,0,0,4.37-.015,4.943,4.943,0,0,0,.811-3.022,4.513,4.513,0,0,0-.825-2.817,2.623,2.623,0,0,0-2.192-1.079,2.594,2.594,0,0,0-2.158,1.064A4.906,4.906,0,0,0,13.574,21.834Zm11.777-5.4.059,1.328a3.85,3.85,0,0,1,3.164-1.523q3.35,0,3.379,3.779V27H30.146V20.008a2.432,2.432,0,0,0-.522-1.689,2.094,2.094,0,0,0-1.6-.547,2.607,2.607,0,0,0-1.543.469,3.183,3.183,0,0,0-1.035,1.23V27H23.643V16.434ZM41.2,27a3.8,3.8,0,0,1-.254-1.113A4.031,4.031,0,0,1,37.939,27.2a3.73,3.73,0,0,1-2.563-.884,2.859,2.859,0,0,1-1-2.241,2.987,2.987,0,0,1,1.255-2.563,5.916,5.916,0,0,1,3.53-.913h1.758v-.83a2.029,2.029,0,0,0-.566-1.509,2.276,2.276,0,0,0-1.67-.562,2.634,2.634,0,0,0-1.621.488,1.439,1.439,0,0,0-.654,1.182H34.59a2.493,2.493,0,0,1,.562-1.528,3.832,3.832,0,0,1,1.523-1.167,5.125,5.125,0,0,1,2.114-.43,4.177,4.177,0,0,1,2.861.913,3.294,3.294,0,0,1,1.074,2.515v4.863a5.946,5.946,0,0,0,.371,2.314V27Zm-3-1.377a3.175,3.175,0,0,0,1.611-.439,2.658,2.658,0,0,0,1.1-1.143V21.873H39.5q-3.32,0-3.32,1.943a1.645,1.645,0,0,0,.566,1.328A2.177,2.177,0,0,0,38.2,25.623ZM47.52,27H45.713V12H47.52ZM-36.392,52.135a4.331,4.331,0,0,1-2.017,1.548,8.146,8.146,0,0,1-3.013.513,5.843,5.843,0,0,1-3.086-.815,5.433,5.433,0,0,1-2.085-2.319,8.011,8.011,0,0,1-.757-3.486v-1.24a7.478,7.478,0,0,1,1.5-4.98,5.223,5.223,0,0,1,4.214-1.768,5.4,5.4,0,0,1,3.584,1.138,4.956,4.956,0,0,1,1.66,3.228h-1.875a3.1,3.1,0,0,0-3.359-2.822,3.32,3.32,0,0,0-2.856,1.323,6.457,6.457,0,0,0-.981,3.833v1.162a6.051,6.051,0,0,0,1.094,3.8,3.546,3.546,0,0,0,2.959,1.411,6.522,6.522,0,0,0,1.846-.234,2.853,2.853,0,0,0,1.309-.791V48.443h-3.291V46.92h5.156Zm4.8,1.865h-1.807V39h1.807Zm9.414,0a3.8,3.8,0,0,1-.254-1.113A4.031,4.031,0,0,1-25.435,54.2,3.73,3.73,0,0,1-28,53.312a2.859,2.859,0,0,1-1-2.241,2.987,2.987,0,0,1,1.255-2.563,5.916,5.916,0,0,1,3.53-.913h1.758v-.83a2.029,2.029,0,0,0-.566-1.509,2.276,2.276,0,0,0-1.67-.562,2.634,2.634,0,0,0-1.621.488,1.439,1.439,0,0,0-.654,1.182h-1.816a2.493,2.493,0,0,1,.562-1.528A3.832,3.832,0,0,1-26.7,43.668a5.125,5.125,0,0,1,2.114-.43,4.177,4.177,0,0,1,2.861.913,3.294,3.294,0,0,1,1.074,2.515v4.863a5.946,5.946,0,0,0,.371,2.314V54Zm-3-1.377a3.175,3.175,0,0,0,1.611-.439,2.658,2.658,0,0,0,1.1-1.143V48.873h-1.416q-3.32,0-3.32,1.943a1.645,1.645,0,0,0,.566,1.328A2.177,2.177,0,0,0-25.171,52.623Zm9.053-9.189.049,1.172a3.9,3.9,0,0,1,3.135-1.367,3.021,3.021,0,0,1,3.018,1.7,4,4,0,0,1,1.372-1.23,4.052,4.052,0,0,1,2-.469q3.477,0,3.535,3.682V54H-4.819V47.027a2.426,2.426,0,0,0-.518-1.694,2.279,2.279,0,0,0-1.738-.562,2.4,2.4,0,0,0-1.67.6,2.436,2.436,0,0,0-.771,1.616V54h-1.816V47.076a2.016,2.016,0,0,0-2.256-2.3,2.417,2.417,0,0,0-2.432,1.514V54h-1.807V43.434ZM6.235,52.955a3.837,3.837,0,0,1-3.1,1.24,3.285,3.285,0,0,1-2.573-.981,4.248,4.248,0,0,1-.894-2.905V43.434H1.479V50.26q0,2.4,1.953,2.4a2.7,2.7,0,0,0,2.754-1.543V43.434H7.993V54H6.274Zm9.609-7.9a5.414,5.414,0,0,0-.889-.068A2.381,2.381,0,0,0,12.544,46.5V54H10.737V43.434H12.5l.029,1.221a2.813,2.813,0,0,1,2.52-1.416,1.846,1.846,0,0,1,.8.137Zm.986,3.564a6.241,6.241,0,0,1,.61-2.793,4.553,4.553,0,0,1,1.7-1.914,4.626,4.626,0,0,1,2.485-.674,4.456,4.456,0,0,1,3.491,1.494,5.748,5.748,0,0,1,1.333,3.975v.127a6.3,6.3,0,0,1-.591,2.769,4.486,4.486,0,0,1-1.689,1.909,4.679,4.679,0,0,1-2.524.684A4.445,4.445,0,0,1,18.164,52.7a5.719,5.719,0,0,1-1.333-3.955Zm1.816.215a4.52,4.52,0,0,0,.815,2.822,2.763,2.763,0,0,0,4.37-.015,4.943,4.943,0,0,0,.811-3.022,4.513,4.513,0,0,0-.825-2.817,2.623,2.623,0,0,0-2.192-1.079,2.594,2.594,0,0,0-2.158,1.064A4.906,4.906,0,0,0,18.647,48.834ZM34.868,51.2a1.33,1.33,0,0,0-.552-1.138,5.311,5.311,0,0,0-1.924-.7,9.1,9.1,0,0,1-2.178-.7,3.1,3.1,0,0,1-1.191-.977,2.336,2.336,0,0,1-.386-1.348,2.741,2.741,0,0,1,1.1-2.2,4.291,4.291,0,0,1,2.808-.9,4.415,4.415,0,0,1,2.915.928,2.947,2.947,0,0,1,1.118,2.373H34.761a1.631,1.631,0,0,0-.63-1.279,2.36,2.36,0,0,0-1.587-.537,2.47,2.47,0,0,0-1.543.43,1.353,1.353,0,0,0-.557,1.123,1.1,1.1,0,0,0,.518.986,6.368,6.368,0,0,0,1.87.635,9.744,9.744,0,0,1,2.192.723A3.2,3.2,0,0,1,36.27,49.63a2.485,2.485,0,0,1,.405,1.44,2.7,2.7,0,0,1-1.133,2.271A4.752,4.752,0,0,1,32.6,54.2a5.321,5.321,0,0,1-2.246-.449,3.653,3.653,0,0,1-1.528-1.255,3.025,3.025,0,0,1-.552-1.743h1.807a1.87,1.87,0,0,0,.728,1.44,2.822,2.822,0,0,0,1.792.532,2.913,2.913,0,0,0,1.646-.415A1.275,1.275,0,0,0,34.868,51.2ZM45.552,54a3.8,3.8,0,0,1-.254-1.113A4.031,4.031,0,0,1,42.29,54.2a3.73,3.73,0,0,1-2.563-.884,2.859,2.859,0,0,1-1-2.241,2.987,2.987,0,0,1,1.255-2.563,5.916,5.916,0,0,1,3.53-.913h1.758v-.83a2.029,2.029,0,0,0-.566-1.509,2.276,2.276,0,0,0-1.67-.562,2.634,2.634,0,0,0-1.621.488,1.439,1.439,0,0,0-.654,1.182H38.94a2.493,2.493,0,0,1,.562-1.528,3.832,3.832,0,0,1,1.523-1.167,5.125,5.125,0,0,1,2.114-.43A4.177,4.177,0,0,1,46,44.151a3.294,3.294,0,0,1,1.074,2.515v4.863a5.946,5.946,0,0,0,.371,2.314V54Zm-3-1.377a3.175,3.175,0,0,0,1.611-.439,2.658,2.658,0,0,0,1.1-1.143V48.873H43.853q-3.32,0-3.32,1.943a1.645,1.645,0,0,0,.566,1.328A2.177,2.177,0,0,0,42.554,52.623ZM-20.522,76.488a5.231,5.231,0,0,1-1.665,3.481A5.457,5.457,0,0,1-25.913,81.2a5.01,5.01,0,0,1-4.038-1.807,7.268,7.268,0,0,1-1.519-4.834V73.188a8.1,8.1,0,0,1,.708-3.486,5.289,5.289,0,0,1,2.007-2.31,5.588,5.588,0,0,1,3.008-.806,5.138,5.138,0,0,1,3.633,1.265,5.294,5.294,0,0,1,1.592,3.5h-1.885a4.067,4.067,0,0,0-1.06-2.461,3.212,3.212,0,0,0-2.28-.762,3.356,3.356,0,0,0-2.817,1.328,6.093,6.093,0,0,0-1.021,3.779v1.377a6.263,6.263,0,0,0,.967,3.682,3.125,3.125,0,0,0,2.705,1.367,3.608,3.608,0,0,0,2.4-.708,3.929,3.929,0,0,0,1.108-2.466ZM-16.284,81h-1.807V66h1.807Zm9.414,0a3.8,3.8,0,0,1-.254-1.113A4.031,4.031,0,0,1-10.132,81.2a3.73,3.73,0,0,1-2.563-.884,2.859,2.859,0,0,1-1-2.241,2.987,2.987,0,0,1,1.255-2.563,5.916,5.916,0,0,1,3.53-.913h1.758v-.83a2.029,2.029,0,0,0-.566-1.509,2.276,2.276,0,0,0-1.67-.562,2.634,2.634,0,0,0-1.621.488,1.439,1.439,0,0,0-.654,1.182h-1.816a2.493,2.493,0,0,1,.562-1.528A3.832,3.832,0,0,1-11.4,70.668a5.125,5.125,0,0,1,2.114-.43,4.177,4.177,0,0,1,2.861.913,3.294,3.294,0,0,1,1.074,2.515v4.863a5.946,5.946,0,0,0,.371,2.314V81Zm-3-1.377a3.175,3.175,0,0,0,1.611-.439,2.658,2.658,0,0,0,1.1-1.143V75.873H-8.569q-3.32,0-3.32,1.943a1.645,1.645,0,0,0,.566,1.328A2.177,2.177,0,0,0-9.868,79.623ZM-8.2,66h2.188l-2.617,2.871h-1.455ZM3.638,78.2a1.33,1.33,0,0,0-.552-1.138,5.311,5.311,0,0,0-1.924-.7,9.1,9.1,0,0,1-2.178-.7,3.1,3.1,0,0,1-1.191-.977,2.336,2.336,0,0,1-.386-1.348,2.741,2.741,0,0,1,1.1-2.2,4.291,4.291,0,0,1,2.808-.9,4.415,4.415,0,0,1,2.915.928,2.947,2.947,0,0,1,1.118,2.373H3.53A1.631,1.631,0,0,0,2.9,72.26a2.36,2.36,0,0,0-1.587-.537,2.47,2.47,0,0,0-1.543.43,1.353,1.353,0,0,0-.557,1.123,1.1,1.1,0,0,0,.518.986A6.368,6.368,0,0,0,1.6,74.9a9.744,9.744,0,0,1,2.192.723A3.2,3.2,0,0,1,5.039,76.63a2.485,2.485,0,0,1,.405,1.44,2.7,2.7,0,0,1-1.133,2.271,4.752,4.752,0,0,1-2.939.854,5.321,5.321,0,0,1-2.246-.449A3.653,3.653,0,0,1-2.4,79.491a3.025,3.025,0,0,1-.552-1.743h1.807a1.87,1.87,0,0,0,.728,1.44,2.822,2.822,0,0,0,1.792.532,2.913,2.913,0,0,0,1.646-.415A1.275,1.275,0,0,0,3.638,78.2ZM9.761,81H7.954V70.434H9.761ZM7.808,67.631a1.078,1.078,0,0,1,.269-.742,1.008,1.008,0,0,1,.8-.3,1.024,1.024,0,0,1,.8.3,1.067,1.067,0,0,1,.273.742,1.032,1.032,0,0,1-.273.732,1.043,1.043,0,0,1-.8.293,1.026,1.026,0,0,1-.8-.293A1.043,1.043,0,0,1,7.808,67.631Zm9.082,12.09a2.6,2.6,0,0,0,1.689-.586,2.061,2.061,0,0,0,.8-1.465h1.709a3.276,3.276,0,0,1-.625,1.729,4.116,4.116,0,0,1-1.538,1.309,4.438,4.438,0,0,1-2.036.488,4.353,4.353,0,0,1-3.433-1.44,5.737,5.737,0,0,1-1.274-3.94v-.3a6.361,6.361,0,0,1,.566-2.744A4.314,4.314,0,0,1,14.375,70.9a4.619,4.619,0,0,1,2.5-.664A4.238,4.238,0,0,1,19.834,71.3a3.8,3.8,0,0,1,1.255,2.764H19.38a2.49,2.49,0,0,0-.776-1.685,2.415,2.415,0,0,0-1.724-.659,2.529,2.529,0,0,0-2.134.991,4.655,4.655,0,0,0-.757,2.866v.342a4.562,4.562,0,0,0,.752,2.813A2.541,2.541,0,0,0,16.89,79.721ZM29.644,81a3.8,3.8,0,0,1-.254-1.113A4.031,4.031,0,0,1,26.382,81.2a3.73,3.73,0,0,1-2.563-.884,2.859,2.859,0,0,1-1-2.241,2.987,2.987,0,0,1,1.255-2.563,5.916,5.916,0,0,1,3.53-.913H29.36v-.83a2.029,2.029,0,0,0-.566-1.509,2.276,2.276,0,0,0-1.67-.562,2.634,2.634,0,0,0-1.621.488,1.439,1.439,0,0,0-.654,1.182H23.032a2.493,2.493,0,0,1,.562-1.528,3.832,3.832,0,0,1,1.523-1.167,5.125,5.125,0,0,1,2.114-.43,4.177,4.177,0,0,1,2.861.913,3.294,3.294,0,0,1,1.074,2.515v4.863a5.946,5.946,0,0,0,.371,2.314V81Zm-3-1.377a3.175,3.175,0,0,0,1.611-.439,2.658,2.658,0,0,0,1.1-1.143V75.873H27.944q-3.32,0-3.32,1.943a1.645,1.645,0,0,0,.566,1.328A2.177,2.177,0,0,0,26.646,79.623Z" transform="translate(672 13421)" fill="#646464"/>
    <path id="Trazado_874398" data-name="Trazado 874398" d="M-35.64-14.219l4.648,11.6,4.648-11.6h2.432V0h-1.875V-5.537l.176-5.977L-30.278,0h-1.436l-4.658-11.484.186,5.947V0h-1.875V-14.219Zm14.277,8.838a6.241,6.241,0,0,1,.61-2.793,4.553,4.553,0,0,1,1.7-1.914,4.626,4.626,0,0,1,2.485-.674,4.456,4.456,0,0,1,3.491,1.494,5.748,5.748,0,0,1,1.333,3.975v.127A6.3,6.3,0,0,1-12.334-2.4,4.486,4.486,0,0,1-14.023-.488,4.679,4.679,0,0,1-16.548.2,4.445,4.445,0,0,1-20.029-1.3a5.719,5.719,0,0,1-1.333-3.955Zm1.816.215a4.52,4.52,0,0,0,.815,2.822,2.61,2.61,0,0,0,2.183,1.064A2.594,2.594,0,0,0-14.36-2.358a4.943,4.943,0,0,0,.811-3.022A4.513,4.513,0,0,0-14.375-8.2a2.623,2.623,0,0,0-2.192-1.079,2.594,2.594,0,0,0-2.158,1.064A4.906,4.906,0,0,0-19.546-5.166Zm9.629-.205A6.19,6.19,0,0,1-8.765-9.282a3.644,3.644,0,0,1,3.018-1.479,3.665,3.665,0,0,1,2.939,1.27V-15H-1V0h-1.66l-.088-1.133A3.679,3.679,0,0,1-5.767.2a3.609,3.609,0,0,1-2.993-1.5A6.26,6.26,0,0,1-9.917-5.234Zm1.807.205a4.687,4.687,0,0,0,.742,2.813A2.4,2.4,0,0,0-5.317-1.338a2.636,2.636,0,0,0,2.51-1.543V-7.734A2.656,2.656,0,0,0-5.3-9.229,2.411,2.411,0,0,0-7.368-8.2,5.16,5.16,0,0,0-8.11-5.166ZM6.187.2a4.617,4.617,0,0,1-3.5-1.411A5.237,5.237,0,0,1,1.343-4.99v-.332a6.341,6.341,0,0,1,.6-2.808,4.685,4.685,0,0,1,1.68-1.934,4.223,4.223,0,0,1,2.339-.7A3.957,3.957,0,0,1,9.165-9.4a5.877,5.877,0,0,1,1.143,3.887v.752H3.149a3.756,3.756,0,0,0,.913,2.524,2.87,2.87,0,0,0,2.222.962A3.147,3.147,0,0,0,7.905-1.67,4.073,4.073,0,0,0,9.067-2.705l1.1.859A4.437,4.437,0,0,1,6.187.2ZM5.962-9.277a2.41,2.41,0,0,0-1.836.8A3.868,3.868,0,0,0,3.208-6.25H8.5v-.137a3.441,3.441,0,0,0-.742-2.134A2.269,2.269,0,0,0,5.962-9.277ZM17.5-8.945a5.414,5.414,0,0,0-.889-.068A2.381,2.381,0,0,0,14.2-7.5V0H12.4V-10.566h1.758l.029,1.221a2.813,2.813,0,0,1,2.52-1.416,1.846,1.846,0,0,1,.8.137Zm3.369-1.621.059,1.328A3.85,3.85,0,0,1,24.1-10.762q3.35,0,3.379,3.779V0H25.669V-6.992a2.432,2.432,0,0,0-.522-1.689,2.094,2.094,0,0,0-1.6-.547,2.607,2.607,0,0,0-1.543.469,3.183,3.183,0,0,0-1.035,1.23V0H19.165V-10.566ZM36.724,0a3.8,3.8,0,0,1-.254-1.113A4.031,4.031,0,0,1,33.462.2,3.73,3.73,0,0,1,30.9-.688a2.859,2.859,0,0,1-1-2.241,2.987,2.987,0,0,1,1.255-2.563,5.916,5.916,0,0,1,3.53-.913H36.44v-.83a2.029,2.029,0,0,0-.566-1.509,2.276,2.276,0,0,0-1.67-.562,2.634,2.634,0,0,0-1.621.488,1.439,1.439,0,0,0-.654,1.182H30.112a2.493,2.493,0,0,1,.562-1.528A3.832,3.832,0,0,1,32.2-10.332a5.125,5.125,0,0,1,2.114-.43,4.177,4.177,0,0,1,2.861.913,3.294,3.294,0,0,1,1.074,2.515v4.863a5.946,5.946,0,0,0,.371,2.314V0Zm-3-1.377a3.175,3.175,0,0,0,1.611-.439,2.658,2.658,0,0,0,1.1-1.143V-5.127H35.024q-3.32,0-3.32,1.943a1.645,1.645,0,0,0,.566,1.328A2.177,2.177,0,0,0,33.726-1.377ZM-23.765,27h-1.807V12h1.807Zm4.854,0h-1.807V16.434h1.807Zm-1.953-13.369a1.078,1.078,0,0,1,.269-.742,1.008,1.008,0,0,1,.8-.3,1.024,1.024,0,0,1,.8.3,1.067,1.067,0,0,1,.273.742,1.032,1.032,0,0,1-.273.732,1.043,1.043,0,0,1-.8.293,1.026,1.026,0,0,1-.8-.293A1.043,1.043,0,0,1-20.864,13.631Zm6.543,2.8.049,1.172a3.9,3.9,0,0,1,3.135-1.367,3.021,3.021,0,0,1,3.018,1.7,4,4,0,0,1,1.372-1.23,4.052,4.052,0,0,1,2-.469q3.477,0,3.535,3.682V27H-3.022V20.027a2.426,2.426,0,0,0-.518-1.694,2.279,2.279,0,0,0-1.738-.562,2.4,2.4,0,0,0-1.67.6,2.436,2.436,0,0,0-.771,1.616V27H-9.536V20.076a2.016,2.016,0,0,0-2.256-2.3,2.417,2.417,0,0,0-2.432,1.514V27H-16.03V16.434Zm24.756,5.4a6.327,6.327,0,0,1-1.1,3.887A3.537,3.537,0,0,1,6.343,27.2a3.875,3.875,0,0,1-3.027-1.221v5.088H1.509V16.434h1.65l.088,1.172a3.722,3.722,0,0,1,3.066-1.367,3.6,3.6,0,0,1,3.013,1.436,6.4,6.4,0,0,1,1.108,3.994Zm-1.807-.205a4.669,4.669,0,0,0-.762-2.822,2.454,2.454,0,0,0-2.09-1.035,2.656,2.656,0,0,0-2.461,1.455v5.049A2.661,2.661,0,0,0,5.8,25.721a2.442,2.442,0,0,0,2.065-1.03A5.1,5.1,0,0,0,8.628,21.629ZM14.692,27H12.886V16.434h1.807ZM12.739,13.631a1.078,1.078,0,0,1,.269-.742,1.008,1.008,0,0,1,.8-.3,1.024,1.024,0,0,1,.8.3,1.067,1.067,0,0,1,.273.742,1.032,1.032,0,0,1-.273.732,1.043,1.043,0,0,1-.8.293,1.026,1.026,0,0,1-.8-.293A1.043,1.043,0,0,1,12.739,13.631ZM24.106,27a3.8,3.8,0,0,1-.254-1.113A4.031,4.031,0,0,1,20.845,27.2a3.73,3.73,0,0,1-2.563-.884,2.859,2.859,0,0,1-1-2.241,2.987,2.987,0,0,1,1.255-2.563,5.916,5.916,0,0,1,3.53-.913h1.758v-.83a2.029,2.029,0,0,0-.566-1.509,2.276,2.276,0,0,0-1.67-.562,2.634,2.634,0,0,0-1.621.488,1.439,1.439,0,0,0-.654,1.182H17.5a2.493,2.493,0,0,1,.562-1.528,3.832,3.832,0,0,1,1.523-1.167,5.125,5.125,0,0,1,2.114-.43,4.177,4.177,0,0,1,2.861.913,3.294,3.294,0,0,1,1.074,2.515v4.863A5.946,5.946,0,0,0,26,26.844V27Zm-3-1.377a3.175,3.175,0,0,0,1.611-.439,2.658,2.658,0,0,0,1.1-1.143V21.873H22.407q-3.32,0-3.32,1.943a1.645,1.645,0,0,0,.566,1.328A2.177,2.177,0,0,0,21.108,25.623ZM-31.479,48.248h-3.34V54H-36.7V39.781H-32a5.571,5.571,0,0,1,3.7,1.094,3.935,3.935,0,0,1,1.294,3.184,3.828,3.828,0,0,1-.718,2.314,4.285,4.285,0,0,1-2,1.475l3.34,6.035V54h-2.012Zm-3.34-1.533h2.881a3.253,3.253,0,0,0,2.222-.723,2.442,2.442,0,0,0,.825-1.934,2.571,2.571,0,0,0-.786-2.021,3.333,3.333,0,0,0-2.271-.713h-2.871ZM-18.14,54a3.8,3.8,0,0,1-.254-1.113A4.031,4.031,0,0,1-21.4,54.2a3.73,3.73,0,0,1-2.563-.884,2.859,2.859,0,0,1-1-2.241,2.987,2.987,0,0,1,1.255-2.563,5.916,5.916,0,0,1,3.53-.913h1.758v-.83a2.029,2.029,0,0,0-.566-1.509,2.276,2.276,0,0,0-1.67-.562,2.634,2.634,0,0,0-1.621.488,1.439,1.439,0,0,0-.654,1.182h-1.816a2.493,2.493,0,0,1,.562-1.528,3.832,3.832,0,0,1,1.523-1.167,5.125,5.125,0,0,1,2.114-.43,4.177,4.177,0,0,1,2.861.913,3.294,3.294,0,0,1,1.074,2.515v4.863a5.946,5.946,0,0,0,.371,2.314V54Zm-3-1.377a3.175,3.175,0,0,0,1.611-.439,2.658,2.658,0,0,0,1.1-1.143V48.873h-1.416q-3.32,0-3.32,1.943a1.645,1.645,0,0,0,.566,1.328A2.177,2.177,0,0,0-21.138,52.623Zm11.592.1a2.6,2.6,0,0,0,1.689-.586,2.061,2.061,0,0,0,.8-1.465h1.709A3.276,3.276,0,0,1-5.972,52.4,4.116,4.116,0,0,1-7.51,53.707a4.438,4.438,0,0,1-2.036.488,4.353,4.353,0,0,1-3.433-1.44,5.737,5.737,0,0,1-1.274-3.94v-.3a6.361,6.361,0,0,1,.566-2.744A4.314,4.314,0,0,1-12.061,43.9a4.619,4.619,0,0,1,2.5-.664A4.238,4.238,0,0,1-6.6,44.3a3.8,3.8,0,0,1,1.255,2.764H-7.056a2.49,2.49,0,0,0-.776-1.685,2.415,2.415,0,0,0-1.724-.659,2.529,2.529,0,0,0-2.134.991,4.655,4.655,0,0,0-.757,2.866v.342a4.562,4.562,0,0,0,.752,2.813A2.541,2.541,0,0,0-9.546,52.721ZM-1.353,54H-3.159V43.434h1.807ZM-3.306,40.631a1.078,1.078,0,0,1,.269-.742,1.008,1.008,0,0,1,.8-.3,1.024,1.024,0,0,1,.8.3,1.067,1.067,0,0,1,.273.742,1.032,1.032,0,0,1-.273.732,1.043,1.043,0,0,1-.8.293,1.026,1.026,0,0,1-.8-.293A1.043,1.043,0,0,1-3.306,40.631ZM1.06,48.619a6.241,6.241,0,0,1,.61-2.793,4.553,4.553,0,0,1,1.7-1.914,4.626,4.626,0,0,1,2.485-.674,4.456,4.456,0,0,1,3.491,1.494,5.748,5.748,0,0,1,1.333,3.975v.127a6.3,6.3,0,0,1-.591,2.769A4.486,4.486,0,0,1,8.4,53.512a4.679,4.679,0,0,1-2.524.684A4.445,4.445,0,0,1,2.393,52.7,5.719,5.719,0,0,1,1.06,48.746Zm1.816.215a4.52,4.52,0,0,0,.815,2.822,2.61,2.61,0,0,0,2.183,1.064,2.594,2.594,0,0,0,2.188-1.079,4.943,4.943,0,0,0,.811-3.022A4.513,4.513,0,0,0,8.047,45.8a2.623,2.623,0,0,0-2.192-1.079A2.594,2.594,0,0,0,3.7,45.787,4.906,4.906,0,0,0,2.876,48.834Zm11.777-5.4.059,1.328a3.85,3.85,0,0,1,3.164-1.523q3.35,0,3.379,3.779V54H19.448V47.008a2.432,2.432,0,0,0-.522-1.689,2.094,2.094,0,0,0-1.6-.547,2.607,2.607,0,0,0-1.543.469,3.183,3.183,0,0,0-1.035,1.23V54H12.944V43.434ZM30.5,54a3.8,3.8,0,0,1-.254-1.113A4.031,4.031,0,0,1,27.241,54.2a3.73,3.73,0,0,1-2.563-.884,2.859,2.859,0,0,1-1-2.241,2.987,2.987,0,0,1,1.255-2.563,5.916,5.916,0,0,1,3.53-.913H30.22v-.83a2.029,2.029,0,0,0-.566-1.509,2.276,2.276,0,0,0-1.67-.562,2.634,2.634,0,0,0-1.621.488,1.439,1.439,0,0,0-.654,1.182H23.892a2.493,2.493,0,0,1,.562-1.528,3.832,3.832,0,0,1,1.523-1.167,5.125,5.125,0,0,1,2.114-.43,4.177,4.177,0,0,1,2.861.913,3.294,3.294,0,0,1,1.074,2.515v4.863a5.946,5.946,0,0,0,.371,2.314V54Zm-3-1.377a3.175,3.175,0,0,0,1.611-.439,2.658,2.658,0,0,0,1.1-1.143V48.873H28.8q-3.32,0-3.32,1.943a1.645,1.645,0,0,0,.566,1.328A2.177,2.177,0,0,0,27.5,52.623ZM36.821,54H35.015V39h1.807ZM-27.4,78.51l4.063-11.729h2.051L-26.562,81h-1.66l-5.264-14.219h2.041ZM-15.283,81.2a4.617,4.617,0,0,1-3.5-1.411,5.237,5.237,0,0,1-1.348-3.774v-.332a6.341,6.341,0,0,1,.6-2.808,4.685,4.685,0,0,1,1.68-1.934,4.223,4.223,0,0,1,2.339-.7A3.957,3.957,0,0,1-12.3,71.6a5.877,5.877,0,0,1,1.143,3.887v.752H-18.32a3.756,3.756,0,0,0,.913,2.524,2.87,2.87,0,0,0,2.222.962,3.147,3.147,0,0,0,1.621-.391A4.073,4.073,0,0,0-12.4,78.295l1.1.859A4.437,4.437,0,0,1-15.283,81.2Zm-.225-9.473a2.41,2.41,0,0,0-1.836.8,3.869,3.869,0,0,0-.918,2.231h5.293v-.137a3.441,3.441,0,0,0-.742-2.134A2.269,2.269,0,0,0-15.508,71.723Zm11.543.332a5.414,5.414,0,0,0-.889-.068A2.381,2.381,0,0,0-7.266,73.5V81H-9.072V70.434h1.758l.029,1.221a2.813,2.813,0,0,1,2.52-1.416,1.846,1.846,0,0,1,.8.137ZM3.848,78.2A1.33,1.33,0,0,0,3.3,77.06a5.311,5.311,0,0,0-1.924-.7,9.1,9.1,0,0,1-2.178-.7A3.1,3.1,0,0,1-2,74.682a2.336,2.336,0,0,1-.386-1.348,2.741,2.741,0,0,1,1.1-2.2,4.291,4.291,0,0,1,2.808-.9,4.415,4.415,0,0,1,2.915.928,2.947,2.947,0,0,1,1.118,2.373H3.74a1.631,1.631,0,0,0-.63-1.279,2.36,2.36,0,0,0-1.587-.537,2.47,2.47,0,0,0-1.543.43,1.353,1.353,0,0,0-.557,1.123,1.1,1.1,0,0,0,.518.986,6.368,6.368,0,0,0,1.87.635A9.744,9.744,0,0,1,4,75.619,3.2,3.2,0,0,1,5.249,76.63a2.485,2.485,0,0,1,.405,1.44,2.7,2.7,0,0,1-1.133,2.271,4.752,4.752,0,0,1-2.939.854,5.321,5.321,0,0,1-2.246-.449,3.653,3.653,0,0,1-1.528-1.255,3.025,3.025,0,0,1-.552-1.743H-.937a1.87,1.87,0,0,0,.728,1.44,2.822,2.822,0,0,0,1.792.532,2.913,2.913,0,0,0,1.646-.415A1.275,1.275,0,0,0,3.848,78.2ZM14.531,81a3.8,3.8,0,0,1-.254-1.113A4.031,4.031,0,0,1,11.27,81.2a3.73,3.73,0,0,1-2.563-.884,2.859,2.859,0,0,1-1-2.241A2.987,2.987,0,0,1,8.96,75.507a5.916,5.916,0,0,1,3.53-.913h1.758v-.83a2.029,2.029,0,0,0-.566-1.509,2.276,2.276,0,0,0-1.67-.562,2.634,2.634,0,0,0-1.621.488,1.439,1.439,0,0,0-.654,1.182H7.92a2.493,2.493,0,0,1,.562-1.528A3.832,3.832,0,0,1,10,70.668a5.125,5.125,0,0,1,2.114-.43,4.177,4.177,0,0,1,2.861.913,3.294,3.294,0,0,1,1.074,2.515v4.863a5.946,5.946,0,0,0,.371,2.314V81Zm-3-1.377a3.175,3.175,0,0,0,1.611-.439,2.658,2.658,0,0,0,1.1-1.143V75.873H12.832q-3.32,0-3.32,1.943a1.645,1.645,0,0,0,.566,1.328A2.177,2.177,0,0,0,11.533,79.623ZM13.2,66h2.188l-2.617,2.871H11.318Zm8.135,1.875v2.559h1.973v1.4H21.338v6.553a1.464,1.464,0,0,0,.264.952,1.11,1.11,0,0,0,.9.317,4.374,4.374,0,0,0,.859-.117V81a5.238,5.238,0,0,1-1.387.2,2.25,2.25,0,0,1-1.826-.732,3.147,3.147,0,0,1-.615-2.08V71.83H17.607v-1.4h1.924V67.875ZM27.383,81H25.576V70.434h1.807ZM25.43,67.631a1.078,1.078,0,0,1,.269-.742,1.008,1.008,0,0,1,.8-.3,1.024,1.024,0,0,1,.8.3,1.067,1.067,0,0,1,.273.742,1.032,1.032,0,0,1-.273.732,1.043,1.043,0,0,1-.8.293,1.026,1.026,0,0,1-.8-.293A1.043,1.043,0,0,1,25.43,67.631ZM32.236,81H30.43V66h1.807Z" transform="translate(941 13421)" fill="#646464"/>
    <path id="Trazado_874399" data-name="Trazado 874399" d="M-38.245-4.724a1.76,1.76,0,0,0-.665-1.465,8.269,8.269,0,0,0-2.338-1.086,22.427,22.427,0,0,1-2.734-1.086q-3.455-1.7-3.455-4.663a4.182,4.182,0,0,1,.861-2.606,5.566,5.566,0,0,1,2.435-1.758,9.477,9.477,0,0,1,3.54-.629,8.29,8.29,0,0,1,3.436.684A5.441,5.441,0,0,1-34.8-15.387,5.084,5.084,0,0,1-33.96-12.5h-4.272a2.149,2.149,0,0,0-.665-1.685,2.593,2.593,0,0,0-1.8-.6,2.924,2.924,0,0,0-1.813.507,1.554,1.554,0,0,0-.665,1.288,1.565,1.565,0,0,0,.732,1.239A9.236,9.236,0,0,0-39.868-10.6a15.778,15.778,0,0,1,3.027,1.276A5.087,5.087,0,0,1-33.96-4.749a4.34,4.34,0,0,1-1.758,3.662A7.819,7.819,0,0,1-40.54.244a9.566,9.566,0,0,1-3.912-.775,5.9,5.9,0,0,1-2.637-2.124,5.534,5.534,0,0,1-.885-3.107h4.3a2.726,2.726,0,0,0,.739,2.106,3.491,3.491,0,0,0,2.4.677,2.758,2.758,0,0,0,1.678-.458A1.511,1.511,0,0,0-38.245-4.724ZM-27.612,0h-4.126V-13.208h4.126Zm-4.37-16.614a1.836,1.836,0,0,1,.635-1.44,2.4,2.4,0,0,1,1.648-.562,2.4,2.4,0,0,1,1.648.562,1.836,1.836,0,0,1,.635,1.44,1.836,1.836,0,0,1-.635,1.44,2.4,2.4,0,0,1-1.648.562,2.4,2.4,0,0,1-1.648-.562A1.836,1.836,0,0,1-31.982-16.614ZM-21.3-13.208l.134,1.55A4.479,4.479,0,0,1-17.4-13.452a3.768,3.768,0,0,1,3.082,1.233,5.87,5.87,0,0,1,1.056,3.711V0h-4.126V-8.337a2.229,2.229,0,0,0-.4-1.471,1.864,1.864,0,0,0-1.465-.47,1.962,1.962,0,0,0-1.794.952V0h-4.114V-13.208ZM4.6-4.724a1.76,1.76,0,0,0-.665-1.465A8.269,8.269,0,0,0,1.6-7.275,22.427,22.427,0,0,1-1.135-8.362q-3.455-1.7-3.455-4.663a4.182,4.182,0,0,1,.861-2.606,5.566,5.566,0,0,1,2.435-1.758,9.477,9.477,0,0,1,3.54-.629,8.29,8.29,0,0,1,3.436.684,5.441,5.441,0,0,1,2.362,1.947A5.084,5.084,0,0,1,8.887-12.5H4.614a2.149,2.149,0,0,0-.665-1.685,2.593,2.593,0,0,0-1.8-.6,2.924,2.924,0,0,0-1.813.507A1.554,1.554,0,0,0-.33-12.988,1.565,1.565,0,0,0,.4-11.749,9.236,9.236,0,0,0,2.979-10.6,15.778,15.778,0,0,1,6.006-9.326,5.087,5.087,0,0,1,8.887-4.749,4.34,4.34,0,0,1,7.129-1.086,7.819,7.819,0,0,1,2.307.244,9.566,9.566,0,0,1-1.605-.531,5.9,5.9,0,0,1-4.242-2.655a5.534,5.534,0,0,1-.885-3.107h4.3A2.726,2.726,0,0,0-.092-3.656a3.491,3.491,0,0,0,2.4.677,2.758,2.758,0,0,0,1.678-.458A1.511,1.511,0,0,0,4.6-4.724ZM17.285.244a6.79,6.79,0,0,1-4.919-1.813,6.26,6.26,0,0,1-1.88-4.718v-.342a8.111,8.111,0,0,1,.751-3.577,5.493,5.493,0,0,1,2.191-2.4,6.615,6.615,0,0,1,3.418-.848,5.717,5.717,0,0,1,4.395,1.727,6.788,6.788,0,0,1,1.611,4.816v1.6H14.673a2.965,2.965,0,0,0,.964,1.746,2.869,2.869,0,0,0,1.929.635A3.7,3.7,0,0,0,20.618-4.3L22.5-2.075A5.255,5.255,0,0,1,20.319-.385,7.363,7.363,0,0,1,17.285.244Zm-.464-10.522q-1.807,0-2.148,2.393h4.15V-8.2a2.038,2.038,0,0,0-.5-1.532A1.992,1.992,0,0,0,16.821-10.278ZM32.5-9.485l-1.355-.1a2.434,2.434,0,0,0-2.49,1.221V0H24.536V-13.208h3.857l.134,1.7a3.185,3.185,0,0,1,2.893-1.941,4.012,4.012,0,0,1,1.147.146ZM38.318,0H34.192V-13.208h4.126Zm-4.37-16.614a1.836,1.836,0,0,1,.635-1.44,2.4,2.4,0,0,1,1.648-.562,2.4,2.4,0,0,1,1.648.562,1.836,1.836,0,0,1,.635,1.44,1.836,1.836,0,0,1-.635,1.44,2.4,2.4,0,0,1-1.648.562,2.4,2.4,0,0,1-1.648-.562A1.836,1.836,0,0,1,33.948-16.614ZM41.76,0V-10.352H39.844v-2.856H41.76v-1.05a4.563,4.563,0,0,1,1.331-3.5,5.257,5.257,0,0,1,3.735-1.245,8.18,8.18,0,0,1,1.929.256l.012,3.027a3.758,3.758,0,0,0-1.013-.11q-1.868,0-1.868,1.611v1.013h2.576v2.856H45.886V0Z" transform="translate(941 13369)" fill="#26aab7"/>
    <path id="Trazado_874400" data-name="Trazado 874400" d="M-27.31-26.387H-60.054l-3.9,9.023a20.079,20.079,0,0,0-1.914,7.451A6.191,6.191,0,0,0-62.72-4.17q1.846,1.094,9.092,1.641V0h-30.83V-2.529a13.783,13.783,0,0,0,8.2-4.136q3.213-3.384,7.93-13.979l33.154-73.965h1.3L-.444-18.594q4.785,10.8,7.861,13.6a10.736,10.736,0,0,0,6.563,2.461V0H-30.864V-2.529h1.846q5.4,0,7.588-1.5a3.651,3.651,0,0,0,1.5-3.145,8.377,8.377,0,0,0-.41-2.529q-.137-.615-2.051-5.127Zm-2.324-5.059L-43.442-63.369-57.661-31.445ZM55.542-9.434Q43.853.889,34.556.889A12.393,12.393,0,0,1,25.464-2.7a12.134,12.134,0,0,1-3.623-8.989q0-7.314,6.289-13.159T55.542-40.4v-6.426q0-7.246-.786-9.126a7.351,7.351,0,0,0-2.974-3.281,8.929,8.929,0,0,0-4.922-1.4,12.592,12.592,0,0,0-7.314,1.982,3.5,3.5,0,0,0-1.777,2.871q0,1.436,1.914,3.555a8.755,8.755,0,0,1,2.6,5.674,7.566,7.566,0,0,1-2.5,5.708,9.115,9.115,0,0,1-6.528,2.358,10.423,10.423,0,0,1-7.212-2.6,7.932,7.932,0,0,1-2.905-6.084,14.167,14.167,0,0,1,3.9-9.4,24.619,24.619,0,0,1,10.869-6.87A44.341,44.341,0,0,1,52.4-65.83q9.092,0,14.39,3.862t6.87,8.374q.957,2.871.957,13.193v24.814a25.712,25.712,0,0,0,.342,5.5,3.3,3.3,0,0,0,1.025,1.675,2.446,2.446,0,0,0,1.572.547q1.777,0,3.623-2.529L83.228-8.75A24.931,24.931,0,0,1,76.152-1.4,15.322,15.322,0,0,1,67.847.889q-5.469,0-8.545-2.563T55.542-9.434Zm0-4.99v-21.4q-8.271,4.854-12.3,10.391a12.645,12.645,0,0,0-2.666,7.451,7.828,7.828,0,0,0,2.256,5.537A6.2,6.2,0,0,0,47.612-10.6Q51.03-10.6,55.542-14.424Z" transform="translate(668 13315)" fill="#646464"/>
    <g id="Trazado_874401" data-name="Trazado 874401" transform="translate(685 13249)" fill="none">
      <path d="M16,0A16,16,0,1,1,0,16,16,16,0,0,1,16,0Z" stroke="none"/>
      <path d="M 16 1 C 11.99334907531738 1 8.226520538330078 2.560270309448242 5.393400192260742 5.393400192260742 C 2.560270309448242 8.226520538330078 1 11.99334907531738 1 16 C 1 20.00664901733398 2.560270309448242 23.77347946166992 5.393400192260742 26.60659980773926 C 8.226520538330078 29.43972969055176 11.99334907531738 31 16 31 C 20.00664901733398 31 23.77347946166992 29.43972969055176 26.60659980773926 26.60659980773926 C 29.43972969055176 23.77347946166992 31 20.00664901733398 31 16 C 31 11.99334907531738 29.43972969055176 8.226520538330078 26.60659980773926 5.393400192260742 C 23.77347946166992 2.560270309448242 20.00664901733398 1 16 1 M 16 0 C 24.8365592956543 0 32 7.163440704345703 32 16 C 32 24.8365592956543 24.8365592956543 32 16 32 C 7.163440704345703 32 0 24.8365592956543 0 16 C 0 7.163440704345703 7.163440704345703 0 16 0 Z" stroke="none" fill="#26aab7"/>
    </g>
    <g id="Trazado_874402" data-name="Trazado 874402" transform="translate(625 13295)" fill="none">
      <path d="M16,0A16,16,0,1,1,0,16,16,16,0,0,1,16,0Z" stroke="none"/>
      <path d="M 16 1 C 11.99334907531738 1 8.226520538330078 2.560270309448242 5.393400192260742 5.393400192260742 C 2.560270309448242 8.226520538330078 1 11.99334907531738 1 16 C 1 20.00664901733398 2.560270309448242 23.77347946166992 5.393400192260742 26.60659980773926 C 8.226520538330078 29.43972969055176 11.99334907531738 31 16 31 C 20.00664901733398 31 23.77347946166992 29.43972969055176 26.60659980773926 26.60659980773926 C 29.43972969055176 23.77347946166992 31 20.00664901733398 31 16 C 31 11.99334907531738 29.43972969055176 8.226520538330078 26.60659980773926 5.393400192260742 C 23.77347946166992 2.560270309448242 20.00664901733398 1 16 1 M 16 0 C 24.8365592956543 0 32 7.163440704345703 32 16 C 32 24.8365592956543 24.8365592956543 32 16 32 C 7.163440704345703 32 0 24.8365592956543 0 16 C 0 7.163440704345703 7.163440704345703 0 16 0 Z" stroke="none" fill="#26aab7"/>
    </g>
    <g id="Trazado_874403" data-name="Trazado 874403" transform="translate(729 13295)" fill="none">
      <path d="M16,0A16,16,0,1,1,0,16,16,16,0,0,1,16,0Z" stroke="none"/>
      <path d="M 16 1 C 11.99334907531738 1 8.226520538330078 2.560270309448242 5.393400192260742 5.393400192260742 C 2.560270309448242 8.226520538330078 1 11.99334907531738 1 16 C 1 20.00664901733398 2.560270309448242 23.77347946166992 5.393400192260742 26.60659980773926 C 8.226520538330078 29.43972969055176 11.99334907531738 31 16 31 C 20.00664901733398 31 23.77347946166992 29.43972969055176 26.60659980773926 26.60659980773926 C 29.43972969055176 23.77347946166992 31 20.00664901733398 31 16 C 31 11.99334907531738 29.43972969055176 8.226520538330078 26.60659980773926 5.393400192260742 C 23.77347946166992 2.560270309448242 20.00664901733398 1 16 1 M 16 0 C 24.8365592956543 0 32 7.163440704345703 32 16 C 32 24.8365592956543 24.8365592956543 32 16 32 C 7.163440704345703 32 0 24.8365592956543 0 16 C 0 7.163440704345703 7.163440704345703 0 16 0 Z" stroke="none" fill="#26aab7"/>
    </g>
    <g id="Trazado_874404" data-name="Trazado 874404" transform="translate(941 13244)" fill="none">
      <path d="M16,0A16,16,0,1,1,0,16,16,16,0,0,1,16,0Z" stroke="none"/>
      <path d="M 16 1 C 11.99334907531738 1 8.226520538330078 2.560270309448242 5.393400192260742 5.393400192260742 C 2.560270309448242 8.226520538330078 1 11.99334907531738 1 16 C 1 20.00664901733398 2.560270309448242 23.77347946166992 5.393400192260742 26.60659980773926 C 8.226520538330078 29.43972969055176 11.99334907531738 31 16 31 C 20.00664901733398 31 23.77347946166992 29.43972969055176 26.60659980773926 26.60659980773926 C 29.43972969055176 23.77347946166992 31 20.00664901733398 31 16 C 31 11.99334907531738 29.43972969055176 8.226520538330078 26.60659980773926 5.393400192260742 C 23.77347946166992 2.560270309448242 20.00664901733398 1 16 1 M 16 0 C 24.8365592956543 0 32 7.163440704345703 32 16 C 32 24.8365592956543 24.8365592956543 32 16 32 C 7.163440704345703 32 0 24.8365592956543 0 16 C 0 7.163440704345703 7.163440704345703 0 16 0 Z" stroke="none" fill="#26aab7"/>
    </g>
    <g id="Trazado_874405" data-name="Trazado 874405" transform="translate(844 13295)" fill="none">
      <path d="M16,0A16,16,0,1,1,0,16,16,16,0,0,1,16,0Z" stroke="none"/>
      <path d="M 16 1 C 11.99334907531738 1 8.226520538330078 2.560270309448242 5.393400192260742 5.393400192260742 C 2.560270309448242 8.226520538330078 1 11.99334907531738 1 16 C 1 20.00664901733398 2.560270309448242 23.77347946166992 5.393400192260742 26.60659980773926 C 8.226520538330078 29.43972969055176 11.99334907531738 31 16 31 C 20.00664901733398 31 23.77347946166992 29.43972969055176 26.60659980773926 26.60659980773926 C 29.43972969055176 23.77347946166992 31 20.00664901733398 31 16 C 31 11.99334907531738 29.43972969055176 8.226520538330078 26.60659980773926 5.393400192260742 C 23.77347946166992 2.560270309448242 20.00664901733398 1 16 1 M 16 0 C 24.8365592956543 0 32 7.163440704345703 32 16 C 32 24.8365592956543 24.8365592956543 32 16 32 C 7.163440704345703 32 0 24.8365592956543 0 16 C 0 7.163440704345703 7.163440704345703 0 16 0 Z" stroke="none" fill="#26aab7"/>
    </g>
    <g id="Trazado_874406" data-name="Trazado 874406" transform="translate(986 13295)" fill="none">
      <path d="M16,0A16,16,0,1,1,0,16,16,16,0,0,1,16,0Z" stroke="none"/>
      <path d="M 16 1 C 11.99334907531738 1 8.226520538330078 2.560270309448242 5.393400192260742 5.393400192260742 C 2.560270309448242 8.226520538330078 1 11.99334907531738 1 16 C 1 20.00664901733398 2.560270309448242 23.77347946166992 5.393400192260742 26.60659980773926 C 8.226520538330078 29.43972969055176 11.99334907531738 31 16 31 C 20.00664901733398 31 23.77347946166992 29.43972969055176 26.60659980773926 26.60659980773926 C 29.43972969055176 23.77347946166992 31 20.00664901733398 31 16 C 31 11.99334907531738 29.43972969055176 8.226520538330078 26.60659980773926 5.393400192260742 C 23.77347946166992 2.560270309448242 20.00664901733398 1 16 1 M 16 0 C 24.8365592956543 0 32 7.163440704345703 32 16 C 32 24.8365592956543 24.8365592956543 32 16 32 C 7.163440704345703 32 0 24.8365592956543 0 16 C 0 7.163440704345703 7.163440704345703 0 16 0 Z" stroke="none" fill="#26aab7"/>
    </g>
  </g>
</svg>
