<svg xmlns="http://www.w3.org/2000/svg" xmlns:xlink="http://www.w3.org/1999/xlink" width="85" height="62" viewBox="0 0 85 62">
  <defs>
    <clipPath id="clip-path">
      <rect id="Rect치ngulo_401523" data-name="Rect치ngulo 401523" width="62" height="62" transform="translate(203 5976)" fill="#62529b" stroke="#707070" stroke-width="1"/>
    </clipPath>
  </defs>
  <g id="Grupo_1099872" data-name="Grupo 1099872" transform="translate(-180 -5976)">
    <g id="Enmascarar_grupo_1098727" data-name="Enmascarar grupo 1098727" clip-path="url(#clip-path)">
      <g id="regla-de-los-tercios" transform="translate(200.933 5973.933)">
        <path id="Trazado_874056" data-name="Trazado 874056" d="M3.1,52.7H63.033a1.033,1.033,0,0,0,1.033-1.033v-37.2a1.033,1.033,0,0,0-1.033-1.033H3.1a1.033,1.033,0,0,0-1.033,1.033v37.2A1.033,1.033,0,0,0,3.1,52.7ZM21.7,15.5v3.1a1.033,1.033,0,1,0,2.067,0V15.5h18.6v3.1a1.033,1.033,0,1,0,2.067,0V15.5H62V25.833H58.9a1.033,1.033,0,0,0,0,2.067H62V38.233H58.9a1.033,1.033,0,0,0,0,2.067H62V50.633H44.433v-3.1a1.033,1.033,0,0,0-2.067,0v3.1h-18.6v-3.1a1.033,1.033,0,0,0-2.067,0v3.1H4.133V40.3h3.1a1.033,1.033,0,1,0,0-2.067h-3.1V27.9h3.1a1.033,1.033,0,0,0,0-2.067h-3.1V15.5Z" fill="#62529b"/>
        <path id="Trazado_874057" data-name="Trazado 874057" d="M45.467,38.233H44.433V37.2a1.033,1.033,0,0,0-2.067,0v1.033H41.333a1.033,1.033,0,0,0,0,2.067h1.033v1.033a1.033,1.033,0,0,0,2.067,0V40.3h1.033a1.033,1.033,0,1,0,0-2.067Z" fill="#62529b"/>
        <path id="Trazado_874058" data-name="Trazado 874058" d="M41.333,27.9h1.033v1.033a1.033,1.033,0,0,0,2.067,0V27.9h1.033a1.033,1.033,0,0,0,0-2.067H44.433V24.8a1.033,1.033,0,1,0-2.067,0v1.033H41.333a1.033,1.033,0,0,0,0,2.067Z" fill="#62529b"/>
        <path id="Trazado_874059" data-name="Trazado 874059" d="M20.667,27.9H21.7v1.033a1.033,1.033,0,0,0,2.067,0V27.9H24.8a1.033,1.033,0,0,0,0-2.067H23.767V24.8a1.033,1.033,0,0,0-2.067,0v1.033H20.667a1.033,1.033,0,0,0,0,2.067Z" fill="#62529b"/>
        <path id="Trazado_874060" data-name="Trazado 874060" d="M20.667,40.3H21.7v1.033a1.033,1.033,0,0,0,2.067,0V40.3H24.8a1.033,1.033,0,1,0,0-2.067H23.767V37.2a1.033,1.033,0,0,0-2.067,0v1.033H20.667a1.033,1.033,0,0,0,0,2.067Z" fill="#62529b"/>
        <path id="Trazado_874061" data-name="Trazado 874061" d="M33.067,38.233A5.167,5.167,0,1,0,27.9,33.067,5.167,5.167,0,0,0,33.067,38.233Zm0-8.267a3.1,3.1,0,1,1-3.1,3.1A3.1,3.1,0,0,1,33.067,29.967Z" fill="#62529b"/>
      </g>
    </g>
    <rect id="Rect치ngulo_401532" data-name="Rect치ngulo 401532" width="16" height="62" transform="translate(180 5976)" fill="#62529b"/>
  </g>
</svg>
