<svg xmlns="http://www.w3.org/2000/svg" width="1030" height="128" viewBox="0 0 1030 128">
  <g id="Grupo_1099942" data-name="Grupo 1099942" transform="translate(3114 8264)">
    <path id="Rectángulo_401310" data-name="Rectángulo 401310" d="M20,0h990a20,20,0,0,1,20,20V128a0,0,0,0,1,0,0H0a0,0,0,0,1,0,0V20A20,20,0,0,1,20,0Z" transform="translate(-3114 -8264)" fill="#fff"/>
    <path id="Trazado_874374" data-name="Trazado 874374" d="M0,0H80V54H0Z" transform="translate(-2868 -8225)" fill="#8c0000"/>
    <path id="Trazado_874375" data-name="Trazado 874375" d="M0,0H80V54H0Z" transform="translate(-2751 -8225)" fill="#c60000"/>
    <path id="Trazado_874376" data-name="Trazado 874376" d="M0,0H80V54H0Z" transform="translate(-2634 -8225)" fill="red"/>
    <path id="Trazado_874377" data-name="Trazado 874377" d="M0,0H80V54H0Z" transform="translate(-2521 -8225)" fill="#ff6b6b"/>
    <path id="Trazado_874378" data-name="Trazado 874378" d="M0,0H80V54H0Z" transform="translate(-2410 -8225)" fill="#ffc6c6"/>
    <path id="Trazado_874379" data-name="Trazado 874379" d="M-20.915-2.4h-1.131L-22.468,0H-23.54l.422-2.4h-1.33V-3.41h1.506l.293-1.664h-1.359v-1.02h1.541l.428-2.437h1.066L-21.4-6.094h1.137l.428-2.437h1.072l-.428,2.438h1.283v1.02h-1.465l-.293,1.664h1.313V-2.4h-1.488L-20.265,0h-1.072ZM-21.87-3.41h1.131l.293-1.664h-1.137Zm10.336-2.854a1.984,1.984,0,0,1-.311,1.1,2.235,2.235,0,0,1-.855.768,2.474,2.474,0,0,1,.984.823,2.112,2.112,0,0,1,.363,1.233,2.236,2.236,0,0,1-.773,1.8,3.137,3.137,0,0,1-2.1.659,3.152,3.152,0,0,1-2.109-.662,2.231,2.231,0,0,1-.779-1.793,2.125,2.125,0,0,1,.363-1.236,2.429,2.429,0,0,1,.979-.82,2.212,2.212,0,0,1-.853-.768,2,2,0,0,1-.308-1.1A2.211,2.211,0,0,1-16.21-8a2.861,2.861,0,0,1,1.975-.647,2.88,2.88,0,0,1,1.972.642A2.2,2.2,0,0,1-11.534-6.264Zm-1.518,3.8a1.228,1.228,0,0,0-.322-.891,1.149,1.149,0,0,0-.867-.334,1.147,1.147,0,0,0-.861.331,1.226,1.226,0,0,0-.322.894,1.225,1.225,0,0,0,.316.879,1.152,1.152,0,0,0,.879.334,1.15,1.15,0,0,0,.864-.322A1.223,1.223,0,0,0-13.052-2.461Zm-.176-3.721a1.172,1.172,0,0,0-.264-.8.936.936,0,0,0-.744-.3.942.942,0,0,0-.738.293,1.165,1.165,0,0,0-.264.809,1.224,1.224,0,0,0,.264.82.923.923,0,0,0,.744.311.914.914,0,0,0,.741-.311A1.233,1.233,0,0,0-13.228-6.182Zm8.016,4.424H-8.294L-8.88,0h-1.869l3.176-8.531h1.629L-2.751,0H-4.62ZM-7.819-3.182h2.133L-6.759-6.375ZM3.606-3.527A4.322,4.322,0,0,1,2.874-.82,2.557,2.557,0,0,1,.729.117,2.574,2.574,0,0,1-1.4-.8a4.2,4.2,0,0,1-.756-2.637V-5.01a4.265,4.265,0,0,1,.741-2.713A2.576,2.576,0,0,1,.718-8.648a2.578,2.578,0,0,1,2.133.917A4.182,4.182,0,0,1,3.606-5.1ZM1.913-5.25a3.118,3.118,0,0,0-.29-1.544.98.98,0,0,0-.905-.483.963.963,0,0,0-.882.46,2.918,2.918,0,0,0-.3,1.438V-3.3a3.273,3.273,0,0,0,.284,1.55.967.967,0,0,0,.911.507.951.951,0,0,0,.9-.486,3.2,3.2,0,0,0,.287-1.488ZM10.6,0H4.749V-1.16L7.509-4.1A6.808,6.808,0,0,0,8.35-5.186a1.742,1.742,0,0,0,.272-.879,1.3,1.3,0,0,0-.287-.894,1.036,1.036,0,0,0-.82-.325,1.118,1.118,0,0,0-.905.4,1.567,1.567,0,0,0-.331,1.04h-1.7a2.8,2.8,0,0,1,.372-1.424A2.622,2.622,0,0,1,6-8.282a3.2,3.2,0,0,1,1.541-.366,3.027,3.027,0,0,1,2.048.633,2.239,2.239,0,0,1,.729,1.787,2.868,2.868,0,0,1-.328,1.289A7.164,7.164,0,0,1,8.868-3.41L6.929-1.365H10.6Zm6.779-3.527A4.322,4.322,0,0,1,16.644-.82,2.557,2.557,0,0,1,14.5.117,2.574,2.574,0,0,1,12.366-.8a4.2,4.2,0,0,1-.756-2.637V-5.01a4.265,4.265,0,0,1,.741-2.713,2.576,2.576,0,0,1,2.136-.926,2.578,2.578,0,0,1,2.133.917A4.182,4.182,0,0,1,17.376-5.1ZM15.683-5.25a3.118,3.118,0,0,0-.29-1.544.98.98,0,0,0-.905-.483.963.963,0,0,0-.882.46,2.918,2.918,0,0,0-.3,1.438V-3.3a3.273,3.273,0,0,0,.284,1.55.967.967,0,0,0,.911.507.951.951,0,0,0,.9-.486,3.2,3.2,0,0,0,.287-1.488ZM24.366,0H18.519V-1.16L21.278-4.1a6.808,6.808,0,0,0,.841-1.084,1.742,1.742,0,0,0,.272-.879,1.3,1.3,0,0,0-.287-.894,1.036,1.036,0,0,0-.82-.325,1.118,1.118,0,0,0-.905.4,1.567,1.567,0,0,0-.331,1.04h-1.7a2.8,2.8,0,0,1,.372-1.424,2.622,2.622,0,0,1,1.052-1.011,3.2,3.2,0,0,1,1.541-.366,3.027,3.027,0,0,1,2.048.633,2.239,2.239,0,0,1,.729,1.787,2.868,2.868,0,0,1-.328,1.289A7.164,7.164,0,0,1,22.638-3.41L20.7-1.365h3.668Z" transform="translate(-2831 -8158)" fill="#12263f"/>
    <path id="Trazado_874380" data-name="Trazado 874380" d="M-20.8-2.4h-1.131L-22.356,0h-1.072l.422-2.4h-1.33V-3.41h1.506l.293-1.664H-23.9v-1.02h1.541l.428-2.437h1.066l-.428,2.438h1.137l.428-2.437h1.072l-.428,2.438H-17.8v1.02h-1.465l-.293,1.664h1.313V-2.4h-1.488L-20.153,0h-1.072Zm-.955-1.008h1.131l.293-1.664h-1.137Zm11.654.568A3.019,3.019,0,0,1-11.121-.674a3.57,3.57,0,0,1-2.417.791,3.21,3.21,0,0,1-2.581-1.1,4.529,4.529,0,0,1-.94-3.032v-.521a5.114,5.114,0,0,1,.434-2.168,3.249,3.249,0,0,1,1.239-1.438,3.471,3.471,0,0,1,1.872-.5,3.478,3.478,0,0,1,2.379.791,3.244,3.244,0,0,1,1.043,2.221h-1.758a1.782,1.782,0,0,0-.46-1.2,1.7,1.7,0,0,0-1.2-.372,1.494,1.494,0,0,0-1.315.63,3.53,3.53,0,0,0-.448,1.954v.645a3.778,3.778,0,0,0,.419,2.021,1.466,1.466,0,0,0,1.321.639,1.735,1.735,0,0,0,1.216-.372,1.681,1.681,0,0,0,.46-1.151Zm5.566-5.777v1.395H-4.7a2.877,2.877,0,0,0-1.849.6,2.428,2.428,0,0,0-.841,1.611,2.306,2.306,0,0,1,1.717-.691,2.173,2.173,0,0,1,1.77.8,3.194,3.194,0,0,1,.656,2.1,3.142,3.142,0,0,1-.36,1.506A2.584,2.584,0,0,1-4.629-.258,2.962,2.962,0,0,1-6.12.117,2.766,2.766,0,0,1-8.3-.82a3.639,3.639,0,0,1-.829-2.5v-.609A5.477,5.477,0,0,1-8.6-6.384,3.845,3.845,0,0,1-7.1-8.03a4.413,4.413,0,0,1,2.276-.589ZM-6.19-4.348a1.351,1.351,0,0,0-.744.214,1.288,1.288,0,0,0-.492.565v.516a2.288,2.288,0,0,0,.334,1.327,1.079,1.079,0,0,0,.938.478,1.067,1.067,0,0,0,.882-.431,1.759,1.759,0,0,0,.337-1.116,1.755,1.755,0,0,0-.34-1.125A1.107,1.107,0,0,0-6.19-4.348Zm9.686.82A4.322,4.322,0,0,1,2.763-.82,2.557,2.557,0,0,1,.618.117,2.574,2.574,0,0,1-1.515-.8a4.2,4.2,0,0,1-.756-2.637V-5.01a4.265,4.265,0,0,1,.741-2.713A2.576,2.576,0,0,1,.606-8.648a2.578,2.578,0,0,1,2.133.917A4.182,4.182,0,0,1,3.5-5.1ZM1.8-5.25a3.118,3.118,0,0,0-.29-1.544.98.98,0,0,0-.905-.483.963.963,0,0,0-.882.46,2.918,2.918,0,0,0-.3,1.438V-3.3a3.273,3.273,0,0,0,.284,1.55.967.967,0,0,0,.911.507.951.951,0,0,0,.9-.486A3.2,3.2,0,0,0,1.8-3.223ZM10.38-3.527A4.322,4.322,0,0,1,9.647-.82,2.557,2.557,0,0,1,7.5.117,2.574,2.574,0,0,1,5.37-.8a4.2,4.2,0,0,1-.756-2.637V-5.01a4.265,4.265,0,0,1,.741-2.713,2.576,2.576,0,0,1,2.136-.926,2.578,2.578,0,0,1,2.133.917A4.182,4.182,0,0,1,10.38-5.1ZM8.687-5.25A3.118,3.118,0,0,0,8.4-6.794a.98.98,0,0,0-.905-.483.963.963,0,0,0-.882.46,2.918,2.918,0,0,0-.3,1.438V-3.3a3.273,3.273,0,0,0,.284,1.55.967.967,0,0,0,.911.507.951.951,0,0,0,.9-.486,3.2,3.2,0,0,0,.287-1.488Zm8.578,1.723A4.322,4.322,0,0,1,16.532-.82a2.557,2.557,0,0,1-2.145.938A2.574,2.574,0,0,1,12.255-.8,4.2,4.2,0,0,1,11.5-3.439V-5.01a4.265,4.265,0,0,1,.741-2.713,2.576,2.576,0,0,1,2.136-.926,2.578,2.578,0,0,1,2.133.917A4.182,4.182,0,0,1,17.265-5.1ZM15.571-5.25a3.118,3.118,0,0,0-.29-1.544.98.98,0,0,0-.905-.483.963.963,0,0,0-.882.46,2.918,2.918,0,0,0-.3,1.438V-3.3a3.273,3.273,0,0,0,.284,1.55.967.967,0,0,0,.911.507.951.951,0,0,0,.9-.486,3.2,3.2,0,0,0,.287-1.488Zm8.578,1.723A4.322,4.322,0,0,1,23.417-.82a2.557,2.557,0,0,1-2.145.938A2.574,2.574,0,0,1,19.14-.8a4.2,4.2,0,0,1-.756-2.637V-5.01a4.265,4.265,0,0,1,.741-2.713,2.576,2.576,0,0,1,2.136-.926,2.578,2.578,0,0,1,2.133.917A4.182,4.182,0,0,1,24.149-5.1ZM22.456-5.25a3.118,3.118,0,0,0-.29-1.544.98.98,0,0,0-.905-.483.963.963,0,0,0-.882.46,2.918,2.918,0,0,0-.3,1.438V-3.3a3.273,3.273,0,0,0,.284,1.55.967.967,0,0,0,.911.507.951.951,0,0,0,.9-.486,3.2,3.2,0,0,0,.287-1.488Z" transform="translate(-2713 -8158)" fill="#12263f"/>
    <path id="Trazado_874381" data-name="Trazado 874381" d="M-20.01-2.4h-1.131L-21.562,0h-1.072l.422-2.4h-1.33V-3.41h1.506l.293-1.664H-23.1v-1.02h1.541l.428-2.437h1.066L-20.5-6.094h1.137l.428-2.437h1.072l-.428,2.438H-17v1.02h-1.465l-.293,1.664h1.313V-2.4h-1.488L-19.359,0h-1.072Zm-.955-1.008h1.131l.293-1.664h-1.137Zm10.09-.076H-14.25V0h-1.758V-8.531h5.555v1.424h-3.8v2.2h3.375Zm6.574,0H-7.676V0H-9.434V-8.531h5.555v1.424h-3.8v2.2H-4.3Zm7-.041A4.322,4.322,0,0,1,1.969-.82,2.557,2.557,0,0,1-.176.117,2.574,2.574,0,0,1-2.309-.8a4.2,4.2,0,0,1-.756-2.637V-5.01a4.265,4.265,0,0,1,.741-2.713A2.576,2.576,0,0,1-.187-8.648a2.578,2.578,0,0,1,2.133.917A4.182,4.182,0,0,1,2.7-5.1ZM1.008-5.25a3.118,3.118,0,0,0-.29-1.544.98.98,0,0,0-.905-.483.963.963,0,0,0-.882.46,2.918,2.918,0,0,0-.3,1.438V-3.3a3.273,3.273,0,0,0,.284,1.55.967.967,0,0,0,.911.507.951.951,0,0,0,.9-.486,3.2,3.2,0,0,0,.287-1.488ZM9.586-3.527A4.322,4.322,0,0,1,8.854-.82,2.557,2.557,0,0,1,6.709.117,2.574,2.574,0,0,1,4.576-.8,4.2,4.2,0,0,1,3.82-3.439V-5.01a4.265,4.265,0,0,1,.741-2.713A2.576,2.576,0,0,1,6.7-8.648a2.578,2.578,0,0,1,2.133.917A4.182,4.182,0,0,1,9.586-5.1ZM7.893-5.25A3.118,3.118,0,0,0,7.6-6.794.98.98,0,0,0,6.7-7.277a.963.963,0,0,0-.882.46,2.918,2.918,0,0,0-.3,1.438V-3.3A3.273,3.273,0,0,0,5.8-1.755a.967.967,0,0,0,.911.507.951.951,0,0,0,.9-.486,3.2,3.2,0,0,0,.287-1.488Zm8.578,1.723A4.322,4.322,0,0,1,15.738-.82a2.557,2.557,0,0,1-2.145.938A2.574,2.574,0,0,1,11.461-.8a4.2,4.2,0,0,1-.756-2.637V-5.01a4.265,4.265,0,0,1,.741-2.713,2.576,2.576,0,0,1,2.136-.926,2.578,2.578,0,0,1,2.133.917A4.182,4.182,0,0,1,16.471-5.1ZM14.777-5.25a3.118,3.118,0,0,0-.29-1.544.98.98,0,0,0-.905-.483.963.963,0,0,0-.882.46,2.918,2.918,0,0,0-.3,1.438V-3.3a3.273,3.273,0,0,0,.284,1.55.967.967,0,0,0,.911.507.951.951,0,0,0,.9-.486,3.2,3.2,0,0,0,.287-1.488Zm8.578,1.723A4.322,4.322,0,0,1,22.623-.82a2.557,2.557,0,0,1-2.145.938A2.574,2.574,0,0,1,18.346-.8a4.2,4.2,0,0,1-.756-2.637V-5.01a4.265,4.265,0,0,1,.741-2.713,2.576,2.576,0,0,1,2.136-.926,2.578,2.578,0,0,1,2.133.917A4.182,4.182,0,0,1,23.355-5.1ZM21.662-5.25a3.118,3.118,0,0,0-.29-1.544.98.98,0,0,0-.905-.483.963.963,0,0,0-.882.46,2.918,2.918,0,0,0-.3,1.438V-3.3a3.273,3.273,0,0,0,.284,1.55.967.967,0,0,0,.911.507.951.951,0,0,0,.9-.486,3.2,3.2,0,0,0,.287-1.488Z" transform="translate(-2595 -8158)" fill="#12263f"/>
    <path id="Trazado_874382" data-name="Trazado 874382" d="M-21.2-2.4H-22.33L-22.752,0h-1.072l.422-2.4h-1.33V-3.41h1.506l.293-1.664h-1.359v-1.02h1.541l.428-2.437h1.066l-.428,2.438h1.137l.428-2.437h1.072l-.428,2.438h1.283v1.02h-1.465l-.293,1.664h1.313V-2.4h-1.488L-20.549,0h-1.072Zm-.955-1.008h1.131l.293-1.664h-1.137Zm10.09-.076h-3.375V0H-17.2V-8.531h5.555v1.424h-3.8v2.2h3.375Zm6.574,0H-8.865V0h-1.758V-8.531h5.555v1.424h-3.8v2.2H-5.49ZM.363-8.619v1.395H.2a2.877,2.877,0,0,0-1.849.6A2.428,2.428,0,0,0-2.49-5.016,2.306,2.306,0,0,1-.773-5.707,2.173,2.173,0,0,1,1-4.91a3.194,3.194,0,0,1,.656,2.1,3.142,3.142,0,0,1-.36,1.506A2.584,2.584,0,0,1,.272-.258,2.962,2.962,0,0,1-1.219.117,2.766,2.766,0,0,1-3.4-.82a3.639,3.639,0,0,1-.829-2.5v-.609A5.477,5.477,0,0,1-3.7-6.384,3.845,3.845,0,0,1-2.194-8.03,4.413,4.413,0,0,1,.082-8.619ZM-1.289-4.348a1.351,1.351,0,0,0-.744.214,1.288,1.288,0,0,0-.492.565v.516a2.288,2.288,0,0,0,.334,1.327,1.079,1.079,0,0,0,.938.478,1.067,1.067,0,0,0,.882-.431A1.759,1.759,0,0,0-.035-2.795,1.755,1.755,0,0,0-.375-3.92,1.107,1.107,0,0,0-1.289-4.348Zm8.941,2.59H4.57L3.984,0H2.115L5.291-8.531H6.92L10.113,0H8.244ZM5.045-3.182H7.178L6.105-6.375ZM15.322-8.619v1.395h-.164a2.877,2.877,0,0,0-1.849.6,2.428,2.428,0,0,0-.841,1.611,2.306,2.306,0,0,1,1.717-.691,2.173,2.173,0,0,1,1.77.8,3.194,3.194,0,0,1,.656,2.1,3.142,3.142,0,0,1-.36,1.506,2.584,2.584,0,0,1-1.02,1.049A2.962,2.962,0,0,1,13.74.117,2.766,2.766,0,0,1,11.563-.82a3.639,3.639,0,0,1-.829-2.5v-.609a5.477,5.477,0,0,1,.524-2.452A3.845,3.845,0,0,1,12.765-8.03a4.413,4.413,0,0,1,2.276-.589ZM13.67-4.348a1.351,1.351,0,0,0-.744.214,1.288,1.288,0,0,0-.492.565v.516a2.288,2.288,0,0,0,.334,1.327,1.079,1.079,0,0,0,.938.478,1.067,1.067,0,0,0,.882-.431,1.759,1.759,0,0,0,.337-1.116,1.755,1.755,0,0,0-.34-1.125A1.107,1.107,0,0,0,13.67-4.348Zm8.941,2.59H19.529L18.943,0H17.074L20.25-8.531h1.629L25.072,0H23.2ZM20-3.182h2.133L21.064-6.375Z" transform="translate(-2481 -8158)" fill="#12263f"/>
    <path id="Trazado_874383" data-name="Trazado 874383" d="M-20.977-2.4h-1.131L-22.529,0H-23.6l.422-2.4h-1.33V-3.41H-23l.293-1.664H-24.07v-1.02h1.541l.428-2.437h1.066l-.428,2.438h1.137l.428-2.437h1.072l-.428,2.438h1.283v1.02h-1.465l-.293,1.664h1.313V-2.4H-19.9L-20.326,0H-21.4Zm-.955-1.008H-20.8l.293-1.664h-1.137Zm10.09-.076h-3.375V0h-1.758V-8.531h5.555v1.424h-3.8v2.2h3.375Zm6.574,0H-8.643V0H-10.4V-8.531h5.555v1.424h-3.8v2.2h3.375Zm8.139.645A3.019,3.019,0,0,1,1.854-.674,3.57,3.57,0,0,1-.562.117a3.21,3.21,0,0,1-2.581-1.1,4.529,4.529,0,0,1-.94-3.032v-.521A5.114,5.114,0,0,1-3.65-6.709,3.249,3.249,0,0,1-2.411-8.147a3.471,3.471,0,0,1,1.872-.5,3.478,3.478,0,0,1,2.379.791A3.244,3.244,0,0,1,2.883-5.637H1.125a1.782,1.782,0,0,0-.46-1.2,1.7,1.7,0,0,0-1.2-.372,1.494,1.494,0,0,0-1.315.63A3.53,3.53,0,0,0-2.3-4.623v.645a3.778,3.778,0,0,0,.419,2.021,1.466,1.466,0,0,0,1.321.639A1.735,1.735,0,0,0,.653-1.69a1.681,1.681,0,0,0,.46-1.151ZM7.957,0H6.264V-6.527L4.242-5.9V-7.277L7.775-8.543h.182Zm9.65-2.842A3.019,3.019,0,0,1,16.591-.674a3.57,3.57,0,0,1-2.417.791,3.21,3.21,0,0,1-2.581-1.1,4.529,4.529,0,0,1-.94-3.032v-.521a5.114,5.114,0,0,1,.434-2.168,3.249,3.249,0,0,1,1.239-1.438,3.471,3.471,0,0,1,1.872-.5,3.478,3.478,0,0,1,2.379.791,3.244,3.244,0,0,1,1.043,2.221H15.861a1.782,1.782,0,0,0-.46-1.2,1.7,1.7,0,0,0-1.2-.372,1.494,1.494,0,0,0-1.315.63,3.53,3.53,0,0,0-.448,1.954v.645a3.778,3.778,0,0,0,.419,2.021,1.466,1.466,0,0,0,1.321.639A1.735,1.735,0,0,0,15.39-1.69a1.681,1.681,0,0,0,.46-1.151ZM22.693,0H21V-6.527L18.979-5.9V-7.277l3.533-1.266h.182Z" transform="translate(-2370 -8158)" fill="#12263f"/>
  </g>
</svg>
