<svg xmlns="http://www.w3.org/2000/svg" width="1030" height="128" viewBox="0 0 1030 128">
  <g id="Grupo_1099943" data-name="Grupo 1099943" transform="translate(3114 7649)">
    <path id="Rectángulo_401312" data-name="Rectángulo 401312" d="M20,0h990a20,20,0,0,1,20,20V128a0,0,0,0,1,0,0H0a0,0,0,0,1,0,0V20A20,20,0,0,1,20,0Z" transform="translate(-3114 -7649)" fill="#fff"/>
    <path id="Trazado_874384" data-name="Trazado 874384" d="M0,0H80V54H0Z" transform="translate(-2865 -7620)" fill="#c60000"/>
    <path id="Trazado_874385" data-name="Trazado 874385" d="M0,0H80V54H0Z" transform="translate(-2748 -7620)" fill="#e70000"/>
    <path id="Trazado_874386" data-name="Trazado 874386" d="M0,0H80V54H0Z" transform="translate(-2631 -7620)" fill="red"/>
    <path id="Trazado_874387" data-name="Trazado 874387" d="M0,0H80V54H0Z" transform="translate(-2518 -7620)" fill="red"/>
    <path id="Trazado_874388" data-name="Trazado 874388" d="M0,0H80V54H0Z" transform="translate(-2407 -7620)" fill="#ff3939"/>
    <path id="Trazado_874389" data-name="Trazado 874389" d="M-41.262-3.469A8.992,8.992,0,0,1-40.9-6.023,6.742,6.742,0,0,1-39.85-8.171a3.938,3.938,0,0,1,1.512-1.3l.328.914A4.079,4.079,0,0,0-39.346-6.6a9.061,9.061,0,0,0-.48,3.094v.182a9.235,9.235,0,0,0,.475,3.105A4.158,4.158,0,0,0-38.01,1.77l-.328.9A3.94,3.94,0,0,1-39.823,1.4,6.629,6.629,0,0,1-40.875-.686a8.939,8.939,0,0,1-.387-2.473Zm7.43.5h-3.3V-4.336h3.3Zm5.883-5.648v1.395h-.164a2.877,2.877,0,0,0-1.849.6A2.428,2.428,0,0,0-30.8-5.016a2.306,2.306,0,0,1,1.717-.691,2.173,2.173,0,0,1,1.77.8,3.194,3.194,0,0,1,.656,2.1,3.142,3.142,0,0,1-.36,1.506A2.584,2.584,0,0,1-28.04-.258a2.962,2.962,0,0,1-1.491.375A2.766,2.766,0,0,1-31.708-.82a3.639,3.639,0,0,1-.829-2.5v-.609a5.477,5.477,0,0,1,.524-2.452A3.845,3.845,0,0,1-30.507-8.03a4.413,4.413,0,0,1,2.276-.589ZM-29.6-4.348a1.351,1.351,0,0,0-.744.214,1.288,1.288,0,0,0-.492.565v.516A2.288,2.288,0,0,0-30.5-1.726a1.079,1.079,0,0,0,.938.478,1.067,1.067,0,0,0,.882-.431,1.759,1.759,0,0,0,.337-1.116,1.755,1.755,0,0,0-.34-1.125A1.107,1.107,0,0,0-29.6-4.348Zm9.686.82A4.322,4.322,0,0,1-20.648-.82a2.557,2.557,0,0,1-2.145.938A2.574,2.574,0,0,1-24.926-.8a4.2,4.2,0,0,1-.756-2.637V-5.01a4.265,4.265,0,0,1,.741-2.713A2.576,2.576,0,0,1-22.8-8.648a2.578,2.578,0,0,1,2.133.917A4.182,4.182,0,0,1-19.916-5.1ZM-21.609-5.25a3.118,3.118,0,0,0-.29-1.544.98.98,0,0,0-.905-.483.963.963,0,0,0-.882.46,2.918,2.918,0,0,0-.3,1.438V-3.3a3.273,3.273,0,0,0,.284,1.55.967.967,0,0,0,.911.507.951.951,0,0,0,.9-.486,3.2,3.2,0,0,0,.287-1.488ZM-18.8-6.891a1.687,1.687,0,0,1,.51-1.274,1.849,1.849,0,0,1,1.336-.489,1.878,1.878,0,0,1,1.348.483,1.719,1.719,0,0,1,.51,1.31v.422a1.665,1.665,0,0,1-.51,1.271,1.868,1.868,0,0,1-1.336.48,1.88,1.88,0,0,1-1.345-.483,1.706,1.706,0,0,1-.513-1.3Zm1.125.451a.789.789,0,0,0,.2.565.7.7,0,0,0,.53.214.664.664,0,0,0,.521-.217.839.839,0,0,0,.193-.58v-.434a.822.822,0,0,0-.193-.568.678.678,0,0,0-.533-.217.68.68,0,0,0-.521.214.839.839,0,0,0-.2.595Zm2.953,4.348A1.665,1.665,0,0,1-14.2-3.366a1.875,1.875,0,0,1,1.336-.483,1.894,1.894,0,0,1,1.345.478,1.71,1.71,0,0,1,.513,1.315v.422a1.678,1.678,0,0,1-.5,1.269,1.857,1.857,0,0,1-1.342.483,1.879,1.879,0,0,1-1.354-.486,1.7,1.7,0,0,1-.51-1.289Zm1.125.457a.783.783,0,0,0,.211.551.688.688,0,0,0,.527.229q.715,0,.715-.791v-.445a.8.8,0,0,0-.2-.565.687.687,0,0,0-.527-.214.687.687,0,0,0-.527.214.822.822,0,0,0-.2.583Zm-3.012,1-.826-.445,4.166-6.668.826.445Zm9.68-2.7A8.533,8.533,0,0,1-7.307-.785,6.919,6.919,0,0,1-8.4,1.377,3.948,3.948,0,0,1-9.932,2.666l-.328-.9A4.12,4.12,0,0,0-8.947-.164a8.954,8.954,0,0,0,.5-3.006V-3.48a9.156,9.156,0,0,0-.478-3.088,4.3,4.3,0,0,0-1.333-2l.328-.9a3.949,3.949,0,0,1,1.5,1.254A6.83,6.83,0,0,1-7.333-6.1a8.472,8.472,0,0,1,.407,2.5Zm14.1.492A3.019,3.019,0,0,1,6.155-.674,3.57,3.57,0,0,1,3.738.117a3.21,3.21,0,0,1-2.581-1.1A4.529,4.529,0,0,1,.217-4.02v-.521A5.114,5.114,0,0,1,.65-6.709,3.249,3.249,0,0,1,1.89-8.147a3.471,3.471,0,0,1,1.872-.5,3.478,3.478,0,0,1,2.379.791A3.244,3.244,0,0,1,7.184-5.637H5.426a1.782,1.782,0,0,0-.46-1.2,1.7,1.7,0,0,0-1.2-.372,1.494,1.494,0,0,0-1.315.63A3.53,3.53,0,0,0,2-4.623v.645a3.778,3.778,0,0,0,.419,2.021,1.466,1.466,0,0,0,1.321.639A1.735,1.735,0,0,0,4.954-1.69a1.681,1.681,0,0,0,.46-1.151Zm2.7-2.174h.9a1.271,1.271,0,0,0,.955-.322,1.181,1.181,0,0,0,.311-.855,1.044,1.044,0,0,0-.308-.8,1.192,1.192,0,0,0-.847-.287,1.25,1.25,0,0,0-.814.267.852.852,0,0,0-.328.694H8.045a2.083,2.083,0,0,1,.36-1.2A2.4,2.4,0,0,1,9.413-8.35a3.364,3.364,0,0,1,1.427-.3A3.19,3.19,0,0,1,12.961-8a2.209,2.209,0,0,1,.768,1.784,1.8,1.8,0,0,1-.357,1.078,2.322,2.322,0,0,1-.937.756,2.12,2.12,0,0,1,1.075.773,2.1,2.1,0,0,1,.354,1.219,2.246,2.246,0,0,1-.829,1.822A3.334,3.334,0,0,1,10.84.117,3.161,3.161,0,0,1,8.751-.557a2.2,2.2,0,0,1-.812-1.781H9.633a.981.981,0,0,0,.36.785,1.328,1.328,0,0,0,.888.3,1.334,1.334,0,0,0,.946-.319,1.1,1.1,0,0,0,.343-.847q0-1.277-1.406-1.277h-.9Zm10.9,1.488A4.322,4.322,0,0,1,20.039-.82a2.557,2.557,0,0,1-2.145.938A2.574,2.574,0,0,1,15.762-.8a4.2,4.2,0,0,1-.756-2.637V-5.01a4.265,4.265,0,0,1,.741-2.713,2.576,2.576,0,0,1,2.136-.926,2.578,2.578,0,0,1,2.133.917A4.182,4.182,0,0,1,20.771-5.1ZM19.078-5.25a3.118,3.118,0,0,0-.29-1.544.98.98,0,0,0-.905-.483.963.963,0,0,0-.882.46,2.918,2.918,0,0,0-.3,1.438V-3.3a3.273,3.273,0,0,0,.284,1.55.967.967,0,0,0,.911.507.951.951,0,0,0,.9-.486,3.2,3.2,0,0,0,.287-1.488Zm8.578,1.723A4.322,4.322,0,0,1,26.924-.82a2.557,2.557,0,0,1-2.145.938A2.574,2.574,0,0,1,22.646-.8a4.2,4.2,0,0,1-.756-2.637V-5.01a4.265,4.265,0,0,1,.741-2.713,2.576,2.576,0,0,1,2.136-.926,2.578,2.578,0,0,1,2.133.917A4.182,4.182,0,0,1,27.656-5.1ZM25.963-5.25a3.118,3.118,0,0,0-.29-1.544.98.98,0,0,0-.905-.483.963.963,0,0,0-.882.46,2.918,2.918,0,0,0-.3,1.438V-3.3a3.273,3.273,0,0,0,.284,1.55.967.967,0,0,0,.911.507.951.951,0,0,0,.9-.486,3.2,3.2,0,0,0,.287-1.488Zm8.578,1.723A4.322,4.322,0,0,1,33.809-.82a2.557,2.557,0,0,1-2.145.938A2.574,2.574,0,0,1,29.531-.8a4.2,4.2,0,0,1-.756-2.637V-5.01a4.265,4.265,0,0,1,.741-2.713,2.576,2.576,0,0,1,2.136-.926,2.578,2.578,0,0,1,2.133.917A4.182,4.182,0,0,1,34.541-5.1ZM32.848-5.25a3.118,3.118,0,0,0-.29-1.544.98.98,0,0,0-.905-.483.963.963,0,0,0-.882.46,2.918,2.918,0,0,0-.3,1.438V-3.3a3.273,3.273,0,0,0,.284,1.55.967.967,0,0,0,.911.507.951.951,0,0,0,.9-.486,3.2,3.2,0,0,0,.287-1.488ZM39.8,0H38.1V-6.527L36.082-5.9V-7.277l3.533-1.266H39.8Z" transform="translate(-2828 -7553)" fill="#12263f"/>
    <path id="Trazado_874390" data-name="Trazado 874390" d="M-39.217-3.469a8.992,8.992,0,0,1,.357-2.555A6.742,6.742,0,0,1-37.8-8.171a3.938,3.938,0,0,1,1.512-1.3l.328.914A4.079,4.079,0,0,0-37.3-6.6a9.061,9.061,0,0,0-.48,3.094v.182a9.235,9.235,0,0,0,.475,3.105A4.158,4.158,0,0,0-35.965,1.77l-.328.9A3.94,3.94,0,0,1-37.778,1.4,6.629,6.629,0,0,1-38.83-.686a8.939,8.939,0,0,1-.387-2.473Zm7.43.5h-3.3V-4.336h3.3Zm3.012-2.045h.9a1.271,1.271,0,0,0,.955-.322,1.181,1.181,0,0,0,.311-.855,1.044,1.044,0,0,0-.308-.8,1.192,1.192,0,0,0-.847-.287,1.25,1.25,0,0,0-.814.267.852.852,0,0,0-.328.694H-30.6a2.083,2.083,0,0,1,.36-1.2,2.4,2.4,0,0,1,1.008-.829,3.364,3.364,0,0,1,1.427-.3A3.19,3.19,0,0,1-25.682-8a2.209,2.209,0,0,1,.768,1.784,1.8,1.8,0,0,1-.357,1.078,2.322,2.322,0,0,1-.937.756,2.12,2.12,0,0,1,1.075.773,2.1,2.1,0,0,1,.354,1.219,2.246,2.246,0,0,1-.829,1.822A3.334,3.334,0,0,1-27.8.117a3.161,3.161,0,0,1-2.089-.674A2.2,2.2,0,0,1-30.7-2.338h1.693a.981.981,0,0,0,.36.785,1.328,1.328,0,0,0,.888.3,1.334,1.334,0,0,0,.946-.319,1.1,1.1,0,0,0,.343-.847q0-1.277-1.406-1.277h-.9Zm10.9,1.488A4.322,4.322,0,0,1-18.6-.82a2.557,2.557,0,0,1-2.145.938A2.574,2.574,0,0,1-22.881-.8a4.2,4.2,0,0,1-.756-2.637V-5.01A4.265,4.265,0,0,1-22.9-7.723a2.576,2.576,0,0,1,2.136-.926,2.578,2.578,0,0,1,2.133.917A4.182,4.182,0,0,1-17.871-5.1ZM-19.564-5.25a3.118,3.118,0,0,0-.29-1.544.98.98,0,0,0-.905-.483.963.963,0,0,0-.882.46,2.918,2.918,0,0,0-.3,1.438V-3.3a3.273,3.273,0,0,0,.284,1.55.967.967,0,0,0,.911.507.951.951,0,0,0,.9-.486,3.2,3.2,0,0,0,.287-1.488Zm2.813-1.641a1.687,1.687,0,0,1,.51-1.274,1.849,1.849,0,0,1,1.336-.489,1.878,1.878,0,0,1,1.348.483,1.719,1.719,0,0,1,.51,1.31v.422a1.665,1.665,0,0,1-.51,1.271,1.868,1.868,0,0,1-1.336.48,1.88,1.88,0,0,1-1.345-.483,1.706,1.706,0,0,1-.513-1.3Zm1.125.451a.789.789,0,0,0,.2.565.7.7,0,0,0,.53.214.664.664,0,0,0,.521-.217.839.839,0,0,0,.193-.58v-.434a.822.822,0,0,0-.193-.568.678.678,0,0,0-.533-.217.68.68,0,0,0-.521.214.839.839,0,0,0-.2.595Zm2.953,4.348a1.665,1.665,0,0,1,.516-1.274,1.875,1.875,0,0,1,1.336-.483,1.894,1.894,0,0,1,1.345.478,1.71,1.71,0,0,1,.513,1.315v.422a1.678,1.678,0,0,1-.5,1.269,1.857,1.857,0,0,1-1.342.483,1.879,1.879,0,0,1-1.354-.486,1.7,1.7,0,0,1-.51-1.289Zm1.125.457a.783.783,0,0,0,.211.551.688.688,0,0,0,.527.229q.715,0,.715-.791v-.445a.8.8,0,0,0-.2-.565.687.687,0,0,0-.527-.214.687.687,0,0,0-.527.214.822.822,0,0,0-.2.583Zm-3.012,1-.826-.445,4.166-6.668.826.445Zm9.68-2.7A8.533,8.533,0,0,1-5.262-.785a6.919,6.919,0,0,1-1.1,2.162A3.948,3.948,0,0,1-7.887,2.666l-.328-.9A4.12,4.12,0,0,0-6.9-.164,8.954,8.954,0,0,0-6.4-3.17V-3.48a9.156,9.156,0,0,0-.478-3.088,4.3,4.3,0,0,0-1.333-2l.328-.9a3.949,3.949,0,0,1,1.5,1.254A6.83,6.83,0,0,1-5.288-6.1a8.472,8.472,0,0,1,.407,2.5ZM4.664-3.7H1.289v2.285H5.25V0H-.469V-8.531H5.238v1.424H1.289v2.033H4.664Zm1.688-.5.492-4.336h4.781v1.412H8.232L8.021-5.285A2.685,2.685,0,0,1,9.3-5.607a2.459,2.459,0,0,1,1.91.756,3.019,3.019,0,0,1,.691,2.115,3.093,3.093,0,0,1-.349,1.479,2.461,2.461,0,0,1-1,1.014,3.119,3.119,0,0,1-1.535.36A3.312,3.312,0,0,1,7.588-.2a2.546,2.546,0,0,1-1.046-.882,2.4,2.4,0,0,1-.407-1.295H7.811a1.252,1.252,0,0,0,.372.829,1.18,1.18,0,0,0,.835.3A1.041,1.041,0,0,0,9.9-1.661a1.914,1.914,0,0,0,.311-1.169,1.582,1.582,0,0,0-.357-1.113A1.312,1.312,0,0,0,8.842-4.33a1.466,1.466,0,0,0-.979.316L7.7-3.861Zm12.375.668A4.322,4.322,0,0,1,17.994-.82,2.557,2.557,0,0,1,15.85.117,2.574,2.574,0,0,1,13.717-.8a4.2,4.2,0,0,1-.756-2.637V-5.01A4.265,4.265,0,0,1,13.7-7.723a2.576,2.576,0,0,1,2.136-.926,2.578,2.578,0,0,1,2.133.917A4.182,4.182,0,0,1,18.727-5.1ZM17.033-5.25a3.118,3.118,0,0,0-.29-1.544.98.98,0,0,0-.905-.483.963.963,0,0,0-.882.46,2.918,2.918,0,0,0-.3,1.438V-3.3a3.273,3.273,0,0,0,.284,1.55.967.967,0,0,0,.911.507.951.951,0,0,0,.9-.486,3.2,3.2,0,0,0,.287-1.488Zm8.578,1.723A4.322,4.322,0,0,1,24.879-.82a2.557,2.557,0,0,1-2.145.938A2.574,2.574,0,0,1,20.6-.8a4.2,4.2,0,0,1-.756-2.637V-5.01a4.265,4.265,0,0,1,.741-2.713,2.576,2.576,0,0,1,2.136-.926,2.578,2.578,0,0,1,2.133.917A4.182,4.182,0,0,1,25.611-5.1ZM23.918-5.25a3.118,3.118,0,0,0-.29-1.544.98.98,0,0,0-.905-.483.963.963,0,0,0-.882.46,2.918,2.918,0,0,0-.3,1.438V-3.3a3.273,3.273,0,0,0,.284,1.55.967.967,0,0,0,.911.507.951.951,0,0,0,.9-.486,3.2,3.2,0,0,0,.287-1.488ZM32.5-3.527A4.322,4.322,0,0,1,31.764-.82a2.557,2.557,0,0,1-2.145.938A2.574,2.574,0,0,1,27.486-.8a4.2,4.2,0,0,1-.756-2.637V-5.01a4.265,4.265,0,0,1,.741-2.713,2.576,2.576,0,0,1,2.136-.926,2.578,2.578,0,0,1,2.133.917A4.182,4.182,0,0,1,32.5-5.1ZM30.8-5.25a3.118,3.118,0,0,0-.29-1.544.98.98,0,0,0-.905-.483.963.963,0,0,0-.882.46,2.918,2.918,0,0,0-.3,1.438V-3.3a3.273,3.273,0,0,0,.284,1.55.967.967,0,0,0,.911.507.951.951,0,0,0,.9-.486A3.2,3.2,0,0,0,30.8-3.223ZM37.752,0H36.059V-6.527L34.037-5.9V-7.277L37.57-8.543h.182Z" transform="translate(-2710 -7553)" fill="#12263f"/>
    <path id="Trazado_874391" data-name="Trazado 874391" d="M-33.205-3.469a8.992,8.992,0,0,1,.357-2.555,6.742,6.742,0,0,1,1.055-2.147,3.938,3.938,0,0,1,1.512-1.3l.328.914A4.079,4.079,0,0,0-31.289-6.6,9.061,9.061,0,0,0-31.77-3.5v.182a9.235,9.235,0,0,0,.475,3.105A4.158,4.158,0,0,0-29.953,1.77l-.328.9A3.94,3.94,0,0,1-31.767,1.4,6.629,6.629,0,0,1-32.818-.686a8.939,8.939,0,0,1-.387-2.473Zm9.809-.059A4.322,4.322,0,0,1-24.129-.82a2.557,2.557,0,0,1-2.145.938A2.574,2.574,0,0,1-28.406-.8a4.2,4.2,0,0,1-.756-2.637V-5.01a4.265,4.265,0,0,1,.741-2.713,2.576,2.576,0,0,1,2.136-.926,2.578,2.578,0,0,1,2.133.917A4.182,4.182,0,0,1-23.4-5.1ZM-25.09-5.25a3.118,3.118,0,0,0-.29-1.544.98.98,0,0,0-.905-.483.963.963,0,0,0-.882.46,2.918,2.918,0,0,0-.3,1.438V-3.3a3.273,3.273,0,0,0,.284,1.55.967.967,0,0,0,.911.507.951.951,0,0,0,.9-.486,3.2,3.2,0,0,0,.287-1.488Zm2.813-1.641a1.687,1.687,0,0,1,.51-1.274,1.849,1.849,0,0,1,1.336-.489,1.878,1.878,0,0,1,1.348.483,1.719,1.719,0,0,1,.51,1.31v.422a1.665,1.665,0,0,1-.51,1.271,1.868,1.868,0,0,1-1.336.48,1.88,1.88,0,0,1-1.345-.483,1.706,1.706,0,0,1-.513-1.3Zm1.125.451a.789.789,0,0,0,.2.565.7.7,0,0,0,.53.214.664.664,0,0,0,.521-.217.839.839,0,0,0,.193-.58v-.434a.822.822,0,0,0-.193-.568.678.678,0,0,0-.533-.217.68.68,0,0,0-.521.214.839.839,0,0,0-.2.595ZM-18.2-2.092a1.665,1.665,0,0,1,.516-1.274,1.875,1.875,0,0,1,1.336-.483A1.894,1.894,0,0,1-15-3.372a1.71,1.71,0,0,1,.513,1.315v.422a1.678,1.678,0,0,1-.5,1.269,1.857,1.857,0,0,1-1.342.483,1.879,1.879,0,0,1-1.354-.486,1.7,1.7,0,0,1-.51-1.289Zm1.125.457a.783.783,0,0,0,.211.551.688.688,0,0,0,.527.229q.715,0,.715-.791v-.445a.8.8,0,0,0-.2-.565.687.687,0,0,0-.527-.214.687.687,0,0,0-.527.214.822.822,0,0,0-.2.583Zm-3.012,1-.826-.445,4.166-6.668.826.445Zm9.68-2.7a8.533,8.533,0,0,1-.381,2.549,6.919,6.919,0,0,1-1.1,2.162,3.948,3.948,0,0,1-1.529,1.289l-.328-.9A4.12,4.12,0,0,0-12.428-.164a8.954,8.954,0,0,0,.5-3.006V-3.48a9.156,9.156,0,0,0-.478-3.088,4.3,4.3,0,0,0-1.333-2l.328-.9a3.949,3.949,0,0,1,1.5,1.254,6.83,6.83,0,0,1,1.1,2.115,8.472,8.472,0,0,1,.407,2.5Zm9.545-.152H-4.236V0H-5.994V-8.531H-.439v1.424h-3.8v2.2H-.861Zm6.574,0H2.338V0H.58V-8.531H6.135v1.424h-3.8v2.2H5.713Zm7-.041A4.322,4.322,0,0,1,11.982-.82,2.557,2.557,0,0,1,9.838.117,2.574,2.574,0,0,1,7.705-.8a4.2,4.2,0,0,1-.756-2.637V-5.01A4.265,4.265,0,0,1,7.69-7.723a2.576,2.576,0,0,1,2.136-.926,2.578,2.578,0,0,1,2.133.917A4.182,4.182,0,0,1,12.715-5.1ZM11.021-5.25a3.118,3.118,0,0,0-.29-1.544.98.98,0,0,0-.905-.483.963.963,0,0,0-.882.46,2.918,2.918,0,0,0-.3,1.438V-3.3a3.273,3.273,0,0,0,.284,1.55.967.967,0,0,0,.911.507.951.951,0,0,0,.9-.486,3.2,3.2,0,0,0,.287-1.488ZM19.6-3.527A4.322,4.322,0,0,1,18.867-.82a2.557,2.557,0,0,1-2.145.938A2.574,2.574,0,0,1,14.59-.8a4.2,4.2,0,0,1-.756-2.637V-5.01a4.265,4.265,0,0,1,.741-2.713,2.576,2.576,0,0,1,2.136-.926,2.578,2.578,0,0,1,2.133.917A4.182,4.182,0,0,1,19.6-5.1ZM17.906-5.25a3.118,3.118,0,0,0-.29-1.544.98.98,0,0,0-.905-.483.963.963,0,0,0-.882.46,2.918,2.918,0,0,0-.3,1.438V-3.3a3.273,3.273,0,0,0,.284,1.55.967.967,0,0,0,.911.507.951.951,0,0,0,.9-.486,3.2,3.2,0,0,0,.287-1.488Zm8.578,1.723A4.322,4.322,0,0,1,25.752-.82a2.557,2.557,0,0,1-2.145.938A2.574,2.574,0,0,1,21.475-.8a4.2,4.2,0,0,1-.756-2.637V-5.01a4.265,4.265,0,0,1,.741-2.713A2.576,2.576,0,0,1,23.6-8.648a2.578,2.578,0,0,1,2.133.917A4.182,4.182,0,0,1,26.484-5.1ZM24.791-5.25a3.118,3.118,0,0,0-.29-1.544.98.98,0,0,0-.905-.483.963.963,0,0,0-.882.46,2.918,2.918,0,0,0-.3,1.438V-3.3a3.273,3.273,0,0,0,.284,1.55.967.967,0,0,0,.911.507.951.951,0,0,0,.9-.486,3.2,3.2,0,0,0,.287-1.488Zm8.578,1.723A4.322,4.322,0,0,1,32.637-.82a2.557,2.557,0,0,1-2.145.938A2.574,2.574,0,0,1,28.359-.8,4.2,4.2,0,0,1,27.6-3.439V-5.01a4.265,4.265,0,0,1,.741-2.713,2.576,2.576,0,0,1,2.136-.926,2.578,2.578,0,0,1,2.133.917A4.182,4.182,0,0,1,33.369-5.1ZM31.676-5.25a3.118,3.118,0,0,0-.29-1.544.98.98,0,0,0-.905-.483.963.963,0,0,0-.882.46,2.918,2.918,0,0,0-.3,1.438V-3.3a3.273,3.273,0,0,0,.284,1.55.967.967,0,0,0,.911.507.951.951,0,0,0,.9-.486,3.2,3.2,0,0,0,.287-1.488Z" transform="translate(-2592 -7553)" fill="#12263f"/>
    <path id="Trazado_874392" data-name="Trazado 874392" d="M-36.425-3.469a8.992,8.992,0,0,1,.357-2.555,6.742,6.742,0,0,1,1.055-2.147,3.938,3.938,0,0,1,1.512-1.3l.328.914A4.079,4.079,0,0,0-34.509-6.6a9.061,9.061,0,0,0-.48,3.094v.182a9.235,9.235,0,0,0,.475,3.105A4.158,4.158,0,0,0-33.173,1.77l-.328.9A3.94,3.94,0,0,1-34.986,1.4,6.629,6.629,0,0,1-36.038-.686a8.939,8.939,0,0,1-.387-2.473Zm5.789-1.547h.9a1.271,1.271,0,0,0,.955-.322,1.181,1.181,0,0,0,.311-.855,1.044,1.044,0,0,0-.308-.8,1.192,1.192,0,0,0-.847-.287,1.25,1.25,0,0,0-.814.267.852.852,0,0,0-.328.694h-1.693a2.083,2.083,0,0,1,.36-1.2A2.4,2.4,0,0,1-31.09-8.35a3.364,3.364,0,0,1,1.427-.3A3.19,3.19,0,0,1-27.542-8a2.209,2.209,0,0,1,.768,1.784,1.8,1.8,0,0,1-.357,1.078,2.322,2.322,0,0,1-.937.756,2.12,2.12,0,0,1,1.075.773,2.1,2.1,0,0,1,.354,1.219,2.246,2.246,0,0,1-.829,1.822,3.334,3.334,0,0,1-2.194.686,3.161,3.161,0,0,1-2.089-.674,2.2,2.2,0,0,1-.812-1.781h1.693a.981.981,0,0,0,.36.785,1.328,1.328,0,0,0,.888.3,1.334,1.334,0,0,0,.946-.319,1.1,1.1,0,0,0,.343-.847q0-1.277-1.406-1.277h-.9Zm10.9,1.488A4.322,4.322,0,0,1-20.464-.82a2.557,2.557,0,0,1-2.145.938A2.574,2.574,0,0,1-24.741-.8,4.2,4.2,0,0,1-25.5-3.439V-5.01a4.265,4.265,0,0,1,.741-2.713,2.576,2.576,0,0,1,2.136-.926,2.578,2.578,0,0,1,2.133.917A4.182,4.182,0,0,1-19.731-5.1ZM-21.425-5.25a3.118,3.118,0,0,0-.29-1.544.98.98,0,0,0-.905-.483.963.963,0,0,0-.882.46,2.918,2.918,0,0,0-.3,1.438V-3.3a3.273,3.273,0,0,0,.284,1.55.967.967,0,0,0,.911.507.951.951,0,0,0,.9-.486,3.2,3.2,0,0,0,.287-1.488Zm2.813-1.641a1.687,1.687,0,0,1,.51-1.274,1.849,1.849,0,0,1,1.336-.489,1.878,1.878,0,0,1,1.348.483,1.719,1.719,0,0,1,.51,1.31v.422a1.665,1.665,0,0,1-.51,1.271,1.868,1.868,0,0,1-1.336.48A1.88,1.88,0,0,1-18.1-5.171a1.706,1.706,0,0,1-.513-1.3Zm1.125.451a.789.789,0,0,0,.2.565.7.7,0,0,0,.53.214.664.664,0,0,0,.521-.217.839.839,0,0,0,.193-.58v-.434a.822.822,0,0,0-.193-.568.678.678,0,0,0-.533-.217.68.68,0,0,0-.521.214.839.839,0,0,0-.2.595Zm2.953,4.348a1.665,1.665,0,0,1,.516-1.274,1.875,1.875,0,0,1,1.336-.483,1.894,1.894,0,0,1,1.345.478,1.71,1.71,0,0,1,.513,1.315v.422a1.678,1.678,0,0,1-.5,1.269,1.857,1.857,0,0,1-1.342.483,1.879,1.879,0,0,1-1.354-.486,1.7,1.7,0,0,1-.51-1.289Zm1.125.457a.783.783,0,0,0,.211.551.688.688,0,0,0,.527.229q.715,0,.715-.791v-.445a.8.8,0,0,0-.2-.565.687.687,0,0,0-.527-.214.687.687,0,0,0-.527.214.822.822,0,0,0-.2.583Zm-3.012,1-.826-.445,4.166-6.668.826.445Zm9.68-2.7A8.533,8.533,0,0,1-7.122-.785a6.919,6.919,0,0,1-1.1,2.162A3.948,3.948,0,0,1-9.747,2.666l-.328-.9A4.12,4.12,0,0,0-8.763-.164a8.954,8.954,0,0,0,.5-3.006V-3.48a9.156,9.156,0,0,0-.478-3.088,4.3,4.3,0,0,0-1.333-2l.328-.9a3.949,3.949,0,0,1,1.5,1.254A6.83,6.83,0,0,1-7.148-6.1a8.472,8.472,0,0,1,.407,2.5ZM2.8-3.486H-.571V0H-2.329V-8.531H3.226v1.424h-3.8v2.2H2.8Zm6.574,0H6V0H4.245V-8.531H9.8v1.424H6v2.2H9.378ZM14.751,0H13.058V-6.527L11.036-5.9V-7.277l3.533-1.266h.182Zm8.086-3.7H19.462v2.285h3.961V0H17.7V-8.531h5.707v1.424H19.462v2.033h3.375ZM28.386,0H26.692V-6.527L24.671-5.9V-7.277L28.2-8.543h.182Zm8.086-3.486H33.1V0H31.339V-8.531h5.555v1.424H33.1v2.2h3.375Z" transform="translate(-2478 -7553)" fill="#12263f"/>
    <path id="Trazado_874393" data-name="Trazado 874393" d="M-37.813-3.469a8.992,8.992,0,0,1,.357-2.555A6.742,6.742,0,0,1-36.4-8.171a3.938,3.938,0,0,1,1.512-1.3l.328.914A4.079,4.079,0,0,0-35.9-6.6a9.061,9.061,0,0,0-.48,3.094v.182A9.235,9.235,0,0,0-35.9-.217,4.158,4.158,0,0,0-34.562,1.77l-.328.9A3.94,3.94,0,0,1-36.375,1.4,6.629,6.629,0,0,1-37.427-.686a8.939,8.939,0,0,1-.387-2.473Zm8.66-5.15v1.395h-.164a2.877,2.877,0,0,0-1.849.6,2.428,2.428,0,0,0-.841,1.611,2.306,2.306,0,0,1,1.717-.691,2.173,2.173,0,0,1,1.77.8,3.194,3.194,0,0,1,.656,2.1,3.142,3.142,0,0,1-.36,1.506,2.584,2.584,0,0,1-1.02,1.049,2.962,2.962,0,0,1-1.491.375A2.766,2.766,0,0,1-32.912-.82a3.639,3.639,0,0,1-.829-2.5v-.609a5.477,5.477,0,0,1,.524-2.452A3.845,3.845,0,0,1-31.711-8.03a4.413,4.413,0,0,1,2.276-.589Zm-1.652,4.271a1.351,1.351,0,0,0-.744.214,1.288,1.288,0,0,0-.492.565v.516a2.288,2.288,0,0,0,.334,1.327,1.079,1.079,0,0,0,.938.478,1.067,1.067,0,0,0,.882-.431,1.759,1.759,0,0,0,.337-1.116,1.755,1.755,0,0,0-.34-1.125A1.107,1.107,0,0,0-30.806-4.348Zm9.686.82A4.322,4.322,0,0,1-21.853-.82,2.557,2.557,0,0,1-24,.117,2.574,2.574,0,0,1-26.13-.8a4.2,4.2,0,0,1-.756-2.637V-5.01a4.265,4.265,0,0,1,.741-2.713,2.576,2.576,0,0,1,2.136-.926,2.578,2.578,0,0,1,2.133.917A4.182,4.182,0,0,1-21.12-5.1ZM-22.813-5.25a3.118,3.118,0,0,0-.29-1.544.98.98,0,0,0-.905-.483.963.963,0,0,0-.882.46,2.918,2.918,0,0,0-.3,1.438V-3.3a3.273,3.273,0,0,0,.284,1.55A.967.967,0,0,0-24-1.248a.951.951,0,0,0,.9-.486,3.2,3.2,0,0,0,.287-1.488ZM-20-6.891a1.687,1.687,0,0,1,.51-1.274,1.849,1.849,0,0,1,1.336-.489,1.878,1.878,0,0,1,1.348.483,1.719,1.719,0,0,1,.51,1.31v.422a1.665,1.665,0,0,1-.51,1.271,1.868,1.868,0,0,1-1.336.48,1.88,1.88,0,0,1-1.345-.483A1.706,1.706,0,0,1-20-6.475Zm1.125.451a.789.789,0,0,0,.2.565.7.7,0,0,0,.53.214.664.664,0,0,0,.521-.217.839.839,0,0,0,.193-.58v-.434a.822.822,0,0,0-.193-.568.678.678,0,0,0-.533-.217.68.68,0,0,0-.521.214.839.839,0,0,0-.2.595Zm2.953,4.348a1.665,1.665,0,0,1,.516-1.274,1.875,1.875,0,0,1,1.336-.483,1.894,1.894,0,0,1,1.345.478,1.71,1.71,0,0,1,.513,1.315v.422a1.678,1.678,0,0,1-.5,1.269A1.857,1.857,0,0,1-14.06.117a1.879,1.879,0,0,1-1.354-.486,1.7,1.7,0,0,1-.51-1.289Zm1.125.457a.783.783,0,0,0,.211.551.688.688,0,0,0,.527.229q.715,0,.715-.791v-.445a.8.8,0,0,0-.2-.565.687.687,0,0,0-.527-.214.687.687,0,0,0-.527.214.822.822,0,0,0-.2.583Zm-3.012,1-.826-.445,4.166-6.668.826.445Zm9.68-2.7A8.533,8.533,0,0,1-8.511-.785a6.919,6.919,0,0,1-1.1,2.162,3.948,3.948,0,0,1-1.529,1.289l-.328-.9A4.12,4.12,0,0,0-10.151-.164a8.954,8.954,0,0,0,.5-3.006V-3.48a9.156,9.156,0,0,0-.478-3.088,4.3,4.3,0,0,0-1.333-2l.328-.9a3.949,3.949,0,0,1,1.5,1.254A6.83,6.83,0,0,1-8.537-6.1,8.472,8.472,0,0,1-8.13-3.6Zm9.545-.152H-1.96V0H-3.718V-8.531H1.837v1.424h-3.8v2.2H1.415ZM7.989-3.7H4.614v2.285H8.575V0H2.856V-8.531H8.563v1.424H4.614v2.033H7.989Zm3.158-1.318h.9A1.271,1.271,0,0,0,13-5.338a1.181,1.181,0,0,0,.311-.855,1.044,1.044,0,0,0-.308-.8,1.192,1.192,0,0,0-.847-.287,1.25,1.25,0,0,0-.814.267.852.852,0,0,0-.328.694H9.325a2.083,2.083,0,0,1,.36-1.2,2.4,2.4,0,0,1,1.008-.829,3.364,3.364,0,0,1,1.427-.3A3.19,3.19,0,0,1,14.241-8a2.209,2.209,0,0,1,.768,1.784,1.8,1.8,0,0,1-.357,1.078,2.322,2.322,0,0,1-.937.756,2.12,2.12,0,0,1,1.075.773,2.1,2.1,0,0,1,.354,1.219,2.246,2.246,0,0,1-.829,1.822A3.334,3.334,0,0,1,12.12.117a3.161,3.161,0,0,1-2.089-.674A2.2,2.2,0,0,1,9.22-2.338h1.693a.981.981,0,0,0,.36.785,1.328,1.328,0,0,0,.888.3,1.334,1.334,0,0,0,.946-.319,1.1,1.1,0,0,0,.343-.847q0-1.277-1.406-1.277h-.9ZM23.188-2.842A3.019,3.019,0,0,1,22.172-.674a3.57,3.57,0,0,1-2.417.791,3.21,3.21,0,0,1-2.581-1.1,4.529,4.529,0,0,1-.94-3.032v-.521a5.114,5.114,0,0,1,.434-2.168,3.249,3.249,0,0,1,1.239-1.438,3.471,3.471,0,0,1,1.872-.5,3.478,3.478,0,0,1,2.379.791A3.244,3.244,0,0,1,23.2-5.637H21.442a1.782,1.782,0,0,0-.46-1.2,1.7,1.7,0,0,0-1.2-.372,1.494,1.494,0,0,0-1.315.63,3.53,3.53,0,0,0-.448,1.954v.645a3.778,3.778,0,0,0,.419,2.021,1.466,1.466,0,0,0,1.321.639,1.735,1.735,0,0,0,1.216-.372,1.681,1.681,0,0,0,.46-1.151Zm2.7-2.174h.9a1.271,1.271,0,0,0,.955-.322,1.181,1.181,0,0,0,.311-.855,1.044,1.044,0,0,0-.308-.8,1.192,1.192,0,0,0-.847-.287,1.25,1.25,0,0,0-.814.267.852.852,0,0,0-.328.694H24.062a2.083,2.083,0,0,1,.36-1.2A2.4,2.4,0,0,1,25.43-8.35a3.364,3.364,0,0,1,1.427-.3A3.19,3.19,0,0,1,28.978-8a2.209,2.209,0,0,1,.768,1.784,1.8,1.8,0,0,1-.357,1.078,2.322,2.322,0,0,1-.937.756,2.12,2.12,0,0,1,1.075.773,2.1,2.1,0,0,1,.354,1.219,2.246,2.246,0,0,1-.829,1.822,3.334,3.334,0,0,1-2.194.686,3.161,3.161,0,0,1-2.089-.674,2.2,2.2,0,0,1-.812-1.781h1.693a.981.981,0,0,0,.36.785,1.328,1.328,0,0,0,.888.3,1.334,1.334,0,0,0,.946-.319,1.1,1.1,0,0,0,.343-.847q0-1.277-1.406-1.277h-.9Zm10.16,3.258H32.962L32.376,0H30.507l3.176-8.531h1.629L38.5,0H36.636ZM33.437-3.182h2.133L34.5-6.375Z" transform="translate(-2367 -7553)" fill="#12263f"/>
  </g>
</svg>
